{
.formatVersion = 3;
classes = (
{
code = "zero.dnom one.dnom two.dnom three.dnom four.dnom five.dnom six.dnom seven.dnom eight.dnom nine.dnom equal.dnom hyphen.dnom minus.dnom parenleft.dnom parenright.dnom plus.dnom";
name = dnom_frac;
},
{
code = "zero one two three four five six seven eight nine";
name = dnom_frac_numr_ordn_sinf_subs_sups;
},
{
code = "slash zero one two three four five six seven eight nine";
name = frac;
},
{
code = "A O a o zero.numr one.numr two.numr three.numr four.numr five.numr six.numr seven.numr eight.numr nine.numr equal.numr hyphen.numr minus.numr parenleft.numr parenright.numr plus.numr";
name = frac_ordn;
},
{
code = "ordfeminine ordmasculine ordfeminine ordmasculine zero.dnom one.dnom two.dnom three.dnom four.dnom five.dnom six.dnom seven.dnom eight.dnom nine.dnom equal.dnom hyphen.dnom minus.dnom parenleft.dnom parenright.dnom plus.dnom";
name = frac_ordn2;
},
{
code = "zero.numr one.numr two.numr three.numr four.numr five.numr six.numr seven.numr eight.numr nine.numr equal.numr hyphen.numr minus.numr parenleft.numr parenright.numr plus.numr";
name = frac_numr;
},
{
code = "zero.inferior one.inferior two.inferior three.inferior four.inferior five.inferior six.inferior seven.inferior eight.inferior nine.inferior plus.inferior minus.inferior equal.inferior parenleft.inferior parenright.inferior hyphen.inferior";
name = sinf_subs;
},
{
code = "zero.superior onesuperior twosuperior threesuperior four.superior five.superior six.superior seven.superior eight.superior nine.superior plus.superior minus.superior equal.superior parenleft.superior parenright.superior hyphen.superior";
name = sups;
},
{

glyphs = (
{
glyphname = .notdef;
layers = (
{
hints = (
{
place = (474,88);
type = Stem;
},
{
place = (544,51);
type = Stem;
},
{
place = (577,85);
type = Stem;
},
{
horizontal = 1;
place = (-1,94);
type = Stem;
},
{
horizontal = 1;
place = (157,20);
type = Stem;
},
{
horizontal = 1;
place = (163,218);
type = Stem;
},
{
horizontal = 1;
place = (157,220);
type = Stem;
}
);
layerId = "7E68ED66-4A14-482F-A6AB-3A68329E00A9";
shapes = (
{
closed = 1;
nodes = (
(435,379,l),
(432,379,l),
(423,368,o),
(382,355,o),
(351,358,c),
(344,328,l),
(349,379,o),
(301,392,o),
(257,376,cs),
(216,361,o),
(185,323,o),
(173,264,cs),
(155,174,o),
(207,157,o),
(241,157,cs),
(283,157,o),
(301,184,o),
(316,212,c),
(313,195,o),
(312,166,o),
(337,161,c),
(402,161,l),
(402,162,o),
(402,162,o),
(402,162,c),
(388,172,o),
(387,179,o),
(394,208,cs)
);
},
{
closed = 1;
nodes = (
(326,256,ls),
(317,219,o),
(288,168,o),
(266,168,cs),
(249,168,o),
(242,199,o),
(260,274,cs),
(276,337,o),
(294,367,o),
(316,367,cs),
(343,367,o),
(341,319,o),
(334,288,cs)
);
},
{
closed = 1;
nodes = (
(472,380,o),
(434,380,o),
(434,380,c),
(429,375,l),
(476,375,l),
(443,209,ls),
(437,180,o),
(433,173,o),
(415,163,c),
(531,162,l),
(522,168,o),
(518,174,o),
(518,184,cs),
(518,191,o),
(520,198,o),
(522,209,cs),
(556,373,l),
(556,373,o),
(537,380,o),
(527,396,cs),
(505,432,o),
(556,471,o),
(602,480,cs),
(641,487,o),
(703,477,o),
(693,438,c),
(693,438,o),
(696,438,o),
(697,438,c),
(707,482,o),
(648,493,o),
(600,485,cs),
(540,475,o),
(488,433,o),
(478,380,c)
);
},
{
closed = 1;
nodes = (
(686,384,l),
(697,438,l),
(693,438,l),
(684,410,o),
(625,378,o),
(585,377,c),
(584,374,l),
(605,374,l),
(572,219,ls),
(566,191,o),
(566,157,o),
(622,157,cs),
(667,157,o),
(690,179,o),
(706,219,c),
(706,219,o),
(704,226,o),
(704,231,c),
(700,220,o),
(681,177,o),
(655,177,cs),
(644,177,o),
(644,185,o),
(649,209,cs),
(683,374,l),
(731,374,l),
(733,384,l)
);
},
{
closed = 1;
nodes = (
(152,384,l),
(163,438,l),
(159,438,l),
(150,410,o),
(91,378,o),
(51,377,c),
(50,374,l),
(71,374,l),
(38,219,ls),
(32,191,o),
(32,157,o),
(88,157,cs),
(133,157,o),
(156,179,o),
(172,219,c),
(172,219,o),
(171,228,o),
(171,233,c),
(167,222,o),
(147,177,o),
(121,177,cs),
(110,177,o),
(110,185,o),
(115,209,cs),
(149,374,l),
(197,374,l),
(199,384,l)
);
},
{
closed = 1;
nodes = (
(316,23,o),
(310,20,o),
(310,11,cs),
(310,2,o),
(316,-2,o),
(322,-2,cs),
(328,-2,o),
(334,2,o),
(334,11,cs),
(334,20,o),
(328,23,o),
(322,23,cs)
);
},
{
closed = 1;
nodes = (
(335,92,l),
(362,0,l),
(383,0,l),
(401,70,l),
(420,0,l),
(440,0,l),
(468,92,l),
(450,92,l),
(433,25,l),
(432,23,o),
(432,21,o),
(432,20,c),
(429,20,l),
(429,21,o),
(428,23,o),
(428,25,c),
(413,92,l),
(390,92,l),
(375,25,l),
(375,23,o),
(374,21,o),
(374,20,c),
(371,20,l),
(371,21,o),
(370,23,o),
(370,25,c),
(353,92,l)
);
},
{
closed = 1;
nodes = (
(490,93,o),
(474,82,o),
(474,46,cs),
(474,10,o),
(490,-1,o),
(517,-1,cs),
(544,-1,o),
(562,10,o),
(562,46,cs),
(562,82,o),
(544,93,o),
(517,93,cs)
);
},
{
closed = 1;
nodes = (
(500,13,o),
(491,23,o),
(491,47,cs),
(491,71,o),
(500,79,o),
(516,79,cs),
(534,79,o),
(544,70,o),
(544,46,cs),
(544,22,o),
(534,13,o),
(517,13,cs)
);
},
{
closed = 1;
nodes = (
(633,92,l),
(631,93,o),
(629,93,o),
(629,93,cs),
(606,93,o),
(595,80,o),
(595,69,c),
(591,92,l),
(577,90,l),
(577,0,l),
(595,0,l),
(595,50,ls),
(595,68,o),
(606,78,o),
(622,78,cs),
(627,78,o),
(632,77,o),
(633,76,c)
);
},
{
closed = 1;
nodes = (
(662,0,l),
(662,34,l),
(674,46,l),
(707,0,l),
(728,0,l),
(687,58,l),
(724,92,l),
(699,92,l),
(662,53,l),
(662,128,l),
(645,126,l),
(645,0,l)
);
}
);
width = 755;
}
);
},
{
glyphname = m;
layers = (
{
anchors = (
{
name = top;
position = "{472, 520}";
},
{
name = bottom;
position = "{472, -20}";
}
);
hints = (
{
place = (64,190);
type = Stem;
},
{
place = (376,190);
type = Stem;
},
{
place = (688,190);
type = Stem;
},
{
horizontal = 1;
place = (389,131);
type = Stem;
},
{
horizontal = 1;
place = (0,21);
target = up;
type = BottomGhost;
},
{
horizontal = 1;
place = (500,-20);
target = down;
type = TopGhost;
}
);
layerId = "7E68ED66-4A14-482F-A6AB-3A68329E00A9";
shapes = (
{
closed = 1;
nodes = (
(64,0,l),
(254,0,l),
(254,500,l),
(64,500,l)
);
},
{
closed = 1;
nodes = (
(238,282,l),
(254,217,l),
(254,313.18,o),
(272,380,o),
(321,380,cs),
(357,380,o),
(376,344.815,o),
(376,267.407,cs),
(376,0,l),
(566,0,l),
(566,314,ls),
(566,458,o),
(505,520,o),
(415,520,cs),
(328,520,o),
(262,461,o),
(236,360,c)
);
},
{
closed = 1;
nodes = (
(550,282,l),
(566,217,l),
(566,313.18,o),
(584,380,o),
(633,380,cs),
(669,380,o),
(688,344.815,o),
(688,267.407,cs),
(688,0,l),
(878,0,l),
(878,314,ls),
(878,458,o),
(817,520,o),
(727,520,cs),
(640,520,o),
(574,461,o),
(548,360,c)
);
}
);
width = 943;
}
);
leftKerningGroup = i;
rightKerningGroup = h;
unicode = 109;
},
{
glyphname = u;
layers = (
{
anchors = (
{
name = ogonek;
position = "{408, -3}";
},
{
name = top;
position = "{300, 520}";
},
{
name = bottom;
position = "{300, -20}";
}
);
hints = (
{
place = (56,190);
type = Stem;
},
{
place = (373,190);
type = Stem;
},
{
horizontal = 1;
place = (-20,130);
type = Stem;
},
{
horizontal = 1;
place = (500,-20);
target = down;
type = TopGhost;
}
);
layerId = "7E68ED66-4A14-482F-A6AB-3A68329E00A9";
shapes = (
{
closed = 1;
nodes = (
(53,500,l),
(53,185,ls),
(53,63,o),
(149,-20,o),
(301,-20,cs),
(448,-20,o),
(548,64,o),
(548,185,cs),
(548,500,l),
(358,500,l),
(358,241.794,ls),
(358,149.508,o),
(341,123,o),
(301,123,cs),
(257,123,o),
(243,158.344,o),
(243,241.794,cs),
(243,500,l)
);
}
);
width = 600;
}
);
leftKerningGroup = u;
unicode = 117;
},
{
glyphname = h;
layers = (
{
anchors = (
{
name = bottom;
position = "{318, -20}";
},
{
name = top;
position = "{151, 750}";
}
);
hints = (
{
place = (60,190);
type = Stem;
},
{
place = (387,190);
type = Stem;
},
{
horizontal = 1;
place = (389,131);
type = Stem;
},
{
horizontal = 1;
place = (0,21);
target = up;
type = BottomGhost;
},
{
horizontal = 1;
place = (750,-20);
target = down;
type = TopGhost;
}
);
layerId = "7E68ED66-4A14-482F-A6AB-3A68329E00A9";
shapes = (
{
closed = 1;
nodes = (
(59,0,l),
(249,0,l),
(249,750,l),
(59,750,l)
);
},
{
closed = 1;
nodes = (
(233,282,l),
(249,217,l),
(249,313.18,o),
(269,380,o),
(324,380,cs),
(364,380,o),
(386,344.815,o),
(386,267.407,cs),
(386,0,l),
(576,0,l),
(576,314,ls),
(576,458,o),
(512,520,o),
(418,520,cs),
(327,520,o),
(258,461,o),
(231,360,c)
);
}
);
width = 635;
}
);
leftKerningGroup = b;
rightKerningGroup = h;
unicode = 104;
},
{
glyphname = l;
layers = (
{
anchors = (
{
name = top;
position = "{150, 750}";
},
{
name = bottom;
position = "{202, -20}";
},
{
name = topright;
position = "{280, 750}";
}
);
hints = (
{
place = (54,190);
type = Stem;
},
{
horizontal = 1;
place = (-20,132);
type = Stem;
},
{
horizontal = 1;
place = (750,-20);
target = down;
type = TopGhost;
}
);
layerId = "7E68ED66-4A14-482F-A6AB-3A68329E00A9";
shapes = (
{
closed = 1;
nodes = (
(54,750,l),
(54,132,ls),
(54,26,o),
(104,-20,o),
(220,-20,cs),
(268,-20,o),
(299,-12,o),
(346,3,c),
(319,133,l),
(300,123.25,o),
(290,120,o),
(280,120,cs),
(255,120,o),
(244,141.033,o),
(244,207.138,cs),
(244,750,l)
);
}
);
width = 350;
}
);
leftKerningGroup = b;
rightKerningGroup = l;
unicode = 108;
},
{
glyphname = p;
layers = (
{
anchors = (
{
name = bottom;
position = "{361, -20}";
},
{
name = top;
position = "{352, 520}";
}
);
hints = (
{
place = (50,190);
type = Stem;
},
{
place = (417,190);
type = Stem;
},
{
horizontal = 1;
place = (-20,127);
type = Stem;
},
{
horizontal = 1;
place = (394,126);
type = Stem;
},
{
horizontal = 1;
place = (500,-20);
target = down;
type = TopGhost;
},
{
horizontal = 1;
place = (-200,21);
target = up;
type = BottomGhost;
}
);
layerId = "7E68ED66-4A14-482F-A6AB-3A68329E00A9";
shapes = (
{
closed = 1;
nodes = (
(250,500,l),
(60,500,l),
(60,-200,l),
(250,-200,l)
);
},
{
closed = 1;
nodes = (
(213,82,o),
(271,-20,o),
(373,-20,cs),
(509,-20,o),
(593,99,o),
(593,255,cs),
(593,411,o),
(523,520,o),
(385,520,cs),
(270,520,o),
(213,428,o),
(213,255,cs)
);
},
{
closed = 1;
nodes = (
(403,167,o),
(373,116,o),
(322,116,cs),
(277,116,o),
(250,168,o),
(250,255,cs),
(250,335,o),
(278,383,o),
(326,383,cs),
(374,383,o),
(403,334,o),
(403,254,cs)
);
}
);
width = 635;
}
);
leftKerningGroup = i;
rightKerningGroup = b1;
unicode = 112;
},
{
glyphname = d;
layers = (
{
anchors = (
{
name = bottom;
position = "{295, -20}";
},
{
name = top;
position = "{288, 750}";
},
{
name = topright;
position = "{630, 750}";
}
);
hints = (
{
place = (39,190);
type = Stem;
},
{
place = (402,190);
type = Stem;
},
{
horizontal = 1;
place = (-20,126);
type = Stem;
},
{
horizontal = 1;
place = (393,127);
type = Stem;
},
{
horizontal = 1;
place = (0,21);
target = up;
type = BottomGhost;
},
{
horizontal = 1;
place = (750,-20);
target = down;
type = TopGhost;
}
);
layerId = "7E68ED66-4A14-482F-A6AB-3A68329E00A9";
shapes = (
{
closed = 1;
nodes = (
(392,0,l),
(582,0,l),
(582,750,l),
(392,750,l)
);
},
{
closed = 1;
nodes = (
(424,432,o),
(368,520,o),
(255,520,cs),
(118,520,o),
(49,411,o),
(49,255,cs),
(49,99,o),
(132,-20,o),
(266,-20,cs),
(367,-20,o),
(424,82,o),
(424,255,cs)
);
},
{
closed = 1;
nodes = (
(239,334,o),
(268,383,o),
(316,383,cs),
(364,383,o),
(392,335,o),
(392,255,cs),
(392,168,o),
(365,116,o),
(320,116,cs),
(269,116,o),
(239,167,o),
(239,254,cs)
);
}
);
width = 635;
}
);
leftKerningGroup = a;
unicode = 100;
},
{
glyphname = o;
layers = (
{
anchors = (
{
name = ogonek;
position = "{420, -3}";
},
{
name = top;
position = "{308, 520}";
},
{
name = bottom;
position = "{308, -20}";
},
{
name = topgr;
position = "{308, 520}";
}
);
hints = (
{
place = (29,190);
type = Stem;
},
{
place = (397,190);
type = Stem;
},
{
horizontal = 1;
place = (-20,130);
type = Stem;
},
{
horizontal = 1;
place = (390,130);
type = Stem;
}
);
layerId = "7E68ED66-4A14-482F-A6AB-3A68329E00A9";
shapes = (
{
closed = 1;
nodes = (
(39,79,o),
(146,-20,o),
(308,-20,cs),
(482,-20,o),
(577,79,o),
(577,255,cs),
(577,421,o),
(481,520,o),
(308,520,cs),
(145,520,o),
(39,421,o),
(39,255,cs)
);
},
{
closed = 1;
nodes = (
(387,163.643,o),
(360,120,o),
(308,120,cs),
(255,120,o),
(229,163.643,o),
(229,250.929,cs),
(229,337.286,o),
(254,380,o),
(308,380,cs),
(360,380,o),
(387,339.143,o),
(387,251.857,cs)
);
}
);
width = 616;
}
);
leftKerningGroup = a;
rightKerningGroup = b1;
unicode = 111;
},
{
glyphname = q;
layers = (
{
anchors = (
{
name = bottom;
position = "{280, -20}";
},
{
name = top;
position = "{281, 520}";
}
);
hints = (
{
place = (39,190);
type = Stem;
},
{
place = (402,190);
type = Stem;
},
{
horizontal = 1;
place = (-20,127);
type = Stem;
},
{
horizontal = 1;
place = (394,126);
type = Stem;
},
{
horizontal = 1;
place = (-200,21);
target = up;
type = BottomGhost;
},
{
horizontal = 1;
place = (500,-20);
target = down;
type = TopGhost;
}
);
layerId = "7E68ED66-4A14-482F-A6AB-3A68329E00A9";
shapes = (
{
closed = 1;
nodes = (
(392,500,l),
(392,-200,l),
(582,-200,l),
(582,500,l)
);
},
{
closed = 1;
nodes = (
(424,428,o),
(368,520,o),
(255,520,cs),
(118,520,o),
(49,411,o),
(49,255,cs),
(49,99,o),
(132,-20,o),
(266,-20,cs),
(367,-20,o),
(424,82,o),
(424,255,cs)
);
},
{
closed = 1;
nodes = (
(239,334,o),
(268,383,o),
(316,383,cs),
(364,383,o),
(392,335,o),
(392,255,cs),
(392,168,o),
(365,116,o),
(320,116,cs),
(269,116,o),
(239,167,o),
(239,254,cs)
);
}
);
width = 635;
}
);
leftKerningGroup = a;
unicode = 113;
},
{
glyphname = b;
layers = (
{
anchors = (
{
name = bottom;
position = "{345, -20}";
},
{
name = top;
position = "{353, 750}";
}
);
hints = (
{
place = (50,190);
type = Stem;
},
{
place = (417,190);
type = Stem;
},
{
horizontal = 1;
place = (-20,126);
type = Stem;
},
{
horizontal = 1;
place = (393,127);
type = Stem;
},
{
horizontal = 1;
place = (750,-20);
target = down;
type = TopGhost;
},
{
horizontal = 1;
place = (0,21);
target = up;
type = BottomGhost;
}
);
layerId = "7E68ED66-4A14-482F-A6AB-3A68329E00A9";
shapes = (
{
closed = 1;
nodes = (
(250,0,l),
(250,750,l),
(60,750,l),
(60,0,l)
);
},
{
closed = 1;
nodes = (
(218,82,o),
(275,-20,o),
(387.974,-20,cs),
(510,-20,o),
(593,99,o),
(593,255,cs),
(593,411,o),
(524,520,o),
(392.319,520,cs),
(274,520,o),
(218,432,o),
(218,255,cs)
);
},
{
closed = 1;
nodes = (
(403,169.663,o),
(373,120,o),
(322,120,cs),
(277,120,o),
(250,170.637,o),
(250,255.356,cs),
(250,333.258,o),
(278,380,o),
(326,380,cs),
(374,380,o),
(403,332.285,o),
(403,254.382,cs)
);
}
);
width = 635;
}
);
leftKerningGroup = b;
rightKerningGroup = b1;
unicode = 98;
},
{
glyphname = c;
layers = (
{
anchors = (
{
name = top;
position = "{303, 520}";
},
{
name = bottom;
position = "{303, -20}";
}
);
hints = (
{
place = (29,190);
type = Stem;
},
{
horizontal = 1;
place = (-20,130);
type = Stem;
},
{
horizontal = 1;
place = (390,130);
type = Stem;
}
);
layerId = "7E68ED66-4A14-482F-A6AB-3A68329E00A9";
shapes = (
{
closed = 1;
nodes = (
(246,120,o),
(219,163.643,o),
(219,250.929,cs),
(219,337.286,o),
(242,380,o),
(317,380,cs),
(361,380,o),
(388.883,365.179,o),
(423,332,c),
(521,430,l),
(465,486,o),
(395,520,o),
(292,520,cs),
(129,520,o),
(29,421,o),
(29,255,cs),
(29,79,o),
(130,-20,o),
(292,-20,cs),
(397,-20,o),
(468,14,o),
(524,70,c),
(426.235,167.765,l),
(396,137.124,o),
(355,120,o),
(312,120,cs)
);
}
);
width = 563;
}
);
leftKerningGroup = a;
rightKerningGroup = b1;
unicode = 99;
},
{
glyphname = e;
layers = (
{
anchors = (
{
name = top;
position = "{299, 520}";
},
{
name = bottom;
position = "{299, -20}";
},
{
name = ogonek;
position = "{429, -3}";
}
);
hints = (
{
place = (29,187);
type = Stem;
},
{
horizontal = 1;
place = (-20,131);
type = Stem;
},
{
horizontal = 1;
place = (212,111);
type = Stem;
},
{
horizontal = 1;
place = (390,130);
type = Stem;
}
);
layerId = "7E68ED66-4A14-482F-A6AB-3A68329E00A9";
shapes = (
{
closed = 1;
nodes = (
(215,329,l),
(219,367,o),
(253,390,o),
(303,390,cs),
(353,390,o),
(381,367,o),
(385,329,c)
);
},
{
closed = 1;
nodes = (
(256,120,o),
(215,149.667,o),
(215,209,c),
(572,209,l),
(593.474,390.707,o),
(488.467,520,o),
(301,520,cs),
(142,520,o),
(28,419,o),
(28,251,cs),
(28,81,o),
(145,-20,o),
(317,-20,cs),
(417,-20,o),
(486,14,o),
(542,70,c),
(454,158,l),
(428,135.042,o),
(381,120,o),
(327,120,cs)
);
}
);
width = 598;
}
);
leftKerningGroup = a;
rightKerningGroup = b1;
unicode = 101;
},
{
glyphname = f;
layers = (
{
anchors = (
{
name = top;
position = "{230, 750}";
},
{
name = bottom;
position = "{183, -20}";
}
);
hints = (
{
place = (89,190);
type = Stem;
},
{
horizontal = 1;
place = (369,131);
type = Stem;
},
{
horizontal = 1;
place = (612,139);
type = Stem;
},
{
horizontal = 1;
place = (0,21);
target = up;
type = BottomGhost;
}
);
layerId = "7E68ED66-4A14-482F-A6AB-3A68329E00A9";
shapes = (
{
closed = 1;
nodes = (
(89,370,l),
(89,0,l),
(279,0,l),
(279,370,l),
(405,370,l),
(405,500,l),
(279,500,l),
(279,541,ls),
(279,578,o),
(295,612,o),
(338,612,cs),
(349,612,o),
(366,610,o),
(383,604,c),
(421,728,l),
(364,745.739,o),
(326,752,o),
(287,752,cs),
(158,752,o),
(89,684.733,o),
(89,568.271,cs),
(89,500,l),
(12,500,l),
(12,370,l)
);
}
);
width = 423;
}
);
leftKerningGroup = f;
rightKerningGroup = f1;
unicode = 102;
},
{
glyphname = r;
layers = (
{
anchors = (
{
name = top;
position = "{235, 520}";
},
{
name = bottom;
position = "{142, -20}";
}
);
hints = (
{
place = (54,190);
type = Stem;
},
{
horizontal = 1;
place = (390,130);
type = Stem;
},
{
horizontal = 1;
place = (0,21);
target = up;
type = BottomGhost;
},
{
horizontal = 1;
place = (500,-20);
target = down;
type = TopGhost;
}
);
layerId = "7E68ED66-4A14-482F-A6AB-3A68329E00A9";
shapes = (
{
closed = 1;
nodes = (
(54,500,l),
(54,0,l),
(244,0,l),
(244,190,ls),
(244,316.667,o),
(303,380,o),
(419,380,c),
(419,520,l),
(325,519,o),
(283,476,o),
(244,404,c),
(244,500,l)
);
}
);
width = 422;
}
);
leftKerningGroup = i;
rightKerningGroup = r;
unicode = 114;
},
{
glyphname = t;
layers = (
{
anchors = (
{
name = top;
position = "{175, 630}";
},
{
name = bottom;
position = "{220, -20}";
},
{
name = topright;
position = "{302, 700}";
}
);
hints = (
{
place = (88,190);
type = Stem;
},
{
horizontal = 1;
place = (-21,131);
type = Stem;
},
{
horizontal = 1;
place = (370,130);
type = Stem;
},
{
horizontal = 1;
place = (630,-20);
target = down;
type = TopGhost;
}
);
layerId = "7E68ED66-4A14-482F-A6AB-3A68329E00A9";
shapes = (
{
closed = 1;
nodes = (
(80,621,l),
(80,132,ls),
(80,29,o),
(134,-21,o),
(256,-21,cs),
(294,-21,o),
(316,-16,o),
(374,6,c),
(337,136,l),
(317,124.312,o),
(303,119,o),
(294,119,cs),
(275,119,o),
(270,138.037,o),
(270,206.171,cs),
(270,621,l)
);
},
{
closed = 1;
nodes = (
(11,500,l),
(11,365,l),
(355,365,l),
(355,500,l)
);
}
);
width = 365;
}
);
leftKerningGroup = f;
rightKerningGroup = l;
unicode = 116;
},
{
glyphname = k;
layers = (
{
anchors = (
{
name = bottom;
position = "{297, -20}";
},
{
name = top;
position = "{150, 750}";
}
);
hints = (
{
place = (54,190);
type = Stem;
},
{
horizontal = 1;
place = (500,-20);
target = down;
type = TopGhost;
},
{
horizontal = 1;
place = (0,21);
target = up;
type = BottomGhost;
},
{
horizontal = 1;
place = (750,-20);
target = down;
type = TopGhost;
}
);
layerId = "7E68ED66-4A14-482F-A6AB-3A68329E00A9";
shapes = (
{
closed = 1;
nodes = (
(244,0,l),
(244,750,l),
(54,750,l),
(54,0,l)
);
},
{
closed = 1;
nodes = (
(305,323,l,{name = iv02;}),
(122,323,l),
(124,189,l),
(288,189,l,{name = iv01;}),
(380,0,l,{name = ab02;}),
(592,0,l),
(458,263,l),
(579,500,l,{name = av02;}),
(380,500,l)
);
}
);
width = 594;
}
);
leftKerningGroup = b;
rightKerningGroup = k;
unicode = 107;
},
{
glyphname = a;
layers = (
{
anchors = (
{
name = top;
position = "{330, 520}";
},
{
name = bottom;
position = "{322, -20}";
},
{
name = ogonek;
position = "{584, -3}";
}
);
hints = (
{
place = (39,190);
type = Stem;
},
{
place = (402,190);
type = Stem;
},
{
horizontal = 1;
place = (-20,126);
type = Stem;
},
{
horizontal = 1;
place = (393,127);
type = Stem;
},
{
horizontal = 1;
place = (0,21);
target = up;
type = BottomGhost;
},
{
horizontal = 1;
place = (500,-20);
target = down;
type = TopGhost;
}
);
layerId = "7E68ED66-4A14-482F-A6AB-3A68329E00A9";
shapes = (
{
closed = 1;
nodes = (
(402,0,l),
(592,0,l),
(592,500,l),
(402,500,l)
);
},
{
closed = 1;
nodes = (
(434,432,o),
(376,520,o),
(255,520,cs),
(120,520,o),
(49,411,o),
(49,262,cs),
(49,99,o),
(134,-20,o),
(259,-20,cs),
(375,-20,o),
(434,82,o),
(434,258,cs)
);
},
{
closed = 1;
nodes = (
(239,334,o),
(270,383,o),
(321,383,cs),
(372,383,o),
(402,335,o),
(402,251,cs),
(402,168,o),
(373,116,o),
(322,116,cs),
(271,116,o),
(239,167,o),
(239,251,cs)
);
}
);
width = 645;
}
);
leftKerningGroup = a;
rightKerningGroup = a1;
unicode = 97;
},
{
glyphname = v;
layers = (
{
anchors = (
{
name = top;
position = "{275, 520}";
},
{
name = bottom;
position = "{275, -20}";
}
);
hints = (
{
horizontal = 1;
place = (500,-20);
target = down;
type = TopGhost;
},
{
horizontal = 1;
place = (0,21);
target = up;
type = BottomGhost;
}
);
layerId = "7E68ED66-4A14-482F-A6AB-3A68329E00A9";
shapes = (
{
closed = 1;
nodes = (
(367,0,l),
(549,500,l),
(347,500,l),
(275,228,l),
(203,500,l),
(1,500,l),
(183,0,l)
);
}
);
width = 550;
}
);
leftKerningGroup = v;
rightKerningGroup = v1;
unicode = 118;
},
{
glyphname = w;
layers = (
{
anchors = (
{
name = top;
position = "{427, 520}";
},
{
name = bottom;
position = "{427, -20}";
}
);
hints = (
{
horizontal = 1;
place = (500,-20);
target = down;
type = TopGhost;
},
{
horizontal = 1;
place = (0,21);
target = up;
type = BottomGhost;
}
);
layerId = "7E68ED66-4A14-482F-A6AB-3A68329E00A9";
shapes = (
{
closed = 1;
nodes = (
(356,0,l),
(427,306,l),
(498,0,l),
(671,0,l),
(853,500,l),
(652,500,l),
(580,228,l),
(513,500,l),
(341,500,l),
(274,228,l),
(202,500,l),
(1,500,l),
(183,0,l)
);
}
);
width = 854;
}
);
leftKerningGroup = v;
rightKerningGroup = v1;
unicode = 119;
},
{
glyphname = x;
layers = (
{
anchors = (
{
name = top;
position = "{287, 520}";
},
{
name = bottom;
position = "{287, -20}";
}
);
hints = (
{
horizontal = 1;
place = (500,-20);
target = down;
type = TopGhost;
},
{
horizontal = 1;
place = (0,21);
target = up;
type = BottomGhost;
}
);
layerId = "7E68ED66-4A14-482F-A6AB-3A68329E00A9";
shapes = (
{
closed = 1;
nodes = (
(21,500,l,{name = av01;}),
(173.503,236.012,l),
(163.509,261.985,l),
(12,0,l,{name = ab01;}),
(226,0,l),
(288,154,l,{name = iv01;}),
(348,0,l,{name = ab02;}),
(564,0,l),
(412.491,261.985,l),
(404.497,236.012,l),
(557,500,l,{name = av02;}),
(351,500,l),
(273.652,324.41,l,{name = iv02;}),
(304.348,324.41,l),
(227,500,l)
);
}
);
width = 574;
}
);
leftKerningGroup = x;
rightKerningGroup = k;
unicode = 120;
},
{
glyphname = y;
layers = (
{
anchors = (
{
name = top;
position = "{313, 520}";
},
{
name = bottom;
position = "{554, -79}";
}
);
hints = (
{
place = (54,190);
type = Stem;
},
{
place = (393,190);
type = Stem;
},
{
horizontal = 1;
place = (-220,131);
type = Stem;
},
{
horizontal = 1;
place = (0,128);
type = Stem;
},
{
horizontal = 1;
place = (-220,187);
type = Stem;
},
{
horizontal = 1;
place = (500,-20);
target = down;
type = TopGhost;
}
);
layerId = "7E68ED66-4A14-482F-A6AB-3A68329E00A9";
shapes = (
{
closed = 1;
nodes = (
(383,279,l),
(383,169,o),
(338,135,o),
(303,135,cs),
(263,135,o),
(244,180,o),
(244,283,cs),
(244,500,l),
(54,500,l),
(54,216,ls),
(54,76,o),
(139,0,o),
(249,0,cs),
(356,0,o),
(409,72,o),
(419,148,c)
);
},
{
closed = 1;
nodes = (
(212,-90,o),
(162,-71,o),
(136,-42,c),
(48,-130,l),
(104,-186,o),
(175,-220,o),
(280,-220,cs),
(460,-220,o),
(573,-120,o),
(573,52,cs),
(573,500,l),
(383,500,l),
(383,70,ls),
(383,-47,o),
(332,-90,o),
(260,-90,cs)
);
}
);
width = 626;
}
);
leftKerningGroup = u;
rightKerningGroup = y;
unicode = 121;
},
{
glyphname = z;
layers = (
{
anchors = (
{
name = top;
position = "{241, 520}";
},
{
name = bottom;
position = "{241, -20}";
}
);
hints = (
{
horizontal = 1;
place = (0,130);
type = Stem;
},
{
horizontal = 1;
place = (370,130);
type = Stem;
}
);
layerId = "7E68ED66-4A14-482F-A6AB-3A68329E00A9";
shapes = (
{
closed = 1;
nodes = (
(26,0,l),
(457,0,l),
(457,130,l),
(255,130,l),
(457,380,l),
(457,500,l),
(46,500,l),
(46,370,l),
(228,370,l),
(26,120,l)
);
}
);
width = 483;
}
);
leftKerningGroup = z1;
rightKerningGroup = z;
unicode = 122;
},
{
glyphname = E;
layers = (
{
anchors = (
{
name = top;
position = "{275, 719}";
},
{
name = bottom;
position = "{286, -20}";
},
{
name = ogonek;
position = "{498, -2}";
},
{
name = topgr;
position = "{-50, 500}";
}
);
hints = (
{
place = (68,190);
type = Stem;
},
{
horizontal = 1;
place = (0,140);
type = Stem;
},
{
horizontal = 1;
place = (297,140);
type = Stem;
},
{
horizontal = 1;
place = (560,140);
type = Stem;
}
);
layerId = "7E68ED66-4A14-482F-A6AB-3A68329E00A9";
shapes = (
{
closed = 1;
nodes = (
(505,0,l),
(505,140,l),
(258,140,l),
(258,297,l),
(465,297,l),
(465,437,l),
(258,437,l),
(258,560,l),
(490,560,l),
(490,700,l),
(68,700,l),
(68,0,l)
);
}
);
width = 550;
}
);
leftKerningGroup = B;
rightKerningGroup = E;
unicode = 69;
},
{
glyphname = g;
layers = (
{
anchors = (
{
name = top;
position = "{317, 520}";
},
{
name = bottom;
position = "{312, -220}";
}
);
hints = (
{
place = (39,190);
type = Stem;
},
{
place = (401,190);
type = Stem;
},
{
horizontal = 1;
place = (-220,131);
type = Stem;
},
{
horizontal = 1;
place = (-20,126);
type = Stem;
},
{
horizontal = 1;
place = (393,127);
type = Stem;
},
{
horizontal = 1;
place = (-220,187);
type = Stem;
},
{
horizontal = 1;
place = (500,-20);
target = down;
type = TopGhost;
}
);
layerId = "7E68ED66-4A14-482F-A6AB-3A68329E00A9";
shapes = (
{
closed = 1;
nodes = (
(424,417,o),
(368,520,o),
(245,520,cs),
(118,520,o),
(49,411,o),
(49,262,cs),
(49,99,o),
(132,-20,o),
(251,-20,cs),
(367,-20,o),
(424,92,o),
(424,255,cs)
);
},
{
closed = 1;
nodes = (
(239,334,o),
(268,383,o),
(316,383,cs),
(363,383,o),
(391,335,o),
(391,251,cs),
(391,168,o),
(364,116,o),
(316,116,cs),
(269,116,o),
(239,167,o),
(239,251,cs)
);
},
{
closed = 1;
nodes = (
(220,-85,o),
(170,-67.979,o),
(144,-42,c),
(56,-130,l),
(112,-186,o),
(183,-220,o),
(288,-220,cs),
(468,-220,o),
(581,-120,o),
(581,52,cs),
(581,500,l),
(391,500,l),
(391,73.644,ls),
(391,-42.364,o),
(340,-85,o),
(268,-85,cs)
);
}
);
width = 634;
}
);
leftKerningGroup = a;
unicode = 103;
},
{
glyphname = D;
layers = (
{
anchors = (
{
name = top;
position = "{328, 719}";
},
{
name = bottom;
position = "{328, -20}";
}
);
hints = (
{
place = (68,190);
type = Stem;
},
{
place = (518,191);
type = Stem;
},
{
horizontal = 1;
place = (0,140);
type = Stem;
},
{
horizontal = 1;
place = (560,140);
type = Stem;
}
);
layerId = "7E68ED66-4A14-482F-A6AB-3A68329E00A9";
shapes = (
{
closed = 1;
nodes = (
(258,140,l),
(258,560,l),
(331.431,560,ls),
(450.508,560,o),
(516,489,o),
(516,359,cs),
(516,224,o),
(445.546,140,o),
(331.431,140,cs)
);
},
{
closed = 1;
nodes = (
(68,0,l),
(352,0,ls),
(565,0,o),
(709,141,o),
(709,350,cs),
(709,558,o),
(564,700,o),
(352,700,cs),
(68,700,l)
);
}
);
width = 742;
}
);
leftKerningGroup = B;
rightKerningGroup = C;
unicode = 68;
},
{
glyphname = F;
layers = (
{
anchors = (
{
name = top;
position = "{270, 719}";
},
{
name = bottom;
position = "{281, -20}";
}
);
hints = (
{
place = (68,190);
type = Stem;
},
{
horizontal = 1;
place = (270,140);
type = Stem;
},
{
horizontal = 1;
place = (560,140);
type = Stem;
},
{
horizontal = 1;
place = (0,21);
target = up;
type = BottomGhost;
}
);
layerId = "7E68ED66-4A14-482F-A6AB-3A68329E00A9";
shapes = (
{
closed = 1;
nodes = (
(258,0,l),
(258,270,l),
(473,270,l),
(473,410,l),
(258,410,l),
(258,560,l),
(498,560,l),
(498,700,l),
(68,700,l),
(68,0,l)
);
}
);
width = 540;
}
);
leftKerningGroup = B;
rightKerningGroup = F;
unicode = 70;
},
{
glyphname = A;
layers = (
{
anchors = (
{
name = top;
position = "{328, 719}";
},
{
name = bottom;
position = "{328, -20}";
},
{
name = ogonek;
position = "{650, -2}";
},
{
name = topgr;
position = "{66, 500}";
}
);
hints = (
{
horizontal = 1;
place = (116,140);
type = Stem;
},
{
horizontal = 1;
place = (0,21);
target = up;
type = BottomGhost;
},
{
horizontal = 1;
place = (700,-20);
target = down;
type = TopGhost;
}
);
layerId = "7E68ED66-4A14-482F-A6AB-3A68329E00A9";
shapes = (
{
closed = 1;
nodes = (
(193,106,l),
(459,106,l),
(415,236,l),
(237,236,l)
);
},
{
closed = 1;
nodes = (
(224,700,l),
(-3,0,l),
(196,0,l),
(379,700,l)
);
},
{
closed = 1;
nodes = (
(276,700,l),
(459,0,l),
(658,0,l),
(431,700,l)
);
}
);
width = 655;
}
);
leftKerningGroup = A1;
rightKerningGroup = A;
unicode = 65;
},
{
glyphname = B;
layers = (
{
anchors = (
{
name = top;
position = "{308, 719}";
},
{
name = bottom;
position = "{328, -20}";
}
);
hints = (
{
place = (68,190);
type = Stem;
},
{
place = (369,189);
type = Stem;
},
{
place = (416,188);
type = Stem;
},
{
horizontal = 1;
place = (0,140);
type = Stem;
},
{
horizontal = 1;
place = (300,72);
type = Stem;
},
{
horizontal = 1;
place = (560,140);
type = Stem;
},
{
horizontal = 1;
place = (300,136);
type = Stem;
}
);
layerId = "7E68ED66-4A14-482F-A6AB-3A68329E00A9";
shapes = (
{
closed = 1;
nodes = (
(68,0,l),
(356,0,ls),
(518,0,o),
(604,97,o),
(604,205,cs),
(604,328,o),
(494,372,o),
(365,372,c),
(493,372,o),
(558,426,o),
(558,518,cs),
(558,614,o),
(487,700,o),
(316,700,cs),
(68,700,l)
);
},
{
closed = 1;
nodes = (
(286,300,ls),
(373,300,o),
(416,287,o),
(416,223,cs),
(416,163,o),
(377,140,o),
(301,140,cs),
(258,140,l),
(258,560,l),
(284,560,ls),
(343,560,o),
(369,538,o),
(369,501,cs),
(369,461,o),
(338,436,o),
(292,436,cs),
(100,436,l),
(100,300,l)
);
}
);
width = 634;
}
);
leftKerningGroup = B;
rightKerningGroup = B1;
unicode = 66;
},
{
glyphname = H;
layers = (
{
anchors = (
{
name = bottom;
position = "{368, -20}";
},
{
name = top;
position = "{368, 719}";
},
{
name = topgr;
position = "{-50, 500}";
}
);
hints = (
{
place = (68,190);
type = Stem;
},
{
place = (478,190);
type = Stem;
},
{
horizontal = 1;
place = (280,140);
type = Stem;
},
{
horizontal = 1;
place = (0,21);
target = up;
type = BottomGhost;
},
{
horizontal = 1;
place = (700,-20);
target = down;
type = TopGhost;
}
);
layerId = "7E68ED66-4A14-482F-A6AB-3A68329E00A9";
shapes = (
{
closed = 1;
nodes = (
(68,0,l),
(258,0,l),
(258,300,l),
(478,300,l),
(478,0,l),
(668,0,l),
(668,700,l),
(478,700,l),
(478,440,l),
(258,440,l),
(258,700,l),
(68,700,l)
);
}
);
width = 736;
}
);
leftKerningGroup = B;
rightKerningGroup = H;
unicode = 72;
},
{
glyphname = C;
layers = (
{
anchors = (
{
name = bottom;
position = "{416, -20}";
},
{
name = top;
position = "{386, 719}";
}
);
hints = (
{
place = (33,191);
type = Stem;
},
{
horizontal = 1;
place = (-20,140);
type = Stem;
},
{
horizontal = 1;
place = (579,141);
type = Stem;
}
);
layerId = "7E68ED66-4A14-482F-A6AB-3A68329E00A9";
shapes = (
{
closed = 1;
nodes = (
(514,-20,o),
(598,25,o),
(667,102,c),
(561,208,l),
(505.332,147.864,o),
(456.623,124,o),
(397.973,124,cs),
(289.62,124,o),
(226,206.719,o),
(226,357.386,cs),
(226,499.19,o),
(282.662,576,o),
(393.003,576,cs),
(456.623,576,o),
(507.32,550.907,o),
(561,493,c),
(667,599,l),
(613,665,o),
(517,720,o),
(386,720,cs),
(171,720,o),
(33,572,o),
(33,361,cs),
(33,140,o),
(183,-20,o),
(399,-20,cs)
);
}
);
width = 694;
}
);
leftKerningGroup = C1;
rightKerningGroup = C;
unicode = 67;
},
{
glyphname = G;
layers = (
{
anchors = (
{
name = top;
position = "{393, 719}";
},
{
name = bottom;
position = "{393, -20}";
}
);
hints = (
{
place = (23,191);
type = Stem;
},
{
place = (587,141);
type = Stem;
},
{
horizontal = 1;
place = (-20,141);
type = Stem;
},
{
horizontal = 1;
place = (251,141);
type = Stem;
},
{
horizontal = 1;
place = (579,141);
type = Stem;
},
{
horizontal = 1;
place = (0,21);
target = up;
type = BottomGhost;
}
);
layerId = "7E68ED66-4A14-482F-A6AB-3A68329E00A9";
shapes = (
{
closed = 1;
nodes = (
(587,0,l),
(729,0,l),
(729,391,l),
(341,391,l),
(341,251,l),
(587,251,l)
);
},
{
closed = 1;
nodes = (
(166,720,o),
(33,587,o),
(33,350,cs),
(33,133,o),
(153,-20,o),
(347,-20,cs),
(516,-20,o),
(624,96,o),
(624,219,c),
(576,307,l),
(576,193.855,o),
(491.483,124,o),
(390.062,124,cs),
(301.568,124,o),
(226,177.293,o),
(226,357.895,cs),
(226,504.943,o),
(276.706,576,o),
(394.026,576,cs),
(464.617,576,o),
(516.317,550.907,o),
(571,493,c),
(677,599,l),
(623,665,o),
(517,720,o),
(380,720,cs)
);
}
);
width = 786;
}
);
leftKerningGroup = C1;
rightKerningGroup = G;
unicode = 71;
},
{
glyphname = L;
layers = (
{
anchors = (
{
name = top;
position = "{162, 719}";
},
{
name = bottom;
position = "{277, -20}";
}
);
hints = (
{
place = (68,190);
type = Stem;
},
{
horizontal = 1;
place = (0,140);
type = Stem;
},
{
horizontal = 1;
place = (700,-20);
target = down;
type = TopGhost;
}
);
layerId = "7E68ED66-4A14-482F-A6AB-3A68329E00A9";
shapes = (
{
closed = 1;
nodes = (
(68,0,l),
(514,0,l),
(514,140,l),
(258,140,l),
(258,700,l),
(68,700,l)
);
}
);
width = 554;
}
);
leftKerningGroup = B;
rightKerningGroup = L;
unicode = 76;
},
{
glyphname = I;
layers = (
{
anchors = (
{
name = top;
position = "{163, 719}";
},
{
name = bottom;
position = "{163, -20}";
},
{
name = ogonek;
position = "{251, -3}";
},
{
name = topgr;
position = "{-50, 500}";
}
);
hints = (
{
place = (68,190);
type = Stem;
},
{
horizontal = 1;
place = (0,21);
target = up;
type = BottomGhost;
},
{
horizontal = 1;
place = (700,-20);
target = down;
type = TopGhost;
}
);
layerId = "7E68ED66-4A14-482F-A6AB-3A68329E00A9";
shapes = (
{
closed = 1;
nodes = (
(68,0,l),
(258,0,l),
(258,700,l),
(68,700,l)
);
}
);
width = 326;
}
);
leftKerningGroup = B;
rightKerningGroup = H;
unicode = 73;
},
{
glyphname = O;
layers = (
{
anchors = (
{
name = top;
position = "{398, 719}";
},
{
name = bottom;
position = "{398, -20}";
},
{
name = ogonek;
position = "{522, -2}";
},
{
name = topgr;
position = "{-14, 500}";
}
);
hints = (
{
place = (23,191);
type = Stem;
},
{
place = (581,191);
type = Stem;
},
{
horizontal = 1;
place = (-20,141);
type = Stem;
},
{
horizontal = 1;
place = (579,141);
type = Stem;
}
);
layerId = "7E68ED66-4A14-482F-A6AB-3A68329E00A9";
shapes = (
{
closed = 1;
nodes = (
(290.251,124,o),
(226,210.847,o),
(226,352.961,cs),
(226,496.061,o),
(286.297,576,o),
(395.029,576,cs),
(505.738,576,o),
(569,491.127,o),
(569,346.052,cs),
(569,202.952,o),
(508.703,124,o),
(398.983,124,cs)
);
},
{
closed = 1;
nodes = (
(33,127,o),
(181,-20,o),
(397,-20,cs),
(614,-20,o),
(762,125,o),
(762,350,cs),
(762,568,o),
(618,720,o),
(398,720,cs),
(178,720,o),
(33,569,o),
(33,350,cs)
);
}
);
width = 795;
}
);
leftKerningGroup = C1;
rightKerningGroup = C;
unicode = 79;
},
{
glyphname = N;
layers = (
{
anchors = (
{
name = top;
position = "{376, 719}";
},
{
name = bottom;
position = "{376, -20}";
}
);
hints = (
{
place = (68,190);
type = Stem;
},
{
place = (494,190);
type = Stem;
},
{
horizontal = 1;
place = (0,21);
target = up;
type = BottomGhost;
},
{
horizontal = 1;
place = (700,-20);
target = down;
type = TopGhost;
}
);
layerId = "7E68ED66-4A14-482F-A6AB-3A68329E00A9";
shapes = (
{
closed = 1;
nodes = (
(258,0,l),
(258,379,l),
(504,0,l),
(684,0,l),
(684,700,l),
(494,700,l),
(494,321,l),
(248,700,l),
(68,700,l),
(68,0,l)
);
}
);
width = 752;
}
);
leftKerningGroup = B;
rightKerningGroup = H;
unicode = 78;
},
{
glyphname = Q;
layers = (
{
anchors = (
{
name = top;
position = "{398, 719}";
},
{
name = bottom;
position = "{398, -20}";
},
{
name = ogonek;
position = "{522, -2}";
}
);
layerId = "7E68ED66-4A14-482F-A6AB-3A68329E00A9";
shapes = (
{
closed = 1;
nodes = (
(290.251,124,o),
(226,210.847,o),
(226,352.961,cs),
(226,496.061,o),
(286.297,576,o),
(395.029,576,cs),
(505.738,576,o),
(569,491.127,o),
(569,346.052,cs),
(569,202.952,o),
(508.703,124,o),
(398.983,124,cs)
);
},
{
closed = 1;
nodes = (
(33,127,o),
(181,-20,o),
(397,-20,cs),
(614,-20,o),
(762,125,o),
(762,350,cs),
(762,568,o),
(618,720,o),
(398,720,cs),
(178,720,o),
(33,569,o),
(33,350,cs)
);
},
{
closed = 1;
nodes = (
(333,-3,l),
(333,-194,o),
(396,-230,o),
(644,-230,c),
(644,-90,l),
(523,-90,o),
(493,-87,o),
(493,-3,c)
);
}
);
width = 795;
}
);
leftKerningGroup = C1;
rightKerningGroup = C;
unicode = 81;
},
{
glyphname = J;
layers = (
{
anchors = (
{
name = bottom;
position = "{278, -20}";
},
{
name = top;
position = "{429, 719}";
}
);
hints = (
{
place = (330,190);
type = Stem;
},
{
horizontal = 1;
place = (-20,140);
type = Stem;
},
{
horizontal = 1;
place = (700,-20);
target = down;
type = TopGhost;
}
);
layerId = "7E68ED66-4A14-482F-A6AB-3A68329E00A9";
shapes = (
{
closed = 1;
nodes = (
(30,122,l),
(95,24,o),
(169,-20,o),
(278,-20,cs),
(442,-20,o),
(520,80,o),
(520,242,cs),
(520,700,l),
(330,700,l),
(330,249,ls),
(330,164,o),
(313.534,120,o),
(263.967,120,cs),
(217.576,120,o),
(176.102,159.569,o),
(136,228,c)
);
}
);
width = 580;
}
);
leftKerningGroup = J;
rightKerningGroup = J1;
unicode = 74;
},
{
glyphname = T;
layers = (
{
anchors = (
{
name = top;
position = "{324, 719}";
},
{
name = bottom;
position = "{324, -20}";
}
);
hints = (
{
place = (229,190);
type = Stem;
},
{
horizontal = 1;
place = (560,140);
type = Stem;
},
{
horizontal = 1;
place = (0,21);
target = up;
type = BottomGhost;
}
);
layerId = "7E68ED66-4A14-482F-A6AB-3A68329E00A9";
shapes = (
{
closed = 1;
nodes = (
(21,700,l),
(21,560,l),
(229,560,l),
(229,0,l),
(419,0,l),
(419,560,l),
(627,560,l),
(627,700,l)
);
}
);
width = 648;
}
);
leftKerningGroup = T;
rightKerningGroup = T1;
unicode = 84;
},
{
glyphname = U;
layers = (
{
anchors = (
{
name = top;
position = "{338, 719}";
},
{
name = bottom;
position = "{338, -20}";
},
{
name = ogonek;
position = "{450, -1}";
}
);
hints = (
{
place = (60,190);
type = Stem;
},
{
place = (425,190);
type = Stem;
},
{
horizontal = 1;
place = (-20,140);
type = Stem;
},
{
horizontal = 1;
place = (700,-20);
target = down;
type = TopGhost;
}
);
layerId = "7E68ED66-4A14-482F-A6AB-3A68329E00A9";
shapes = (
{
closed = 1;
nodes = (
(60,700,l),
(60,262,ls),
(60,88,o),
(165,-20,o),
(336,-20,cs),
(507,-20,o),
(615,89,o),
(615,262,cs),
(615,700,l),
(425,700,l),
(425,278,ls),
(425,170,o),
(397,120,o),
(337,120,cs),
(277,120,o),
(250,169,o),
(250,278,cs),
(250,700,l)
);
}
);
width = 675;
}
);
leftKerningGroup = U;
rightKerningGroup = J1;
unicode = 85;
},
{
glyphname = P;
layers = (
{
anchors = (
{
name = top;
position = "{322, 719}";
},
{
name = bottom;
position = "{322, -20}";
}
);
hints = (
{
place = (68,190);
type = Stem;
},
{
place = (414,191);
type = Stem;
},
{
horizontal = 1;
place = (216,141);
type = Stem;
},
{
horizontal = 1;
place = (559,141);
type = Stem;
},
{
horizontal = 1;
place = (0,21);
target = up;
type = BottomGhost;
}
);
layerId = "7E68ED66-4A14-482F-A6AB-3A68329E00A9";
shapes = (
{
closed = 1;
nodes = (
(258,0,l),
(258,216,l),
(334,216,ls),
(524,216,o),
(605,334,o),
(605,460,cs),
(605,585,o),
(524,700,o),
(334,700,cs),
(68,700,l),
(68,0,l)
);
},
{
closed = 1;
nodes = (
(258,356,l),
(258,560,l),
(299,560,ls),
(357,560,o),
(414,543.842,o),
(414,458,cs),
(414,372.158,o),
(358,356,o),
(299,356,cs)
);
}
);
width = 644;
}
);
leftKerningGroup = B;
rightKerningGroup = P;
unicode = 80;
},
{
glyphname = R;
layers = (
{
anchors = (
{
name = top;
position = "{324, 719}";
},
{
name = bottom;
position = "{324, -20}";
}
);
hints = (
{
place = (68,190);
type = Stem;
},
{
place = (418,191);
type = Stem;
},
{
horizontal = 1;
place = (560,140);
type = Stem;
},
{
horizontal = 1;
place = (0,21);
target = up;
type = BottomGhost;
}
);
layerId = "7E68ED66-4A14-482F-A6AB-3A68329E00A9";
shapes = (
{
closed = 1;
nodes = (
(258,0,l),
(258,560,l),
(309,560,ls),
(393,560,o),
(418,534,o),
(418,472,cs),
(418,410,o),
(393,384,o),
(309,384,cs),
(100,384,l),
(100,244,l),
(348,244,ls),
(507,244,o),
(609,334,o),
(609,476,cs),
(609,615,o),
(511,700,o),
(348,700,cs),
(68,700,l),
(68,0,l)
);
},
{
closed = 1;
nodes = (
(280,281,l),
(423,0,l),
(627,0,l),
(457,333,l)
);
}
);
width = 648;
}
);
leftKerningGroup = B;
rightKerningGroup = R;
unicode = 82;
},
{
glyphname = K;
layers = (
{
anchors = (
{
name = bottom;
position = "{335, -20}";
},
{
name = top;
position = "{335, 719}";
}
);
hints = (
{
place = (48,190);
type = Stem;
},
{
horizontal = 1;
place = (0,21);
target = up;
type = BottomGhost;
},
{
horizontal = 1;
place = (700,-20);
target = down;
type = TopGhost;
},
{
horizontal = 1;
place = (280,140);
type = Stem;
}
);
layerId = "7E68ED66-4A14-482F-A6AB-3A68329E00A9";
shapes = (
{
closed = 1;
nodes = (
(48,700,l),
(238,700,l),
(238,0,l),
(48,0,l)
);
},
{
closed = 1;
nodes = (
(306,426,l),
(464,700,l),
(665,700,l),
(457,367,l),
(669,0,l),
(450,0,l),
(294,282,l),
(119,282,l),
(130,426,l)
);
}
);
width = 670;
}
);
leftKerningGroup = B;
rightKerningGroup = K;
unicode = 75;
},
{
glyphname = V;
layers = (
{
anchors = (
{
name = top;
position = "{328, 719}";
},
{
name = bottom;
position = "{328, -20}";
}
);
layerId = "7E68ED66-4A14-482F-A6AB-3A68329E00A9";
shapes = (
{
closed = 1;
nodes = (
(431,0,l),
(658,700,l),
(459,700,l),
(276,0,l)
);
},
{
closed = 1;
nodes = (
(379,0,l),
(196,700,l),
(-3,700,l),
(224,0,l)
);
}
);
width = 655;
}
);
leftKerningGroup = V1;
rightKerningGroup = V;
unicode = 86;
},
{
glyphname = W;
layers = (
{
anchors = (
{
name = top;
position = "{480, 719}";
},
{
name = bottom;
position = "{480, -20}";
}
);
hints = (
{
horizontal = 1;
place = (700,-20);
target = down;
type = TopGhost;
},
{
horizontal = 1;
place = (0,21);
target = up;
type = BottomGhost;
}
);
layerId = "7E68ED66-4A14-482F-A6AB-3A68329E00A9";
shapes = (
{
closed = 1;
nodes = (
(189,0,l),
(346,0,l),
(186,700,l),
(-12,700,l)
);
},
{
closed = 1;
nodes = (
(232,0,l),
(381,0,l),
(546,700,l),
(392,700,l)
);
},
{
closed = 1;
nodes = (
(580,0,l),
(729,0,l),
(569,700,l),
(415,700,l)
);
},
{
closed = 1;
nodes = (
(615,0,l),
(772,0,l),
(973,700,l),
(775,700,l)
);
}
);
width = 960;
}
);
leftKerningGroup = V1;
rightKerningGroup = V;
unicode = 87;
},
{
glyphname = Y;
layers = (
{
anchors = (
{
name = top;
position = "{331, 719}";
},
{
name = bottom;
position = "{331, -20}";
},
{
name = topgr;
position = "{-115, 500}";
}
);
hints = (
{
place = (238,190);
type = Stem;
},
{
horizontal = 1;
place = (700,-20);
target = down;
type = TopGhost;
},
{
horizontal = 1;
place = (0,21);
target = up;
type = BottomGhost;
}
);
layerId = "7E68ED66-4A14-482F-A6AB-3A68329E00A9";
shapes = (
{
closed = 1;
nodes = (
(235,0,l),
(425,0,l),
(425,279,l),
(658,700,l),
(441,700,l),
(330,482,l),
(219,700,l),
(2,700,l),
(235,279,l)
);
}
);
width = 662;
}
);
leftKerningGroup = Y1;
rightKerningGroup = Y;
unicode = 89;
},
{
glyphname = Z;
layers = (
{
anchors = (
{
name = top;
position = "{307, 719}";
},
{
name = bottom;
position = "{297, -20}";
}
);
hints = (
{
horizontal = 1;
place = (0,140);
type = Stem;
},
{
horizontal = 1;
place = (560,140);
type = Stem;
}
);
layerId = "7E68ED66-4A14-482F-A6AB-3A68329E00A9";
shapes = (
{
closed = 1;
nodes = (
(27,130,l),
(27,0,l),
(567,0,l),
(567,140,l),
(264,140,l),
(565,570,l),
(565,700,l),
(55,700,l),
(55,560,l),
(328,560,l)
);
}
);
width = 594;
}
);
leftKerningGroup = Z1;
rightKerningGroup = Z;
unicode = 90;
},
{
glyphname = M;
layers = (
{
anchors = (
{
name = top;
position = "{454, 719}";
},
{
name = bottom;
position = "{454, -20}";
}
);
hints = (
{
place = (68,190);
type = Stem;
},
{
place = (650,190);
type = Stem;
},
{
horizontal = 1;
place = (700,-20);
target = down;
type = TopGhost;
},
{
horizontal = 1;
place = (0,21);
target = up;
type = BottomGhost;
}
);
layerId = "7E68ED66-4A14-482F-A6AB-3A68329E00A9";
shapes = (
{
closed = 1;
nodes = (
(248,321,l),
(394,0,l),
(514,0,l),
(660,321,l),
(660,0,l),
(840,0,l),
(840,700,l),
(660,700,l),
(454,249,l),
(248,700,l),
(68,700,l),
(68,0,l),
(248,0,l)
);
}
);
width = 908;
}
);
leftKerningGroup = B;
rightKerningGroup = H;
unicode = 77;
},
{
glyphname = X;
layers = (
{
anchors = (
{
name = top;
position = "{324, 719}";
},
{
name = bottom;
position = "{324, -20}";
}
);
hints = (
{
horizontal = 1;
place = (0,21);
target = up;
type = BottomGhost;
},
{
horizontal = 1;
place = (700,-20);
target = down;
type = TopGhost;
}
);
layerId = "7E68ED66-4A14-482F-A6AB-3A68329E00A9";
shapes = (
{
closed = 1;
nodes = (
(-2,0,l),
(221,0,l),
(325,188,l),
(429,0,l),
(649,0,l),
(436,354,l),
(644,700,l),
(425,700,l),
(324,518,l),
(223,700,l),
(3,700,l),
(211,354,l)
);
}
);
width = 648;
}
);
leftKerningGroup = X;
rightKerningGroup = K;
unicode = 88;
},
{
glyphname = s;
layers = (
{
anchors = (
{
name = top;
position = "{253, 520}";
},
{
name = bottom;
position = "{253, -20}";
}
);
hints = (
{
place = (38,190);
type = Stem;
},
{
place = (281,190);
type = Stem;
},
{
horizontal = 1;
place = (-20,129);
type = Stem;
},
{
horizontal = 1;
place = (390,130);
type = Stem;
}
);
layerId = "7E68ED66-4A14-482F-A6AB-3A68329E00A9";
shapes = (
{
closed = 1;
nodes = (
(184,110,o),
(142,131,o),
(118,158,c),
(30,70,l),
(84,16,o),
(161,-20,o),
(256,-20,cs),
(383,-20,o),
(471,45,o),
(471,148,cs),
(471,231,o),
(414,285,o),
(295,314,cs),
(250,325,o),
(228,336,o),
(228,357,cs),
(228,374,o),
(244,390,o),
(275,390,cs),
(310,390,o),
(352,369,o),
(376,342,c),
(464,430,l),
(410,484,o),
(343,520,o),
(250,520,cs),
(118,520,o),
(38,448,o),
(38,352,cs),
(38,268,o),
(99,212,o),
(206,191,cs),
(254,182,o),
(281,168,o),
(281,143,cs),
(281,121,o),
(260,110,o),
(228,110,cs)
);
}
);
width = 507;
}
);
leftKerningGroup = s1;
rightKerningGroup = s;
unicode = 115;
},
{
glyphname = S;
layers = (
{
anchors = (
{
name = bottom;
position = "{310, -20}";
},
{
name = top;
position = "{286, 719}";
}
);
hints = (
{
place = (36,190);
type = Stem;
},
{
place = (390,189);
type = Stem;
},
{
horizontal = 1;
place = (-20,140);
type = Stem;
},
{
horizontal = 1;
place = (580,140);
type = Stem;
}
);
layerId = "7E68ED66-4A14-482F-A6AB-3A68329E00A9";
shapes = (
{
closed = 1;
nodes = (
(169,-20,o),
(78,37,o),
(26,101,c),
(132,207,l),
(181.793,150.349,o),
(228.599,120,o),
(287.355,120,cs),
(343.124,120,o),
(373,147.045,o),
(373,193.122,cs),
(373,236.194,o),
(346.06,250.13,o),
(279.281,266.244,cs),
(117.746,305.222,o),
(40,379.432,o),
(40,492.621,cs),
(40,632.855,o),
(135,720,o),
(291,720,cs),
(417,720,o),
(509,663,o),
(561,599,c),
(455,493,l),
(405,549.651,o),
(358,580,o),
(309,580,cs),
(257,580,o),
(230,546.945,o),
(230,500.868,cs),
(230,453.79,o),
(258.006,433.78,o),
(356,407.713,cs),
(499.006,369.673,o),
(563,308.548,o),
(563,209.382,cs),
(563,61.135,o),
(466,-20,o),
(304,-20,cs)
);
}
);
width = 600;
}
);
leftKerningGroup = S1;
rightKerningGroup = S;
unicode = 83;
},
{
glyphname = period;
layers = (
{
hints = (
{
place = (29,204);
type = Stem;
},
{
horizontal = 1;
place = (-20,204);
type = Stem;
}
);
layerId = "7E68ED66-4A14-482F-A6AB-3A68329E00A9";
shapes = (
{
closed = 1;
nodes = (
(29,26,o),
(72,-20,o),
(131,-20,cs),
(189,-20,o),
(233,26,o),
(233,83,cs),
(233,140,o),
(189,184,o),
(131,184,cs),
(72,184,o),
(29,140,o),
(29,83,cs)
);
}
);
width = 262;
}
);
unicode = 46;
},
{
glyphname = comma;
layers = (
{
hints = (
{
place = (29,204);
type = Stem;
},
{
horizontal = 1;
place = (-20,204);
type = Stem;
}
);
layerId = "7E68ED66-4A14-482F-A6AB-3A68329E00A9";
shapes = (
{
closed = 1;
nodes = (
(29,25,o),
(73,-20,o),
(129,-20,c),
(114,-53,o),
(78,-92,o),
(33,-126,c),
(47,-191,l),
(159,-136,o),
(233,-34,o),
(233,64,cs),
(233,140,o),
(189,184,o),
(131,184,cs),
(72,184,o),
(29,140,o),
(29,83,cs)
);
}
);
width = 262;
}
);
unicode = 44;
},
{
glyphname = parenleft;
layers = (
{
hints = (
{
place = (50,184);
type = Stem;
}
);
layerId = "7E68ED66-4A14-482F-A6AB-3A68329E00A9";
shapes = (
{
closed = 1;
nodes = (
(365,-107,l),
(291,-72,o),
(234,100,o),
(234,290,cs),
(234,476,o),
(289,635,o),
(365,669,c),
(365,777,l),
(168,740,o),
(50,562,o),
(50,301,cs),
(50,25,o),
(182,-191,o),
(365,-215,c)
);
}
);
width = 391;
}
);
unicode = 40;
},
{
glyphname = parenright;
layers = (
{
hints = (
{
place = (156,185);
type = Stem;
}
);
layerId = "7E68ED66-4A14-482F-A6AB-3A68329E00A9";
shapes = (
{
closed = 1;
nodes = (
(25,669,l),
(101,635,o),
(156,476,o),
(156,289,cs),
(156,99,o),
(99,-73,o),
(25,-107,c),
(25,-215,l),
(220,-177,o),
(341,17,o),
(341,291,cs),
(341,560,o),
(224,740,o),
(25,777,c)
);
}
);
width = 384;
}
);
unicode = 41;
},
{
glyphname = exclam;
layers = (
{
hints = (
{
place = (25,204);
type = Stem;
},
{
place = (38,180);
type = Stem;
},
{
horizontal = 1;
place = (-20,204);
type = Stem;
},
{
horizontal = 1;
place = (750,-20);
target = down;
type = TopGhost;
},
{
place = (33,188);
type = Stem;
},
{
horizontal = 1;
place = (-20,188);
type = Stem;
}
);
layerId = "7E68ED66-4A14-482F-A6AB-3A68329E00A9";
shapes = (
{
closed = 1;
nodes = (
(48,249,l),
(207,249,l),
(227,750,l),
(27,750,l)
);
},
{
alignment = -1;
pos = (6.252,-1.565);
ref = period;
scale = (0.922,0.922);
}
);
width = 255;
}
);
unicode = 33;
},
{
glyphname = bar;
layers = (
{
hints = (
{
place = (40,38);
type = Stem;
},
{
horizontal = 1;
place = (-131,21);
target = up;
type = BottomGhost;
},
{
horizontal = 1;
place = (750,-20);
target = down;
type = TopGhost;
}
);
layerId = "7E68ED66-4A14-482F-A6AB-3A68329E00A9";
shapes = (
{
closed = 1;
nodes = (
(40,-131,l),
(78,-131,l),
(78,750,l),
(40,750,l)
);
}
);
width = 118;
}
);
unicode = 124;
},
{
glyphname = braceright;
layers = (
{
hints = (
{
place = (98,156);
type = Stem;
}
);
layerId = "7E68ED66-4A14-482F-A6AB-3A68329E00A9";
shapes = (
{
closed = 1;
nodes = (
(344,299,l),
(292,310,o),
(254,372,o),
(254,422,cs),
(254,604.027,ls),
(254,700.154,o),
(188,803.439,o),
(52,874,c),
(28,811,l),
(70,779.167,o),
(98,732.957,o),
(98,609.731,cs),
(98,429,ls),
(98,365,o),
(120,315,o),
(224,289,c),
(117,261,o),
(98,203,o),
(98,139,cs),
(98,-82.621,ls),
(98,-201.73,o),
(70,-242.735,o),
(28,-273,c),
(52,-336,l),
(188,-268.35,o),
(254,-174.229,o),
(254,-75.205,cs),
(254,165,ls),
(254,236,o),
(312,272,o),
(344,282,c)
);
}
);
width = 366;
}
);
unicode = 125;
},
{
glyphname = hyphen;
layers = (
{
hints = (
{
horizontal = 1;
place = (256,46);
type = Stem;
}
);
layerId = "7E68ED66-4A14-482F-A6AB-3A68329E00A9";
shapes = (
{
closed = 1;
nodes = (
(50,246,l),
(339.575,246,l),
(339.575,312,l),
(50,312,l)
);
}
);
width = 390;
}
);
unicode = 45;
},
{
glyphname = endash;
layers = (
{
hints = (
{
horizontal = 1;
place = (262,34);
type = Stem;
}
);
layerId = "7E68ED66-4A14-482F-A6AB-3A68329E00A9";
shapes = (
{
closed = 1;
nodes = (
(50,262,l),
(505,262,l),
(505,296,l),
(50,296,l)
);
}
);
width = 555;
}
);
unicode = 8211;
},
{
glyphname = emdash;
layers = (
{
hints = (
{
horizontal = 1;
place = (262,34);
type = Stem;
}
);
layerId = "7E68ED66-4A14-482F-A6AB-3A68329E00A9";
shapes = (
{
closed = 1;
nodes = (
(50,262,l),
(864,262,l),
(864,296,l),
(50,296,l)
);
}
);
width = 914;
}
);
unicode = 8212;
},
{
glyphname = slash;
layers = (
{
hints = (
{
horizontal = 1;
place = (0,21);
target = up;
type = BottomGhost;
},
{
horizontal = 1;
place = (700,-20);
target = down;
type = TopGhost;
}
);
layerId = "7E68ED66-4A14-482F-A6AB-3A68329E00A9";
shapes = (
{
closed = 1;
nodes = (
(-44,0,l),
(-6,0,l),
(366,700,l),
(328,700,l)
);
}
);
width = 315;
}
);
unicode = 47;
},
{
glyphname = greater;
layers = (
{
layerId = "7E68ED66-4A14-482F-A6AB-3A68329E00A9";
shapes = (
{
closed = 1;
nodes = (
(50,6,l),
(509,239,l),
(509,287,l),
(50,510,l),
(50,490,l),
(461,263,l),
(50,26,l)
);
}
);
width = 573;
}
);
unicode = 62;
},
{
glyphname = less;
layers = (
{
layerId = "7E68ED66-4A14-482F-A6AB-3A68329E00A9";
shapes = (
{
closed = 1;
nodes = (
(509,6,l),
(509,26,l),
(98,263,l),
(509,490,l),
(509,510,l),
(50,287,l),
(50,239,l)
);
}
);
width = 544;
}
);
unicode = 60;
},
{
glyphname = cent;
layers = (
{
hints = (
{
place = (29,190);
type = Stem;
},
{
horizontal = 1;
place = (80,130);
type = Stem;
},
{
horizontal = 1;
place = (490,130);
type = Stem;
}
);
layerId = "7E68ED66-4A14-482F-A6AB-3A68329E00A9";
shapes = (
{
closed = 1;
nodes = (
(339,610,l),
(339,730,l),
(289,730,l),
(289,610,l)
);
},
{
closed = 1;
nodes = (
(290,89,l),
(290,-31,l),
(338,-31,l),
(338,90,l)
);
},
{
alignment = -1;
pos = (0,100);
ref = c;
}
);
width = 563;
}
);
unicode = 162;
},
{
glyphname = Euro;
layers = (
{
hints = (
{
horizontal = 1;
place = (-20,140);
type = Stem;
},
{
horizontal = 1;
place = (260,80);
type = Stem;
},
{
horizontal = 1;
place = (364,80);
type = Stem;
},
{
horizontal = 1;
place = (579,141);
type = Stem;
}
);
layerId = "7E68ED66-4A14-482F-A6AB-3A68329E00A9";
shapes = (
{
closed = 1;
nodes = (
(497,579,o),
(542,551,o),
(591,493,c),
(697,599,l),
(620,693,o),
(529,720,o),
(428,720,cs),
(232,720,o),
(118,588,o),
(92,444,c),
(30,444,l),
(15,364,l),
(512,364,l),
(527,444,l),
(281,444,l),
(296,528,o),
(351,579,o),
(424,579,cs)
);
},
{
closed = 1;
nodes = (
(493,260,l),
(508,340,l),
(25,340,l),
(10,260,l),
(90,260,l),
(115,114,o),
(227,-20,o),
(425,-20,cs),
(562,-20,o),
(639,23,o),
(710,102,c),
(604,208,l),
(551,150,o),
(502,120,o),
(433,120,cs),
(338,120,o),
(293,177,o),
(281,260,c)
);
}
);
width = 730;
}
);
unicode = 8364;
},
{
glyphname = infinity;
layers = (
{
hints = (
{
place = (27,20);
type = Stem;
},
{
place = (674,20);
type = Stem;
},
{
horizontal = 1;
place = (214,20);
type = Stem;
},
{
horizontal = 1;
place = (425,48);
type = Stem;
},
{
horizontal = 1;
place = (453,20);
type = Stem;
},
{
horizontal = 1;
place = (214,47);
type = Stem;
}
);
layerId = "7E68ED66-4A14-482F-A6AB-3A68329E00A9";
shapes = (
{
closed = 1;
nodes = (
(78,473,o),
(27,402,o),
(27,330,cs),
(27,241,o),
(92,214,o),
(153,214,cs),
(238,214,o),
(301,266,o),
(328,297,c),
(264,259,o),
(213,234,o),
(153,234,cs),
(96,234,o),
(47,266,o),
(47,326,cs),
(47,389,o),
(86,425,o),
(157,425,cs),
(197,425,o),
(256,384,o),
(316,339,cs),
(443,245,o),
(501,213,o),
(559,213,cs),
(643,213,o),
(694,284,o),
(694,356,cs),
(694,446,o),
(629,473,o),
(568,473,cs),
(483,473,o),
(420,421,o),
(393,390,c),
(457,428,o),
(508,453,o),
(568,453,cs),
(625,453,o),
(674,421,o),
(674,360,cs),
(674,297,o),
(635,261,o),
(564,261,cs),
(503,261,o),
(431,311,o),
(361,365,cs),
(290,420,o),
(220,473,o),
(154,473,cs)
);
}
);
width = 719;
}
);
unicode = 8734;
},
{
glyphname = Delta;
layers = (
{
layerId = "7E68ED66-4A14-482F-A6AB-3A68329E00A9";
shapes = (
{
closed = 1;
nodes = (
(183,0,l),
(469,0,l),
(425,140,l),
(227,140,l)
);
},
{
closed = 1;
nodes = (
(224,700,l),
(-3,0,l),
(196,0,l),
(397,700,l)
);
},
{
closed = 1;
nodes = (
(258,700,l),
(459,0,l),
(658,0,l),
(431,700,l)
);
}
);
width = 655;
}
);
leftKerningGroup = A1;
rightKerningGroup = A;
unicode = 916;
},
{
glyphname = Ohm;
layers = (
{
anchors = (
{
name = topgr;
position = "{-20, 500}";
}
);
hints = (
{
place = (33,190);
type = Stem;
},
{
place = (577,190);
type = Stem;
},
{
horizontal = 1;
place = (0,141);
type = Stem;
},
{
horizontal = 1;
place = (579,141);
type = Stem;
}
);
layerId = "7E68ED66-4A14-482F-A6AB-3A68329E00A9";
shapes = (
{
closed = 1;
nodes = (
(51,0,l),
(374,0,l),
(374,140,l),
(282,188.474,o),
(223,276.571,o),
(223,389.117,cs),
(223,488.749,o),
(276,576,o),
(399,576,cs),
(523,576,o),
(577,487.826,o),
(577,390.962,cs),
(577,275.648,o),
(514,188.487,o),
(424,140,c),
(424,0,l),
(748,0,l),
(748,140,l),
(600,140,l),
(699,182.073,o),
(767,259.206,o),
(767,400.449,cs),
(767,575.751,o),
(618,720,o),
(400,720,cs),
(177,720,o),
(33,569.741,o),
(33,395.44,cs),
(33,253.195,o),
(100,181.071,o),
(199,140,c),
(51,140,l)
);
}
);
width = 800;
}
);
leftKerningGroup = C1;
rightKerningGroup = C;
unicode = 8486;
},
{
glyphname = product;
layers = (
{
hints = (
{
place = (68,190);
type = Stem;
},
{
place = (508,190);
type = Stem;
},
{
horizontal = 1;
place = (560,140);
type = Stem;
},
{
horizontal = 1;
place = (-146,21);
target = up;
type = BottomGhost;
}
);
layerId = "7E68ED66-4A14-482F-A6AB-3A68329E00A9";
shapes = (
{
closed = 1;
nodes = (
(258,-125.365,l),
(258,560,l),
(508,560,l),
(508,-125.365,l),
(698,-125.365,l),
(698,700,l),
(68,700,l),
(68,-125.365,l)
);
}
);
width = 766;
}
);
unicode = 8719;
},
{
glyphname = guilsinglleft;
layers = (
{
layerId = "7E68ED66-4A14-482F-A6AB-3A68329E00A9";
shapes = (
{
closed = 1;
nodes = (
(275,20,l),
(97,254,l),
(97,266,l),
(275,500,l),
(265,518,l),
(50,284,l),
(50,236,l),
(265,2,l)
);
}
);
width = 305;
}
);
unicode = 8249;
},
{
glyphname = guilsinglright;
layers = (
{
layerId = "7E68ED66-4A14-482F-A6AB-3A68329E00A9";
shapes = (
{
closed = 1;
nodes = (
(30,20,l),
(40,2,l),
(255,236,l),
(255,284,l),
(40,518,l),
(30,500,l),
(208,266,l),
(208,254,l)
);
}
);
width = 305;
}
);
unicode = 8250;
},
{
glyphname = estimated;
layers = (
{
hints = (
{
place = (57,117);
type = Stem;
},
{
place = (681,113);
type = Stem;
},
{
horizontal = 1;
place = (-6,70);
type = Stem;
},
{
horizontal = 1;
place = (363,70);
type = Stem;
},
{
horizontal = 1;
place = (662,70);
type = Stem;
}
);
layerId = "7E68ED66-4A14-482F-A6AB-3A68329E00A9";
shapes = (
{
closed = 1;
nodes = (
(174,363,l),
(794,363,l),
(794,585,o),
(643,732,o),
(425,732,cs),
(207,732,o),
(57,585,o),
(57,363,cs),
(57,141,o),
(205,-6,o),
(425,-6,cs),
(512,-6,o),
(588,17,o),
(648,59,c),
(636,125,l),
(580,87,o),
(505,64,o),
(422,64,cs),
(303,64,o),
(235,111,o),
(174,193,c)
);
},
{
closed = 1;
nodes = (
(681,433,l),
(175,433,l),
(175,540,l),
(237,618,o),
(308,662,o),
(424,662,cs),
(545,662,o),
(620,614,o),
(681,532,c)
);
}
);
width = 850;
}
);
unicode = 8494;
},
{
glyphname = underscore;
layers = (
{
hints = (
{
horizontal = 1;
place = (-63,36);
type = Stem;
}
);
layerId = "7E68ED66-4A14-482F-A6AB-3A68329E00A9";
shapes = (
{
closed = 1;
nodes = (
(0,-63,l),
(500,-63,l),
(500,-27,l),
(0,-27,l)
);
}
);
width = 500;
}
);
unicode = 95;
},
{
glyphname = guillemotleft;
layers = (
{
layerId = "7E68ED66-4A14-482F-A6AB-3A68329E00A9";
shapes = (
{
closed = 1;
nodes = (
(267,27,l),
(79,255,l),
(268,496,l),
(254,510,l),
(32,280,l),
(32,232,l),
(253,13,l)
);
},
{
closed = 1;
nodes = (
(470,27,l),
(282,255,l),
(471,496,l),
(457,510,l),
(235,280,l),
(235,232,l),
(456,13,l)
);
}
);
width = 489;
}
);
unicode = 171;
},
{
glyphname = guillemotright;
layers = (
{
layerId = "7E68ED66-4A14-482F-A6AB-3A68329E00A9";
shapes = (
{
closed = 1;
nodes = (
(230,27,l),
(244,13,l),
(465,232,l),
(465,280,l),
(243,510,l),
(229,496,l),
(418,255,l)
);
},
{
closed = 1;
nodes = (
(27,27,l),
(41,13,l),
(262,232,l),
(262,280,l),
(40,510,l),
(26,496,l),
(215,255,l)
);
}
);
width = 494;
}
);
unicode = 187;
},
{
glyphname = commaaccentcomb;
layers = (
{
anchors = (
{
name = bottom;
position = "{123, -248}";
},
{
name = _bottom;
position = "{123, 0}";
}
);
hints = (
{
place = (52,142);
type = Stem;
},
{
horizontal = 1;
place = (-193,119);
type = Stem;
}
);
layerId = "7E68ED66-4A14-482F-A6AB-3A68329E00A9";
shapes = (
{
closed = 1;
nodes = (
(52,-151.824,o),
(80,-173,o),
(111,-173,cs),
(123,-173,o),
(136,-170,o),
(138,-166,c),
(135,-199,o),
(97,-227,o),
(63,-244,c),
(84,-277,l),
(150,-258.919,o),
(194,-195.637,o),
(194,-132.354,cs),
(194,-89.161,o),
(173,-53,o),
(121,-53,cs),
(80,-53,o),
(52,-75.185,o),
(52,-113.504,cs)
);
}
);
width = 246;
}
);
unicode = 806;
},
{
glyphname = quotesinglbase;
layers = (
{
hints = (
{
place = (52,204);
type = Stem;
},
{
horizontal = 1;
place = (-20,204);
type = Stem;
}
);
layerId = "7E68ED66-4A14-482F-A6AB-3A68329E00A9";
shapes = (
{
closed = 1;
nodes = (
(52,22,o),
(98,-20,o),
(154,-20,cs),
(163,-20,o),
(170,-19,o),
(177,-17,c),
(164,-60,o),
(117,-119,o),
(73,-145,c),
(94,-171,l),
(191,-129,o),
(256,-31,o),
(256,66,cs),
(256,142,o),
(216,184,o),
(156,184,cs),
(95,184,o),
(52,140,o),
(52,82,cs)
);
}
);
width = 308;
}
);
unicode = 8218;
},
{
glyphname = equal;
layers = (
{
hints = (
{
horizontal = 1;
place = (197,36);
type = Stem;
},
{
horizontal = 1;
place = (417,36);
type = Stem;
}
);
layerId = "7E68ED66-4A14-482F-A6AB-3A68329E00A9";
shapes = (
{
closed = 1;
nodes = (
(50,137,l),
(464,137,l),
(464,173,l),
(50,173,l)
);
},
{
closed = 1;
nodes = (
(50,393,l),
(50,357,l),
(464,357,l),
(464,393,l)
);
}
);
width = 514;
}
);
unicode = 61;
},
{
glyphname = notequal;
layers = (
{
hints = (
{
horizontal = 1;
place = (104,116);
type = Stem;
},
{
horizontal = 1;
place = (200,20);
type = Stem;
},
{
horizontal = 1;
place = (430,20);
type = Stem;
},
{
horizontal = 1;
place = (430,96);
type = Stem;
}
);
layerId = "7E68ED66-4A14-482F-A6AB-3A68329E00A9";
shapes = (
{
closed = 1;
nodes = (
(135,44,l),
(183,44,l),
(230,140,l),
(469,140,l),
(469,160,l),
(239,160,l),
(341,370,l),
(469,370,l),
(469,390,l),
(351,390,l),
(388,466,l),
(340,466,l),
(303,390,l),
(55,390,l),
(55,370,l),
(293,370,l),
(191,160,l),
(55,160,l),
(55,140,l),
(182,140,l)
);
}
);
width = 523;
}
);
unicode = 8800;
},
{
glyphname = brokenbar;
layers = (
{
hints = (
{
place = (51,38);
type = Stem;
},
{
horizontal = 1;
place = (751,-20);
target = down;
type = TopGhost;
},
{
horizontal = 1;
place = (-254,21);
target = up;
type = BottomGhost;
}
);
layerId = "7E68ED66-4A14-482F-A6AB-3A68329E00A9";
shapes = (
{
closed = 1;
nodes = (
(51,341,l),
(89,341,l),
(89,751,l),
(51,751,l)
);
},
{
closed = 1;
nodes = (
(51,155,l),
(51,-254,l),
(89,-254,l),
(89,155,l)
);
}
);
width = 140;
}
);
unicode = 166;
},
{
glyphname = micro;
layers = (
{
anchors = (
{
name = topgr;
position = "{300, 520}";
}
);
hints = (
{
place = (56,190);
type = Stem;
},
{
place = (357,190);
type = Stem;
},
{
horizontal = 1;
place = (-20,131);
type = Stem;
},
{
horizontal = 1;
place = (500,-20);
target = down;
type = TopGhost;
},
{
horizontal = 1;
place = (0,21);
target = up;
type = BottomGhost;
}
);
layerId = "7E68ED66-4A14-482F-A6AB-3A68329E00A9";
shapes = (
{
closed = 1;
nodes = (
(53,-200,l),
(243,-200,l),
(243,500,l),
(53,500,l)
);
},
{
closed = 1;
nodes = (
(373,213,l),
(357,283,l),
(357,173.366,o),
(333,110,o),
(289,110,cs),
(256,110,o),
(243,147.095,o),
(243,248.355,cs),
(243,500,l),
(53,500,l),
(53,196,ls),
(53,58,o),
(115,-20,o),
(217,-20,cs),
(297,-20,o),
(350,29,o),
(375,121,c)
);
},
{
closed = 1;
nodes = (
(547,500,l),
(357,500,l),
(357,0,l),
(547,0,l)
);
}
);
width = 600;
}
);
leftKerningGroup = i;
rightKerningGroup = a1;
},
{
glyphname = bracketleft;
layers = (
{
hints = (
{
place = (67,175);
type = Stem;
},
{
horizontal = 1;
place = (-157,90);
type = Stem;
},
{
horizontal = 1;
place = (748,90);
type = Stem;
}
);
layerId = "7E68ED66-4A14-482F-A6AB-3A68329E00A9";
shapes = (
{
closed = 1;
nodes = (
(397,778,l),
(67,778,l),
(67,-217,l),
(397,-217,l),
(397,-97,l),
(242,-97,l),
(242,658,l),
(397,658,l)
);
}
);
width = 420;
}
);
unicode = 91;
},
{
glyphname = bracketright;
layers = (
{
hints = (
{
place = (179,177);
type = Stem;
},
{
horizontal = 1;
place = (-157,90);
type = Stem;
},
{
horizontal = 1;
place = (748,90);
type = Stem;
}
);
layerId = "7E68ED66-4A14-482F-A6AB-3A68329E00A9";
shapes = (
{
closed = 1;
nodes = (
(25,778,l),
(25,658,l),
(179,658,l),
(179,-97,l),
(25,-97,l),
(25,-217,l),
(356,-217,l),
(356,778,l)
);
}
);
width = 418;
}
);
unicode = 93;
},
{
glyphname = minus;
layers = (
{
hints = (
{
horizontal = 1;
place = (323,34);
type = Stem;
}
);
layerId = "7E68ED66-4A14-482F-A6AB-3A68329E00A9";
shapes = (
{
closed = 1;
nodes = (
(50,323,l),
(516,323,l),
(516,357,l),
(50,357,l)
);
}
);
width = 566;
}
);
unicode = 8722;
},
{
glyphname = daggerdbl;
layers = (
{
hints = (
{
place = (274,158);
type = Stem;
},
{
horizontal = 1;
place = (-2,81);
type = Stem;
},
{
horizontal = 1;
place = (395,81);
type = Stem;
},
{
horizontal = 1;
place = (-222,21);
target = up;
type = BottomGhost;
},
{
horizontal = 1;
place = (696,-20);
target = down;
type = TopGhost;
}
);
layerId = "7E68ED66-4A14-482F-A6AB-3A68329E00A9";
shapes = (
{
closed = 1;
nodes = (
(259,-222,l),
(445,-222,l),
(437,-20,l),
(650,-34,l),
(650,111,l),
(435,97,l),
(410,237,l),
(435,377,l),
(650,363,l),
(650,508,l),
(437,494,l),
(445,696,l),
(259,696,l),
(268,494,l),
(50,508,l),
(50,363,l),
(270,377,l),
(295,237,l),
(270,97,l),
(50,111,l),
(50,-34,l),
(268,-20,l)
);
}
);
width = 722;
}
);
unicode = 8225;
},
{
glyphname = multiply;
layers = (
{
layerId = "7E68ED66-4A14-482F-A6AB-3A68329E00A9";
shapes = (
{
closed = 1;
nodes = (
(386,110,l),
(411,135,l),
(65,482,l),
(40,457,l)
);
},
{
closed = 1;
nodes = (
(65,110,l),
(411,457,l),
(386,482,l),
(40,135,l)
);
}
);
width = 452;
}
);
unicode = 215;
},
{
glyphname = dagger;
layers = (
{
hints = (
{
place = (272,161);
type = Stem;
},
{
place = (291,123);
type = Stem;
},
{
horizontal = 1;
place = (395,82);
type = Stem;
},
{
horizontal = 1;
place = (696,-20);
target = down;
type = TopGhost;
},
{
horizontal = 1;
place = (-104,21);
target = up;
type = BottomGhost;
}
);
layerId = "7E68ED66-4A14-482F-A6AB-3A68329E00A9";
shapes = (
{
closed = 1;
nodes = (
(409,-104,l),
(438,376,l),
(650,363,l),
(650,508,l),
(440,495,l),
(445,696,l),
(260,696,l),
(264,494,l),
(50,508,l),
(50,363,l),
(266,376,l),
(295,-104,l)
);
}
);
width = 701;
}
);
unicode = 8224;
},
{
glyphname = plus;
layers = (
{
hints = (
{
place = (260,36);
type = Stem;
},
{
horizontal = 1;
place = (322,36);
type = Stem;
},
{
horizontal = 1;
place = (115,21);
target = up;
type = BottomGhost;
},
{
horizontal = 1;
place = (565,-20);
target = down;
type = TopGhost;
}
);
layerId = "7E68ED66-4A14-482F-A6AB-3A68329E00A9";
shapes = (
{
closed = 1;
nodes = (
(260,262,l),
(260,55,l),
(296,55,l),
(296,262,l),
(516,262,l),
(516,298,l),
(296,298,l),
(296,505,l),
(260,505,l),
(260,298,l),
(50,298,l),
(50,262,l)
);
}
);
width = 566;
}
);
unicode = 43;
},
{
glyphname = florin;
layers = (
{
hints = (
{
place = (124,187);
type = Stem;
},
{
horizontal = 1;
place = (-17,131);
type = Stem;
},
{
horizontal = 1;
place = (363,130);
type = Stem;
},
{
horizontal = 1;
place = (588,131);
type = Stem;
}
);
layerId = "7E68ED66-4A14-482F-A6AB-3A68329E00A9";
shapes = (
{
closed = 1;
nodes = (
(127,719,o),
(124,545,o),
(124,438,cs),
(124,184,o),
(141,116,o),
(48,116,cs),
(21,116,o),
(-12,122,o),
(-69,140,c),
(-103,6,l),
(-41,-11,o),
(8,-17,o),
(56,-17,cs),
(325,-17,o),
(312,173,o),
(312,335,cs),
(312,497,o),
(299,586,o),
(398,586,cs),
(430,586,o),
(462,577,o),
(516,560,c),
(548,696,l),
(486,713,o),
(436,719,o),
(388,719,cs)
);
},
{
closed = 1;
nodes = (
(19,494,l),
(19,362,l),
(485,362,l),
(485,494,l)
);
}
);
width = 533;
}
);
unicode = 402;
},
{
glyphname = integral;
layers = (
{
hints = (
{
horizontal = 1;
place = (-223,140);
type = Stem;
},
{
horizontal = 1;
place = (650,140);
type = Stem;
}
);
layerId = "7E68ED66-4A14-482F-A6AB-3A68329E00A9";
shapes = (
{
closed = 1;
nodes = (
(117,84,ls),
(115.643,27.007,o),
(115,-33,o),
(56,-33,cs),
(31,-33,o),
(-17,-22,o),
(-66,14,c),
(-105,-122,l),
(-56,-153,o),
(10,-173,o),
(87,-173,cs),
(230,-173,o),
(307.803,-104.995,o),
(312,51,cs),
(324,497,ls),
(326.368,584.991,o),
(334,630,o),
(390,630,cs),
(418,630,o),
(475,619,o),
(518,583,c),
(557,719,l),
(516,752,o),
(441,770,o),
(368,770,cs),
(225,770,o),
(131.714,701.985,o),
(128,546,cs)
);
}
);
width = 452;
}
);
unicode = 8747;
},
{
glyphname = one;
layers = (
{
hints = (
{
place = (199,190);
type = Stem;
},
{
horizontal = 1;
place = (0,21);
target = up;
type = BottomGhost;
},
{
horizontal = 1;
place = (700,-20);
target = down;
type = TopGhost;
}
);
layerId = "7E68ED66-4A14-482F-A6AB-3A68329E00A9";
shapes = (
{
closed = 1;
nodes = (
(9,368,l),
(105,391,o),
(147,424,o),
(199,478,c),
(199,0,l),
(389,0,l),
(389,700,l),
(222,700,l),
(165,608,o),
(105,535,o),
(9,515,c)
);
}
);
width = 456;
}
);
unicode = 49;
},
{
glyphname = two;
layers = (
{
hints = (
{
place = (391,191);
type = Stem;
},
{
horizontal = 1;
place = (0,140);
type = Stem;
},
{
horizontal = 1;
place = (580,140);
type = Stem;
}
);
layerId = "7E68ED66-4A14-482F-A6AB-3A68329E00A9";
shapes = (
{
closed = 1;
nodes = (
(47,140,l),
(47,0,l),
(582,0,l),
(582,140,l)
);
},
{
closed = 1;
nodes = (
(359,580,o),
(392,536,o),
(392,463,cs),
(392,384,o),
(353,317,o),
(47,255,c),
(47,115,l),
(448,182,o),
(582,272,o),
(582,464,cs),
(582,627,o),
(486,720,o),
(310,720,cs),
(169,720,o),
(85,661,o),
(47,624,c),
(155,516,l),
(183,550,o),
(225,580,o),
(288,580,cs)
);
}
);
width = 632;
}
);
unicode = 50;
},
{
glyphname = quotesingle;
layers = (
{
hints = (
{
place = (26,153);
type = Stem;
},
{
horizontal = 1;
place = (803,-20);
target = down;
type = TopGhost;
},
{
horizontal = 1;
place = (526,21);
target = up;
type = BottomGhost;
}
);
layerId = "7E68ED66-4A14-482F-A6AB-3A68329E00A9";
shapes = (
{
closed = 1;
nodes = (
(33,526,l),
(171,526,l),
(186,803,l),
(18,803,l)
);
}
);
width = 204;
}
);
unicode = 39;
},
{
glyphname = quotedbl;
layers = (
{
hints = (
{
place = (29,153);
type = Stem;
},
{
place = (229,153);
type = Stem;
},
{
horizontal = 1;
place = (803,-20);
target = down;
type = TopGhost;
},
{
horizontal = 1;
place = (526,21);
target = up;
type = BottomGhost;
}
);
layerId = "7E68ED66-4A14-482F-A6AB-3A68329E00A9";
shapes = (
{
closed = 1;
nodes = (
(35,526,l),
(173,526,l),
(188,803,l),
(20,803,l)
);
},
{
closed = 1;
nodes = (
(236,526,l),
(374,526,l),
(389,803,l),
(221,803,l)
);
}
);
width = 409;
}
);
unicode = 34;
},
{
glyphname = logicalnot;
layers = (
{
hints = (
{
place = (435,48);
type = Stem;
},
{
horizontal = 1;
place = (93,229);
type = Stem;
},
{
horizontal = 1;
place = (292,30);
type = Stem;
}
);
layerId = "7E68ED66-4A14-482F-A6AB-3A68329E00A9";
shapes = (
{
closed = 1;
nodes = (
(50,292,l),
(435,292,l),
(435,93,l),
(483,93,l),
(483,322,l),
(50,322,l)
);
}
);
width = 553;
}
);
unicode = 172;
},
{
glyphname = pi;
layers = (
{
anchors = (
{
name = topgr;
position = "{322, 520}";
}
);
hints = (
{
place = (85,190);
type = Stem;
},
{
place = (358,190);
type = Stem;
},
{
place = (358,247);
type = Stem;
},
{
horizontal = 1;
place = (-20,130);
type = Stem;
},
{
horizontal = 1;
place = (370,130);
type = Stem;
},
{
horizontal = 1;
place = (0,21);
target = up;
type = BottomGhost;
}
);
layerId = "7E68ED66-4A14-482F-A6AB-3A68329E00A9";
shapes = (
{
closed = 1;
nodes = (
(358,189,ls),
(358,31,o),
(420,0,o),
(605,0,c),
(605,135,l),
(568,135,o),
(548,140,o),
(548,195,cs),
(548,367,l),
(616,367,l),
(616,500,l),
(19,500,l),
(19,367,l),
(85,367,l),
(85,0,l),
(275,0,l),
(275,367,l),
(358,367,l)
);
}
);
width = 645;
}
);
leftKerningGroup = i;
unicode = 960;
},
{
glyphname = three;
layers = (
{
hints = (
{
place = (329,191);
type = Stem;
},
{
place = (352,191);
type = Stem;
},
{
horizontal = 1;
place = (-19,140);
type = Stem;
},
{
horizontal = 1;
place = (286,70);
type = Stem;
},
{
horizontal = 1;
place = (362,70);
type = Stem;
},
{
horizontal = 1;
place = (579,141);
type = Stem;
}
);
layerId = "7E68ED66-4A14-482F-A6AB-3A68329E00A9";
shapes = (
{
closed = 1;
nodes = (
(24,84,l),
(87,17,o),
(173,-19,o),
(289,-19,cs),
(456,-19,o),
(543,56,o),
(543,188,cs),
(543,322,o),
(454,386,o),
(192,366,c),
(192,276,l),
(303,276,o),
(353,252,o),
(353,193,cs),
(353,146,o),
(321,121,o),
(268,121,cs),
(219,121,o),
(179,140,o),
(132,192,c)
);
},
{
closed = 1;
nodes = (
(304,580,o),
(330,557,o),
(330,514,cs),
(330,461,o),
(290,442,o),
(192,442,c),
(192,352,l),
(420,342,o),
(520,403,o),
(520,525,cs),
(520,627,o),
(449,720,o),
(281,720,cs),
(147,720,o),
(64,661,o),
(27,624,c),
(135,516,l),
(165,546,o),
(206,580,o),
(260,580,cs)
);
}
);
width = 578;
}
);
unicode = 51;
},
{
glyphname = zero;
layers = (
{
hints = (
{
place = (39,191);
type = Stem;
},
{
place = (397,191);
type = Stem;
},
{
horizontal = 1;
place = (-19,140);
type = Stem;
},
{
horizontal = 1;
place = (580,140);
type = Stem;
}
);
layerId = "7E68ED66-4A14-482F-A6AB-3A68329E00A9";
shapes = (
{
closed = 1;
nodes = (
(39.5,112.69,o),
(135.047,-19,o),
(315.995,-19,cs),
(498.862,-19,o),
(587.5,99.4,o),
(587.5,350,cs),
(587.5,594.04,o),
(495.548,720,o),
(319.988,720,cs),
(138.13,720,o),
(39.5,590.43,o),
(39.5,350,cs)
);
},
{
closed = 1;
nodes = (
(229.5,530,o),
(263.704,580,o),
(317.021,580,cs),
(370.338,580,o),
(397.5,530,o),
(397.5,351,cs),
(397.5,197,o),
(377.38,121,o),
(316.015,121,cs),
(253.644,121,o),
(229.5,198,o),
(229.5,350,cs)
);
}
);
width = 627;
}
);
unicode = 48;
},
{
glyphname = four;
layers = (
{
hints = (
{
place = (342,190);
type = Stem;
},
{
horizontal = 1;
place = (151,131);
type = Stem;
},
{
horizontal = 1;
place = (700,-20);
target = down;
type = TopGhost;
},
{
horizontal = 1;
place = (0,21);
target = up;
type = BottomGhost;
}
);
layerId = "7E68ED66-4A14-482F-A6AB-3A68329E00A9";
shapes = (
{
closed = 1;
nodes = (
(16,151,l),
(342,151,l),
(342,0,l),
(532,0,l),
(532,151,l),
(658,151,l),
(658,291,l),
(532,291,l),
(532,700,l),
(303,700,l),
(16,258,l)
);
},
{
closed = 1;
nodes = (
(216,291,l),
(342,485,l),
(342,291,l)
);
}
);
width = 685;
}
);
unicode = 52;
},
{
glyphname = five;
layers = (
{
hints = (
{
place = (380,190);
type = Stem;
},
{
horizontal = 1;
place = (-20,140);
type = Stem;
},
{
horizontal = 1;
place = (322,131);
type = Stem;
},
{
horizontal = 1;
place = (560,140);
type = Stem;
}
);
layerId = "7E68ED66-4A14-482F-A6AB-3A68329E00A9";
shapes = (
{
closed = 1;
nodes = (
(264,560,l),
(538,560,l),
(538,700,l),
(117,700,l),
(48,242,l),
(151,293,o),
(222,322,o),
(283,322,cs),
(350,322,o),
(380,286,o),
(380,226,cs),
(380,164,o),
(348,120,o),
(272,120,cs),
(211,120,o),
(177,149,o),
(128,207,c),
(23,102,l),
(93,24,o),
(169,-20,o),
(281.907,-20,cs),
(457,-20,o),
(570,79.789,o),
(570,230.469,cs),
(570,364.186,o),
(480,452,o),
(350,452,cs),
(306,452,o),
(268,442.4,o),
(244,428,c)
);
}
);
width = 615;
}
);
unicode = 53;
},
{
glyphname = six;
layers = (
{
hints = (
{
place = (28,142);
type = Stem;
},
{
place = (409,190);
type = Stem;
},
{
place = (28,193);
type = Stem;
},
{
horizontal = 1;
place = (-20,140);
type = Stem;
},
{
horizontal = 1;
place = (334,124);
type = Stem;
},
{
horizontal = 1;
place = (579,141);
type = Stem;
}
);
layerId = "7E68ED66-4A14-482F-A6AB-3A68329E00A9";
shapes = (
{
closed = 1;
nodes = (
(415.729,580,o),
(456.729,546,o),
(486.729,516,c),
(594.729,624,l),
(557.729,661,o),
(476,720,o),
(342,720,cs),
(145,720,o),
(28,582,o),
(28,330,cs),
(28,100,o),
(132,-20,o),
(323,-20,cs),
(502,-20,o),
(599,86,o),
(599,229,cs),
(599,372,o),
(494,458,o),
(355,458,cs),
(263.277,458,o),
(193.168,420.462,o),
(158.016,345.386,c),
(189.424,336.957,l),
(183.148,503.985,o),
(249.676,580,o),
(361.729,580,cs)
);
},
{
closed = 1;
nodes = (
(223,284,o),
(260,324,o),
(321,324,cs),
(378,324,o),
(409,289,o),
(409,226,cs),
(409,159,o),
(374,120,o),
(312,120,cs),
(255,120,o),
(223,153,o),
(223,216,cs)
);
}
);
width = 631;
}
);
unicode = 54;
},
{
glyphname = seven;
layers = (
{
hints = (
{
horizontal = 1;
place = (560,140);
type = Stem;
},
{
horizontal = 1;
place = (0,21);
target = up;
type = BottomGhost;
}
);
layerId = "7E68ED66-4A14-482F-A6AB-3A68329E00A9";
shapes = (
{
closed = 1;
nodes = (
(70,0,l),
(280,0,l),
(550,580,l),
(550,700,l),
(34,700,l),
(34,560,l),
(331,560,l)
);
}
);
width = 565;
}
);
unicode = 55;
},
{
glyphname = eight;
layers = (
{
hints = (
{
place = (26,187);
type = Stem;
},
{
place = (54,187);
type = Stem;
},
{
place = (392,187);
type = Stem;
},
{
place = (363,187);
type = Stem;
},
{
horizontal = 1;
place = (-20,141);
type = Stem;
},
{
horizontal = 1;
place = (308,131);
type = Stem;
},
{
horizontal = 1;
place = (593,127);
type = Stem;
}
);
layerId = "7E68ED66-4A14-482F-A6AB-3A68329E00A9";
shapes = (
{
closed = 1;
nodes = (
(468,-20,o),
(579,64,o),
(579,189,cs),
(579,285,o),
(513,351,o),
(397,370,c),
(492,390,o),
(550,453,o),
(550,538,cs),
(550,647,o),
(454,720,o),
(301,720,cs),
(150,720,o),
(54,649,o),
(54,540,cs),
(54,453,o),
(115,391,o),
(213,370,c),
(96,351,o),
(26,282,o),
(26,186,cs),
(26,64,o),
(139,-20,o),
(304,-20,cs)
);
},
{
closed = 1;
nodes = (
(213,266.802,o),
(247,303,o),
(302,303,cs),
(356,303,o),
(392,267.808,o),
(392,214.516,cs),
(392,163.236,o),
(358,120,o),
(301,120,cs),
(249,120,o),
(213,157.203,o),
(213,212.505,cs)
);
},
{
closed = 1;
nodes = (
(337,580,o),
(363,556.659,o),
(363,512.007,cs),
(363,471.415,o),
(341,443,o),
(300,443,cs),
(259,443,o),
(241,471.415,o),
(241,507.948,cs),
(241,551.585,o),
(267,580,o),
(304,580,cs)
);
}
);
width = 605;
}
);
unicode = 56;
},
{
glyphname = question;
layers = (
{
hints = (
{
place = (148,204);
type = Stem;
},
{
place = (152,190);
type = Stem;
},
{
place = (329,190);
type = Stem;
},
{
horizontal = 1;
place = (-20,204);
type = Stem;
},
{
horizontal = 1;
place = (627,140);
type = Stem;
}
);
layerId = "7E68ED66-4A14-482F-A6AB-3A68329E00A9";
shapes = (
{
closed = 1;
nodes = (
(108,540,l),
(157,600,o),
(212,626,o),
(258,626,cs),
(310,626,o),
(329,593,o),
(329,552,cs),
(329,482,o),
(275,426,o),
(152,365,c),
(152,250,l),
(342,250,l),
(342,334,l),
(448,390,o),
(519,480,o),
(519,575,cs),
(519,688,o),
(418,767,o),
(274,767,cs),
(161,767,o),
(60,718,o),
(2,646,c)
);
},
{
closed = 1;
nodes = (
(303.33,-20,o),
(343.788,22.297,o),
(343.788,74.707,cs),
(343.788,127.118,o),
(303.33,167.576,o),
(250,167.576,cs),
(195.75,167.576,o),
(156.212,127.118,o),
(156.212,74.707,cs),
(156.212,22.297,o),
(195.75,-20,o),
(250,-20,cs)
);
}
);
width = 551;
}
);
unicode = 63;
},
{
glyphname = section;
layers = (
{
hints = (
{
horizontal = 1;
place = (-55,70);
type = Stem;
},
{
horizontal = 1;
place = (649,71);
type = Stem;
}
);
layerId = "7E68ED66-4A14-482F-A6AB-3A68329E00A9";
shapes = (
{
closed = 1;
nodes = (
(336,166,l),
(366.857,178,o),
(384,198,o),
(384,224,cs),
(384,267,o),
(356.969,279.142,o),
(297,292.564,cs),
(123.969,331.293,o),
(46,400.957,o),
(46,513.44,cs),
(46,638.194,o),
(137.367,720,o),
(284.516,720,cs),
(409.545,720,o),
(498.989,663,o),
(549,599,c),
(443,493,l),
(397.405,549,o),
(353.634,579,o),
(306.216,579,cs),
(260.621,579,o),
(236,549.798,o),
(236,508.082,cs),
(236,465.322,o),
(264.093,446.941,o),
(352,426.734,cs),
(509.094,390.623,o),
(573,336,o),
(573,229,cs),
(573,151,o),
(531.842,88,o),
(458,50,c)
);
},
{
closed = 1;
nodes = (
(245,327,l),
(226,315,o),
(215,295,o),
(215,268,cs),
(215,226,o),
(241.23,214.019,o),
(299.426,200.774,cs),
(467.336,162.559,o),
(543,93.817,o),
(543,-17.176,cs),
(543,-140.278,o),
(449.816,-221,o),
(299.742,-221,cs),
(172.228,-221,o),
(81.006,-164,o),
(30,-100,c),
(136,6,l),
(183.797,-50,o),
(229.683,-80,o),
(279.392,-80,cs),
(327.189,-80,o),
(353,-51.519,o),
(353,-10.833,cs),
(353,30.871,o),
(325.746,48.797,o),
(240.442,68.506,cs),
(88.015,103.724,o),
(26,157,o),
(26,263,cs),
(26,342,o),
(61,405,o),
(123,443,c)
);
}
);
width = 590;
}
);
unicode = 167;
},
{
glyphname = numbersign;
layers = (
{
hints = (
{
horizontal = 1;
place = (210,60);
type = Stem;
},
{
horizontal = 1;
place = (430,60);
type = Stem;
},
{
horizontal = 1;
place = (700,-20);
target = down;
type = TopGhost;
},
{
horizontal = 1;
place = (0,21);
target = up;
type = BottomGhost;
}
);
layerId = "7E68ED66-4A14-482F-A6AB-3A68329E00A9";
shapes = (
{
closed = 1;
nodes = (
(403,0,l),
(597,0,l),
(636,190,l),
(755,190,l),
(755,290,l),
(656,290,l),
(681,410,l),
(802,410,l),
(802,510,l),
(701,510,l),
(740,700,l),
(546,700,l),
(507,510,l),
(383,510,l),
(422,700,l),
(228,700,l),
(189,510,l),
(74,510,l),
(74,410,l),
(169,410,l),
(144,290,l),
(28,290,l),
(28,190,l),
(124,190,l),
(85,0,l),
(279,0,l),
(318,190,l),
(442,190,l)
);
},
{
closed = 1;
nodes = (
(338,290,l),
(363,410,l),
(487,410,l),
(462,290,l)
);
}
);
width = 830;
}
);
unicode = 35;
},
{
glyphname = asterisk;
layers = (
{
hints = (
{
place = (260,34);
type = Stem;
},
{
horizontal = 1;
place = (272,21);
target = up;
type = BottomGhost;
},
{
horizontal = 1;
place = (700,-20);
target = down;
type = TopGhost;
}
);
layerId = "7E68ED66-4A14-482F-A6AB-3A68329E00A9";
shapes = (
{
closed = 1;
nodes = (
(253,700,l),
(266,505,l),
(101,621,l),
(78,580,l),
(259,486,l),
(78,393,l),
(101,351,l),
(266,468,l),
(253,272,l),
(300,272,l),
(286,468,l),
(450,353,l),
(472,394,l),
(293,486,l),
(472,579,l),
(449,620,l),
(286,505,l),
(300,700,l)
);
}
);
width = 553;
}
);
unicode = 42;
},
{
glyphname = copyright;
layers = (
{
hints = (
{
place = (221,129);
type = Stem;
},
{
horizontal = 1;
place = (167,88);
type = Stem;
},
{
horizontal = 1;
place = (446,88);
type = Stem;
}
);
layerId = "7E68ED66-4A14-482F-A6AB-3A68329E00A9";
shapes = (
{
closed = 1;
nodes = (
(589,12,o),
(773,138,o),
(773,357,cs),
(773,572,o),
(596,688,o),
(411,688,cs),
(227,688,o),
(44,573,o),
(44,357,cs),
(44,137,o),
(233,12,o),
(411,12,cs)
);
},
{
closed = 1;
nodes = (
(585,628,o),
(713,514,o),
(713,354,cs),
(713,186,o),
(573,72,o),
(411,72,cs),
(243,72,o),
(104,195,o),
(104,358,cs),
(104,513,o),
(231,628,o),
(408,628,cs)
);
},
{
closed = 1;
nodes = (
(363.715,254.184,o),
(337.152,286.578,o),
(337.152,353.146,cs),
(337.152,415.466,o),
(360.375,447.171,o),
(419.358,447.171,cs),
(458.314,447.171,o),
(483.291,433.341,o),
(502.225,409.812,c),
(574.582,483.169,l),
(535.402,522.992,o),
(484.822,547.171,o),
(410.396,547.171,cs),
(292.616,547.171,o),
(220.358,475.123,o),
(220.358,354.316,cs),
(220.358,226.232,o),
(293.335,154.184,o),
(410.387,154.184,cs),
(486.254,154.184,o),
(537.555,178.663,o),
(576.742,218.981,c),
(504.385,292.338,l),
(478.467,266.328,o),
(453.573,254.184,o),
(419.448,254.184,cs)
);
}
);
width = 817;
}
);
unicode = 169;
},
{
glyphname = registered;
layers = (
{
hints = (
{
place = (256,107);
type = Stem;
},
{
place = (454,108);
type = Stem;
},
{
horizontal = 1;
place = (466,79);
type = Stem;
},
{
horizontal = 1;
place = (141,21);
target = up;
type = BottomGhost;
}
);
layerId = "7E68ED66-4A14-482F-A6AB-3A68329E00A9";
shapes = (
{
closed = 1;
nodes = (
(589,12,o),
(773,138,o),
(773,355,cs),
(773,572,o),
(596,688,o),
(411,688,cs),
(227,688,o),
(44,573,o),
(44,355,cs),
(44,137,o),
(233,12,o),
(411,12,cs)
);
},
{
closed = 1;
nodes = (
(585,628,o),
(713,514,o),
(713,350,cs),
(713,186,o),
(573,72,o),
(409,72,cs),
(243,72,o),
(104,195,o),
(104,354,cs),
(104,513,o),
(231,628,o),
(409,628,cs)
);
},
{
closed = 1;
nodes = (
(369.8,150,l),
(369.8,453.6,l),
(401.611,453.6,ls),
(454.006,453.6,o),
(469.6,441.995,o),
(469.6,414.32,cs),
(469.6,386.645,o),
(454.694,375.04,o),
(404.611,375.04,cs),
(280,375.04,l),
(280,286.64,l),
(429.385,286.64,ls),
(525.16,286.64,o),
(586.6,337.356,o),
(586.6,417.374,cs),
(586.6,495.702,o),
(526.677,543.6,o),
(427.009,543.6,cs),
(255.8,543.6,l),
(255.8,150,l)
);
},
{
closed = 1;
nodes = (
(388,307.36,l),
(473.8,150,l),
(596.2,150,l),
(494.2,336.48,l)
);
}
);
width = 817;
}
);
unicode = 174;
},
{
glyphname = ordfeminine;
layers = (
{
hints = (
{
place = (53,137);
type = Stem;
},
{
place = (354,137);
type = Stem;
},
{
horizontal = 1;
place = (320,100);
type = Stem;
},
{
horizontal = 1;
place = (621,99);
type = Stem;
},
{
horizontal = 1;
place = (702,-20);
target = down;
type = TopGhost;
}
);
layerId = "7E68ED66-4A14-482F-A6AB-3A68329E00A9";
shapes = (
{
closed = 1;
nodes = (
(359,335,l),
(491,335,l),
(491,702,l),
(359,702,l)
);
},
{
closed = 1;
nodes = (
(386,624,o),
(347,720,o),
(234,720,cs),
(129,720,o),
(58,636,o),
(58,522,cs),
(58,408,o),
(128,320,o),
(235,320,cs),
(347,320,o),
(386,416,o),
(386,520,cs)
);
},
{
closed = 1;
nodes = (
(190,585,o),
(222,624,o),
(276,624,cs),
(330,624,o),
(359,586,o),
(359,521,cs),
(359,455,o),
(329,415,o),
(276,415,cs),
(222,415,o),
(190,456,o),
(190,521,cs)
);
}
);
width = 549;
}
);
unicode = 170;
},
{
glyphname = ordmasculine;
layers = (
{
hints = (
{
place = (54,136);
type = Stem;
},
{
place = (327,136);
type = Stem;
},
{
horizontal = 1;
place = (317,95);
type = Stem;
},
{
horizontal = 1;
place = (625,95);
type = Stem;
}
);
layerId = "7E68ED66-4A14-482F-A6AB-3A68329E00A9";
shapes = (
{
closed = 1;
nodes = (
(54,393,o),
(132,317,o),
(258,317,cs),
(386,317,o),
(463,393,o),
(463,523,cs),
(463,631,o),
(385,720,o),
(258,720,cs),
(131,720,o),
(54,631,o),
(54,523,cs)
);
},
{
closed = 1;
nodes = (
(326,450,o),
(295,417,o),
(258,417,cs),
(220,417,o),
(191,449,o),
(191,523,cs),
(191,589,o),
(219,620,o),
(258,620,cs),
(295,620,o),
(326,595,o),
(326,522,cs)
);
}
);
width = 516;
}
);
unicode = 186;
},
{
glyphname = paragraph;
layers = (
{
hints = (
{
place = (338,48);
type = Stem;
},
{
place = (476,48);
type = Stem;
},
{
horizontal = 1;
place = (731,20);
type = Stem;
},
{
horizontal = 1;
place = (-132,21);
target = up;
type = BottomGhost;
}
);
layerId = "7E68ED66-4A14-482F-A6AB-3A68329E00A9";
shapes = (
{
closed = 1;
nodes = (
(50,383,o),
(108,282,o),
(308,282,cs),
(338,282,l),
(338,-132,l),
(386,-132,l),
(386,731,l),
(476,731,l),
(476,-132,l),
(524,-132,l),
(524,751,l),
(308,751,ls),
(129,751,o),
(50,663,o),
(50,523,cs)
);
}
);
width = 590;
}
);
unicode = 182;
},
{
glyphname = partialdiff;
layers = (
{
hints = (
{
place = (28,170);
type = Stem;
},
{
place = (445,230);
type = Stem;
},
{
place = (538,137);
type = Stem;
},
{
horizontal = 1;
place = (-20,123);
type = Stem;
},
{
horizontal = 1;
place = (345,122);
type = Stem;
},
{
horizontal = 1;
place = (599,121);
type = Stem;
}
);
layerId = "7E68ED66-4A14-482F-A6AB-3A68329E00A9";
shapes = (
{
closed = 1;
nodes = (
(241,532,l),
(284,563,o),
(331,579,o),
(382,579,cs),
(463,579,o),
(538,539,o),
(538,439,cs),
(538,396,o),
(524,322,o),
(508,292,c),
(516,255,l),
(532,256,l),
(542,278,l),
(566,376,o),
(474,467,o),
(323,467,cs),
(161,467,o),
(28,362,o),
(28,208,cs),
(28,73,o),
(131,-20,o),
(278,-20,cs),
(497,-20,o),
(675,188,o),
(675,425,cs),
(675,613,o),
(563,720,o),
(385,720,cs),
(306,720,o),
(201,699,o),
(132,641,c)
);
},
{
closed = 1;
nodes = (
(402,345,o),
(445,302,o),
(445,236,cs),
(445,161,o),
(390,113,o),
(319,113,cs),
(247,113,o),
(198,161,o),
(198,228,cs),
(198,294,o),
(247,345,o),
(328,345,cs)
);
}
);
width = 730;
}
);
unicode = 8706;
},
{
glyphname = sterling;
layers = (
{
hints = (
{
place = (162,190);
type = Stem;
},
{
place = (57,191);
type = Stem;
},
{
horizontal = 1;
place = (-26,108);
type = Stem;
},
{
horizontal = 1;
place = (279,100);
type = Stem;
},
{
horizontal = 1;
place = (579,141);
type = Stem;
}
);
layerId = "7E68ED66-4A14-482F-A6AB-3A68329E00A9";
shapes = (
{
closed = 1;
nodes = (
(21,379,l),
(21,279,l),
(495,279,l),
(495,379,l)
);
},
{
closed = 1;
nodes = (
(372,579,o),
(419,562,o),
(477,493,c),
(583,599,l),
(505,689,o),
(415,720,o),
(316,720,cs),
(153,720,o),
(57,637,o),
(57,520,cs),
(57,462,o),
(81,407,o),
(114,347,cs),
(137,305,o),
(162,265,o),
(162,210,cs),
(162,130,o),
(110,86,o),
(50,46,c),
(50,-44,l),
(109,32,o),
(144,50,o),
(182,50,cs),
(261,50,o),
(272,-26,o),
(400,-26,cs),
(504,-26,o),
(585,24,o),
(614,104,c),
(584,154,l),
(556,118,o),
(509,91,o),
(458,91,cs),
(377,91,o),
(415,157,o),
(329,157,c),
(344,180,o),
(352,191,o),
(352,224,cs),
(352,341,o),
(248,412,o),
(248,504,cs),
(248,551,o),
(276,579,o),
(330,579,cs)
);
}
);
width = 634;
}
);
unicode = 163;
},
{
glyphname = asciitilde;
layers = (
{
hints = (
{
horizontal = 1;
place = (286,51);
type = Stem;
},
{
horizontal = 1;
place = (367,49);
type = Stem;
}
);
layerId = "7E68ED66-4A14-482F-A6AB-3A68329E00A9";
shapes = (
{
closed = 1;
nodes = (
(36,243,l),
(54,286,o),
(104,307,o),
(149,307,cs),
(179,307,o),
(199.968,296.958,o),
(240,266,cs),
(274.968,238.958,o),
(298,226,o),
(340,226,cs),
(395,226,o),
(441,248,o),
(465,329,c),
(455,329,l),
(438,289,o),
(404,277,o),
(365,277,cs),
(329,277,o),
(304.965,286.956,o),
(268,316,cs),
(234.965,341.956,o),
(208,356,o),
(171,356,cs),
(113,356,o),
(52,321,o),
(26,243,c)
);
}
);
width = 496;
}
);
unicode = 126;
},
{
glyphname = approxequal;
layers = (
{
hints = (
{
horizontal = 1;
place = (209,51);
type = Stem;
},
{
horizontal = 1;
place = (290,49);
type = Stem;
},
{
horizontal = 1;
place = (366,51);
type = Stem;
},
{
horizontal = 1;
place = (447,49);
type = Stem;
}
);
layerId = "7E68ED66-4A14-482F-A6AB-3A68329E00A9";
shapes = (
{
closed = 1;
nodes = (
(42,166,l),
(60,209,o),
(110,230,o),
(155,230,cs),
(185,230,o),
(205.968,219.958,o),
(246,189,cs),
(280.968,161.958,o),
(304,149,o),
(346,149,cs),
(401,149,o),
(447,171,o),
(471,252,c),
(461,252,l),
(444,212,o),
(410,200,o),
(371,200,cs),
(335,200,o),
(310.965,209.956,o),
(274,239,cs),
(240.965,264.956,o),
(214,279,o),
(177,279,cs),
(119,279,o),
(58,244,o),
(32,166,c)
);
},
{
closed = 1;
nodes = (
(40,323,l),
(58,366,o),
(108,387,o),
(153,387,cs),
(183,387,o),
(203.968,376.958,o),
(244,346,cs),
(278.968,318.958,o),
(302,306,o),
(344,306,cs),
(399,306,o),
(445,328,o),
(469,409,c),
(459,409,l),
(442,369,o),
(408,357,o),
(369,357,cs),
(333,357,o),
(308.965,366.956,o),
(272,396,cs),
(238.965,421.956,o),
(212,436,o),
(175,436,cs),
(117,436,o),
(56,401,o),
(30,323,c)
);
}
);
width = 542;
}
);
unicode = 8776;
},
{
glyphname = at;
layers = (
{
hints = (
{
place = (44,60);
type = Stem;
},
{
place = (214,100);
type = Stem;
},
{
place = (523,77);
type = Stem;
},
{
place = (781,60);
type = Stem;
},
{
horizontal = 1;
place = (-99,50);
type = Stem;
},
{
horizontal = 1;
place = (81,70);
type = Stem;
},
{
horizontal = 1;
place = (83,60);
type = Stem;
},
{
horizontal = 1;
place = (448,72);
type = Stem;
},
{
horizontal = 1;
place = (671,50);
type = Stem;
}
);
layerId = "7E68ED66-4A14-482F-A6AB-3A68329E00A9";
shapes = (
{
closed = 1;
nodes = (
(44,-6,o),
(199,-159,o),
(423,-159,cs),
(463,-159,o),
(499,-154,o),
(534,-147,c),
(534,-97,l),
(502,-103,o),
(463,-109,o),
(424,-109,cs),
(245,-109,o),
(104,17,o),
(104,247,cs),
(104,491,o),
(264,611,o),
(447,611,cs),
(631,611,o),
(781,490,o),
(781,279,cs),
(781,145,o),
(727.63,83,o),
(669.812,83,cs),
(631.564,83,o),
(620,111,o),
(620,151,cs),
(620,164,l),
(639,422,l),
(593,447,o),
(545,460,o),
(486,460,cs),
(315,460,o),
(234,349,o),
(234,220,cs),
(234,90,o),
(319.882,21,o),
(422.319,21,cs),
(504.062,21,o),
(532,65,o),
(553,128,c),
(550,59,o),
(598,23,o),
(668,23,cs),
(793,23,o),
(841,136,o),
(841,282,cs),
(841,507,o),
(680,661,o),
(448,661,cs),
(216,661,o),
(44,507,o),
(44,244,cs)
);
},
{
closed = 1;
nodes = (
(334,316,o),
(389,388,o),
(466,388,cs),
(493,388,o),
(523,379,o),
(544,362,c),
(541,332,o),
(534.948,290.006,o),
(532,262,cs),
(518.948,138.005,o),
(484,91,o),
(420,91,cs),
(357,91,o),
(334,137,o),
(334,207,cs)
);
}
);
width = 885;
}
);
unicode = 64;
},
{
glyphname = ampersand;
layers = (
{
hints = (
{
place = (27,190);
type = Stem;
},
{
place = (87,174);
type = Stem;
},
{
place = (333,180);
type = Stem;
},
{
horizontal = 1;
place = (-20,141);
type = Stem;
},
{
horizontal = 1;
place = (579,141);
type = Stem;
},
{
horizontal = 1;
place = (0,21);
target = up;
type = BottomGhost;
}
);
layerId = "7E68ED66-4A14-482F-A6AB-3A68329E00A9";
shapes = (
{
closed = 1;
nodes = (
(310,419,l),
(286,448.181,o),
(261,483.4,o),
(261,527.249,cs),
(261,558.869,o),
(274,580,o),
(301.166,580,cs),
(327,580,o),
(338,560.89,o),
(338,532.034,cs),
(338,466.347,o),
(281,441.202,o),
(221,406,c)
);
},
{
closed = 1;
nodes = (
(362,352,l),
(474,410,o),
(512,462,o),
(512,538,cs),
(512,653,o),
(426,720,o),
(298,720,cs),
(174,720,o),
(87,657,o),
(87,556,cs),
(87,493,o),
(121,424,o),
(175,377,c),
(92,346,o),
(27,282,o),
(27,182,cs),
(27,55,o),
(130,-20,o),
(275,-20,cs),
(468,-20,o),
(579,114,o),
(642,206,c),
(536,312,l),
(456,188.356,o),
(386,120,o),
(299,120,cs),
(250,120,o),
(217,141.142,o),
(217,192.486,cs),
(217,224.703,o),
(230,255.912,o),
(250,269,c),
(476,0,l),
(657,0,l)
);
}
);
width = 664;
}
);
unicode = 38;
},
{
glyphname = degree;
layers = (
{
hints = (
{
place = (57,108);
type = Stem;
},
{
place = (321,107);
type = Stem;
},
{
horizontal = 1;
place = (390,84);
type = Stem;
},
{
horizontal = 1;
place = (635,84);
type = Stem;
}
);
layerId = "7E68ED66-4A14-482F-A6AB-3A68329E00A9";
shapes = (
{
closed = 1;
nodes = (
(57,458,o),
(140,390,o),
(248,390,cs),
(355,390,o),
(428,458,o),
(428,556,cs),
(428,653,o),
(357,719,o),
(248,719,cs),
(139,719,o),
(57,653,o),
(57,556,cs)
);
},
{
closed = 1;
nodes = (
(165,613,o),
(200,635,o),
(244,635,cs),
(288,635,o),
(321,613,o),
(321,555,cs),
(321,497,o),
(288,474,o),
(244,474,cs),
(199,474,o),
(165,497,o),
(165,555,cs)
);
}
);
width = 483;
}
);
unicode = 176;
},
{
glyphname = asciicircum;
layers = (
{
hints = (
{
horizontal = 1;
place = (779,-20);
target = down;
type = TopGhost;
}
);
layerId = "7E68ED66-4A14-482F-A6AB-3A68329E00A9";
shapes = (
{
closed = 1;
nodes = (
(50,520,l),
(98,520,l),
(257,739,l),
(417,519,l),
(465,519,l),
(303,779,l),
(211,779,l)
);
}
);
width = 515;
}
);
unicode = 94;
},
{
glyphname = bullet;
layers = (
{
hints = (
{
horizontal = 1;
place = (480,-20);
target = down;
type = TopGhost;
},
{
horizontal = 1;
place = (157,21);
target = up;
type = BottomGhost;
}
);
layerId = "7E68ED66-4A14-482F-A6AB-3A68329E00A9";
shapes = (
{
closed = 1;
nodes = (
(324,157,o),
(396,228,o),
(396,318,cs),
(396,408,o),
(324,480,o),
(234,480,cs),
(145,480,o),
(73,408,o),
(73,318,cs),
(73,228,o),
(145,157,o),
(234,157,cs)
);
}
);
width = 471;
}
);
unicode = 8226;
},
{
glyphname = summation;
layers = (
{
hints = (
{
horizontal = 1;
place = (-195,140);
type = Stem;
},
{
horizontal = 1;
place = (560,140);
type = Stem;
}
);
layerId = "7E68ED66-4A14-482F-A6AB-3A68329E00A9";
shapes = (
{
closed = 1;
nodes = (
(621,-126,l),
(621,14,l),
(299,14,l),
(567,288,l),
(299,560,l),
(621,560,l),
(621,700,l),
(30,700,l),
(30,581,l),
(315,289,l),
(30,-5,l),
(30,-126,l)
);
}
);
width = 662;
}
);
unicode = 8721;
},
{
glyphname = radical;
layers = (
{
hints = (
{
horizontal = 1;
place = (306,130);
type = Stem;
},
{
horizontal = 1;
place = (749,-20);
target = down;
type = TopGhost;
},
{
horizontal = 1;
place = (0,21);
target = up;
type = BottomGhost;
}
);
layerId = "7E68ED66-4A14-482F-A6AB-3A68329E00A9";
shapes = (
{
closed = 1;
nodes = (
(411,-126.004,l),
(719.67,825,l),
(519.67,825,l),
(316,69.996,l),
(261,308.996,l),
(1,308.996,l),
(1,165.996,l),
(108,165.996,l),
(220,-126.004,l)
);
}
);
width = 660;
}
);
unicode = 8730;
},
{
glyphname = fraction;
layers = (
{
hints = (
{
horizontal = 1;
place = (0,21);
target = up;
type = BottomGhost;
},
{
horizontal = 1;
place = (700,-20);
target = down;
type = TopGhost;
}
);
layerId = "7E68ED66-4A14-482F-A6AB-3A68329E00A9";
shapes = (
{
closed = 1;
nodes = (
(-90,0,l),
(-50,0,l),
(306,700,l),
(266,700,l)
);
}
);
width = 216;
}
);
unicode = 8260;
},
{
glyphname = ampersand.ss09;
layers = (
{
hints = (
{
place = (429,190);
type = Stem;
},
{
horizontal = 1;
place = (560,140);
type = Stem;
},
{
horizontal = 1;
place = (-20,21);
target = up;
type = BottomGhost;
},
{
horizontal = 1;
place = (0,21);
target = up;
type = BottomGhost;
}
);
layerId = "7E68ED66-4A14-482F-A6AB-3A68329E00A9";
shapes = (
{
closed = 1;
nodes = (
(479,560,l),
(479,700,l),
(240,700,ls),
(127,700,o),
(55,636,o),
(55,549,cs),
(55,472,o),
(111,430,o),
(157,379,c),
(64,339,o),
(16,270,o),
(16,177,cs),
(16,53,o),
(116,-20,o),
(285,-20,cs),
(495,-20,o),
(614,122,o),
(614,310,c),
(424,310,l),
(424,192,o),
(372,121,o),
(285,121,cs),
(235,121,o),
(205,152,o),
(205,202,cs),
(205,280,o),
(250,332,o),
(366,378,c),
(258,488,ls),
(224,523,o),
(238,560,o),
(290,560,cs)
);
},
{
closed = 1;
nodes = (
(392,156,l),
(548,0,l),
(666,0,l),
(666,94,l),
(510,250,l)
);
}
);
width = 660;
}
);
},
{
glyphname = g.ss03;
layers = (
{
anchors = (
{
name = top;
position = "{295, 520}";
},
{
name = bottom;
position = "{295, -220}";
}
);
hints = (
{
place = (42,150);
type = Stem;
},
{
place = (59,190);
type = Stem;
},
{
place = (361,190);
type = Stem;
},
{
place = (365,189);
type = Stem;
},
{
horizontal = 1;
place = (-220,130);
type = Stem;
},
{
horizontal = 1;
place = (-24,132);
type = Stem;
},
{
horizontal = 1;
place = (124,130);
type = Stem;
},
{
horizontal = 1;
place = (390,130);
type = Stem;
},
{
horizontal = 1;
place = (454,160);
type = Stem;
},
{
horizontal = 1;
place = (-220,187);
type = Stem;
}
);
layerId = "7E68ED66-4A14-482F-A6AB-3A68329E00A9";
shapes = (
{
closed = 1;
nodes = (
(432,124,o),
(531,206,o),
(531,322,cs),
(531,437,o),
(433,520,o),
(296,520,cs),
(157,520,o),
(59,435,o),
(59,319,cs),
(59,202,o),
(157,124,o),
(293,124,cs)
);
},
{
closed = 1;
nodes = (
(327,390,o),
(341,357,o),
(341,320,cs),
(341,283,o),
(327,254,o),
(295,254,cs),
(263,254,o),
(249,283,o),
(249,320,cs),
(249,357,o),
(263,390,o),
(295,390,cs)
);
},
{
closed = 1;
nodes = (
(253,-90,o),
(231,-70,o),
(229,-33,c),
(46,-33,l),
(56,-158,o),
(146,-220,o),
(315,-220,cs),
(469,-220,o),
(554,-168.679,o),
(554,-57.987,cs),
(554,43.648,o),
(482,100,o),
(289,100,cs),
(221,100,o),
(192,106.848,o),
(192,140.109,cs),
(192,161.63,o),
(204,177.283,o),
(235,190,c),
(194,247,l),
(86,208,o),
(42,167,o),
(42,97,cs),
(42,12,o),
(108,-20,o),
(251,-20,cs),
(335,-20,o),
(365,-31,o),
(365,-54,cs),
(365,-73,o),
(346,-90,o),
(301,-90,cs)
);
},
{
closed = 1;
nodes = (
(617,584,o),
(587,614,o),
(542,614,cs),
(477,614,o),
(420,550,o),
(409,435,c),
(450,414,l),
(455,462,o),
(471,491,o),
(484,502,c),
(490,475,o),
(518,454,o),
(549,454,cs),
(589,454,o),
(617,490,o),
(617,536,cs)
);
}
);
width = 590;
}
);
leftKerningGroup = a;
},
{
glyphname = y.ss04;
layers = (
{
anchors = (
{
name = bottom;
position = "{454, 0}";
},
{
name = top;
position = "{283, 520}";
}
);
hints = (
{
horizontal = 1;
place = (-220,130);
type = Stem;
},
{
horizontal = 1;
place = (500,-20);
target = down;
type = TopGhost;
}
);
layerId = "7E68ED66-4A14-482F-A6AB-3A68329E00A9";
shapes = (
{
closed = 1;
nodes = (
(218,-18,ls),
(203.624,-72.757,o),
(152,-85,o),
(113,-85,cs),
(98,-85,o),
(72,-82,o),
(53,-73,c),
(16,-198,l),
(63,-212,o),
(92,-221,o),
(164,-221,cs),
(283,-221,o),
(325,-168,o),
(356,-78,cs),
(555,500,l),
(354,500,l)
);
},
{
closed = 1;
nodes = (
(333,0,l),
(212,500,l),
(11,500,l),
(176,0,l)
);
}
);
width = 565;
}
);
leftKerningGroup = v;
rightKerningGroup = v1;
},
{
glyphname = n;
layers = (
{
anchors = (
{
name = top;
position = "{318, 520}";
},
{
name = bottom;
position = "{318, -20}";
}
);
hints = (
{
place = (59,190);
type = Stem;
},
{
place = (386,190);
type = Stem;
},
{
horizontal = 1;
place = (389,131);
type = Stem;
},
{
horizontal = 1;
place = (0,21);
target = up;
type = BottomGhost;
},
{
horizontal = 1;
place = (500,-20);
target = down;
type = TopGhost;
}
);
layerId = "7E68ED66-4A14-482F-A6AB-3A68329E00A9";
shapes = (
{
closed = 1;
nodes = (
(233,282,l),
(249,217,l),
(249,313.18,o),
(269,380,o),
(324,380,cs),
(364,380,o),
(386,344.815,o),
(386,267.407,cs),
(386,0,l),
(576,0,l),
(576,314,ls),
(576,458,o),
(508,520,o),
(414,520,cs),
(323,520,o),
(254,461,o),
(227,360,c)
);
},
{
closed = 1;
nodes = (
(59,0,l),
(249,0,l),
(249,500,l),
(59,500,l)
);
}
);
width = 635;
}
);
leftKerningGroup = i;
rightKerningGroup = h;
unicode = 110;
},
{
glyphname = Schwa;
layers = (
{
anchors = (
{
name = top;
position = "{390, 719}";
},
{
name = bottom;
position = "{390, -20}";
}
);
hints = (
{
horizontal = 1;
place = (-20,141);
type = Stem;
},
{
horizontal = 1;
place = (280,137);
type = Stem;
},
{
horizontal = 1;
place = (580,140);
type = Stem;
}
);
layerId = "7E68ED66-4A14-482F-A6AB-3A68329E00A9";
shapes = (
{
closed = 1;
nodes = (
(480,580,o),
(556,508.69,o),
(556,337.948,cs),
(556,195.328,o),
(503,120,o),
(390,120,cs),
(294,120,o),
(239,175,o),
(229,280,c),
(565,280,l),
(566,417,l),
(40,417,l),
(36,402,o),
(33,376,o),
(33,344,cs),
(33,125,o),
(170,-20,o),
(385,-20,cs),
(596,-20,o),
(746,119,o),
(746,354,cs),
(746,590,o),
(594,720,o),
(376,720,cs),
(235,720,o),
(139,665,o),
(85,599,c),
(191,493,l),
(245,553.698,o),
(296,580,o),
(365,580,cs)
);
}
);
width = 779;
}
);
leftKerningGroup = C1;
rightKerningGroup = C;
unicode = 399;
},
{
glyphname = schwa;
layers = (
{
anchors = (
{
name = top;
position = "{306, 520}";
},
{
name = bottom;
position = "{306, -20}";
}
);
hints = (
{
horizontal = 1;
place = (-20,127);
type = Stem;
},
{
horizontal = 1;
place = (184,114);
type = Stem;
},
{
horizontal = 1;
place = (390,130);
type = Stem;
}
);
layerId = "7E68ED66-4A14-482F-A6AB-3A68329E00A9";
shapes = (
{
closed = 1;
nodes = (
(231,179,l),
(235,135.746,o),
(266,110,o),
(305,110,cs),
(345,110,o),
(370,139,o),
(375,179,c)
);
},
{
closed = 1;
nodes = (
(240,390,o),
(184.865,371,o),
(155,342,c),
(67,430,l),
(123,486,o),
(193,520,o),
(295,520,cs),
(473,520,o),
(574,418,o),
(574,254,cs),
(574,90,o),
(473,-20,o),
(310,-20,cs),
(151,-20,o),
(49,85,o),
(49,249,cs),
(49,272,o),
(51,283,o),
(53,299,c),
(382,299,l),
(375.833,359,o),
(345,390,o),
(286,390,cs)
);
}
);
width = 613;
}
);
leftKerningGroup = a;
rightKerningGroup = b1;
unicode = 601;
},
{
glyphname = yen;
layers = (
{
hints = (
{
place = (238,190);
type = Stem;
},
{
horizontal = 1;
place = (700,-20);
target = down;
type = TopGhost;
},
{
horizontal = 1;
place = (0,21);
target = up;
type = BottomGhost;
}
);
layerId = "7E68ED66-4A14-482F-A6AB-3A68329E00A9";
shapes = (
{
closed = 1;
nodes = (
(130,182,l),
(130,87,l),
(533,87,l),
(533,182,l)
);
},
{
closed = 1;
nodes = (
(130,313,l),
(130,218,l),
(533,218,l),
(533,313,l)
);
},
{
alignment = -1;
ref = Y;
}
);
width = 662;
}
);
unicode = 165;
},
{
glyphname = G.ss03;
layers = (
{
anchors = (
{
name = bottom;
position = "{398, -19}";
},
{
name = top;
position = "{387, 719}";
}
);
hints = (
{
place = (33,191);
type = Stem;
},
{
place = (552,198);
type = Stem;
},
{
horizontal = 1;
place = (-20,141);
type = Stem;
},
{
horizontal = 1;
place = (260,131);
type = Stem;
},
{
horizontal = 1;
place = (579,141);
type = Stem;
}
);
layerId = "7E68ED66-4A14-482F-A6AB-3A68329E00A9";
shapes = (
{
closed = 1;
nodes = (
(291,580,o),
(224,496.638,o),
(224,348.996,cs),
(224,209.389,o),
(296,120,o),
(409,120,cs),
(492,120,o),
(542,185.468,o),
(542,260,c),
(381,260,l),
(381,390,l),
(740,390,l),
(740,320.17,ls),
(740,118.662,o),
(600,-20,o),
(396,-20,cs),
(186,-20,o),
(33,135,o),
(33,348,cs),
(33,558,o),
(179,720,o),
(387,720,cs),
(520,720,o),
(626,664,o),
(693,578,c),
(648,414,l),
(574,534.727,o),
(508,580,o),
(409,580,cs)
);
}
);
width = 773;
}
);
leftKerningGroup = C1;
rightKerningGroup = C;
},
{
glyphname = softhyphen;
layers = (
{
hints = (
{
horizontal = 1;
place = (262,34);
type = Stem;
}
);
layerId = "7E68ED66-4A14-482F-A6AB-3A68329E00A9";
shapes = (
{
closed = 1;
nodes = (
(50,262,l),
(414,262,l),
(414,296,l),
(50,296,l)
);
}
);
width = 464;
}
);
unicode = 173;
},
{
glyphname = lira;
layers = (
{
hints = (
{
place = (120,190);
type = Stem;
},
{
horizontal = 1;
place = (0,140);
type = Stem;
},
{
horizontal = 1;
place = (219,90);
type = Stem;
},
{
horizontal = 1;
place = (329,90);
type = Stem;
},
{
horizontal = 1;
place = (579,141);
type = Stem;
}
);
layerId = "7E68ED66-4A14-482F-A6AB-3A68329E00A9";
shapes = (
{
closed = 1;
nodes = (
(42,419,l),
(42,329,l),
(500,329,l),
(500,419,l)
);
},
{
closed = 1;
nodes = (
(42,309,l),
(42,219,l),
(500,219,l),
(500,309,l)
);
},
{
closed = 1;
nodes = (
(228,720,o),
(120,630,o),
(120,482,cs),
(120,244,ls),
(120,176,o),
(84,128,o),
(38,100,c),
(38,0,l),
(643,0,l),
(643,140,l),
(202,140,l),
(294,163,o),
(310,217.13,o),
(310,284.291,cs),
(310,468.733,ls),
(310,536.897,o),
(326,580,o),
(386,580,cs),
(431,580,o),
(481,555.721,o),
(541,493,c),
(647,599,l),
(573,689,o),
(477,720,o),
(385,720,cs)
);
}
);
width = 666;
}
);
unicode = 8356;
},
{
glyphname = austral;
layers = (
{
hints = (
{
horizontal = 1;
place = (0,246);
type = Stem;
},
{
horizontal = 1;
place = (163,83);
type = Stem;
},
{
horizontal = 1;
place = (282,83);
type = Stem;
},
{
horizontal = 1;
place = (700,-20);
target = down;
type = TopGhost;
}
);
layerId = "7E68ED66-4A14-482F-A6AB-3A68329E00A9";
shapes = (
{
closed = 1;
nodes = (
(13,133,l),
(705,133,l),
(705,216,l),
(13,216,l)
);
},
{
closed = 1;
nodes = (
(13,252,l),
(705,252,l),
(705,335,l),
(13,335,l)
);
},
{
alignment = -1;
pos = (31.5,0);
ref = Elcyr.ss08;
}
);
width = 718;
}
);
unicode = 8371;
},
{
glyphname = hryvnia;
layers = (
{
hints = (
{
place = (455,190);
type = Stem;
},
{
place = (102,189);
type = Stem;
},
{
horizontal = 1;
place = (-20,140);
type = Stem;
},
{
horizontal = 1;
place = (580,140);
type = Stem;
}
);
layerId = "7E68ED66-4A14-482F-A6AB-3A68329E00A9";
shapes = (
{
closed = 1;
nodes = (
(21,236,l),
(112.66,236,l),
(111.55,227.44,o),
(111,218.57,o),
(111,209.38,cs),
(111,61.13,o),
(208,-20,o),
(370,-20,cs),
(505,-20,o),
(596,37,o),
(648,101,c),
(542,207,l),
(492.2,150.34,o),
(445.4,120,o),
(386.64,120,cs),
(330.87,120,o),
(301,147.04,o),
(301,193.12,cs),
(301,212.24,o),
(306.3,225.62,o),
(318.05,236,c),
(713,236,l),
(713,312,l),
(21,312,l)
);
},
{
closed = 1;
nodes = (
(21,374,l),
(713,374,l),
(713,450,l),
(629.95,450,l),
(632.65,463.53,o),
(634,477.74,o),
(634,492.62,cs),
(634,632.85,o),
(539,720,o),
(383,720,cs),
(257,720,o),
(165,663,o),
(113,599,c),
(219,493,l),
(269,549.65,o),
(316,580,o),
(365,580,cs),
(417,580,o),
(444,546.94,o),
(444,500.86,cs),
(444,479.28,o),
(438.11,463.39,o),
(422.3,450,c),
(21,450,l)
);
}
);
width = 734;
}
);
unicode = 8372;
},
{
glyphname = turkishlira;
layers = (
{
hints = (
{
place = (124,190);
type = Stem;
},
{
place = (419,187);
type = Stem;
},
{
horizontal = 1;
place = (0,140);
type = Stem;
},
{
horizontal = 1;
place = (700,-20);
target = down;
type = TopGhost;
}
);
layerId = "7E68ED66-4A14-482F-A6AB-3A68329E00A9";
shapes = (
{
closed = 1;
nodes = (
(21,466,l),
(21,384,l),
(443,511,l),
(443,594,l)
);
},
{
closed = 1;
nodes = (
(21,329,l),
(21,247,l),
(443,374,l),
(443,457,l)
);
},
{
closed = 1;
nodes = (
(419,240,l),
(419,175,o),
(392,140,o),
(330,140,cs),
(314,140,l),
(314,700,l),
(124,700,l),
(124,0,l),
(303,0,ls),
(521,0,o),
(606,78,o),
(606,283,c)
);
}
);
width = 640;
}
);
unicode = 8378;
},
{
glyphname = manat;
layers = (
{
hints = (
{
place = (8,190);
type = Stem;
},
{
place = (350,142);
type = Stem;
},
{
place = (643,190);
type = Stem;
},
{
horizontal = 1;
place = (0,21);
target = up;
type = BottomGhost;
}
);
layerId = "7E68ED66-4A14-482F-A6AB-3A68329E00A9";
shapes = (
{
closed = 1;
nodes = (
(350,110,l),
(492,165,l),
(492,758,l),
(350,703,l)
);
},
{
closed = 1;
nodes = (
(192,602,o),
(33,444,o),
(33,214,cs),
(33,143,o),
(49,69,o),
(80,0,c),
(275,0,l),
(241,57,o),
(223,127,o),
(223,194,cs),
(223,354,o),
(303,462,o),
(424,462,cs),
(546,462,o),
(624,356,o),
(624,197,cs),
(624,129,o),
(606,58,o),
(571,0,c),
(761,0,l),
(795,75,o),
(813,154,o),
(813,230,cs),
(813,450,o),
(654,602,o),
(425,602,cs)
);
}
);
width = 846;
}
);
unicode = 8380;
},
{
glyphname = ruble;
layers = (
{
hints = (
{
place = (145,190);
type = Stem;
},
{
place = (491,190);
type = Stem;
},
{
horizontal = 1;
place = (82,80);
type = Stem;
},
{
horizontal = 1;
place = (212,140);
type = Stem;
},
{
horizontal = 1;
place = (560,140);
type = Stem;
},
{
horizontal = 1;
place = (0,21);
target = up;
type = BottomGhost;
}
);
layerId = "7E68ED66-4A14-482F-A6AB-3A68329E00A9";
shapes = (
{
closed = 1;
nodes = (
(335,0,l),
(335,560,l),
(382,560,ls),
(456,560,o),
(491,533,o),
(491,457,cs),
(491,383,o),
(457,352,o),
(382,352,cs),
(45,352,l),
(45,212,l),
(410,212,ls),
(574,212,o),
(681,310,o),
(681,459,cs),
(681,606,o),
(576,700,o),
(410,700,cs),
(145,700,l),
(145,0,l)
);
},
{
closed = 1;
nodes = (
(45,162,l),
(45,82,l),
(619,82,l),
(619,162,l)
);
}
);
width = 720;
}
);
unicode = 8381;
},
{
glyphname = Gecyr;
layers = (
{
anchors = (
{
name = top;
position = "{272, 719}";
},
{
name = bottom;
position = "{283, -20}";
}
);
hints = (
{
place = (68,190);
type = Stem;
},
{
horizontal = 1;
place = (559,141);
type = Stem;
},
{
horizontal = 1;
place = (0,21);
target = up;
type = BottomGhost;
}
);
layerId = "7E68ED66-4A14-482F-A6AB-3A68329E00A9";
shapes = (
{
closed = 1;
nodes = (
(258,0,l),
(258,560,l),
(502,560,l),
(502,700,l),
(68,700,l),
(68,0,l)
);
}
);
width = 544;
}
);
leftKerningGroup = B;
rightKerningGroup = F;
unicode = 1043;
},
{
glyphname = Kacyr;
layers = (
{
anchors = (
{
name = top;
position = "{320, 719}";
},
{
name = bottom;
position = "{320, -20}";
}
);
hints = (
{
place = (49,190);
type = Stem;
},
{
horizontal = 1;
place = (305,140);
type = Stem;
},
{
horizontal = 1;
place = (0,21);
target = up;
type = BottomGhost;
},
{
horizontal = 1;
place = (700,-20);
target = down;
type = TopGhost;
}
);
layerId = "7E68ED66-4A14-482F-A6AB-3A68329E00A9";
shapes = (
{
closed = 1;
nodes = (
(48,700,l),
(48,0,l),
(238,0,l),
(238,700,l)
);
},
{
closed = 1;
nodes = (
(197,305,l),
(407,305,ls),
(501,305,o),
(564,360,o),
(577,473,c),
(598,700,l),
(416,700,l),
(402,549,l),
(394,469,o),
(374,445,o),
(313,445,cs),
(197,445,l)
);
},
{
closed = 1;
nodes = (
(325,329,l),
(445,0,l),
(639,0,l),
(513,346,l)
);
}
);
width = 640;
}
);
leftKerningGroup = B;
rightKerningGroup = K;
unicode = 1050;
},
{
glyphname = kacyr;
layers = (
{
anchors = (
{
name = top;
position = "{288, 520}";
},
{
name = bottom;
position = "{288, -20}";
}
);
hints = (
{
place = (54,190);
type = Stem;
},
{
place = (244,96);
type = Stem;
},
{
horizontal = 1;
place = (0,21);
target = up;
type = BottomGhost;
},
{
horizontal = 1;
place = (500,-20);
target = down;
type = TopGhost;
}
);
layerId = "7E68ED66-4A14-482F-A6AB-3A68329E00A9";
shapes = (
{
closed = 1;
nodes = (
(54,500,l),
(54,0,l),
(244,0,l),
(244,500,l)
);
},
{
closed = 1;
nodes = (
(220,199,l),
(406,199,ls),
(486,199,o),
(520,255,o),
(531,337,c),
(548,500,l),
(369,500,l),
(358,391,l),
(352,337,o),
(339,332,o),
(303,332,cs),
(220,332,l)
);
},
{
closed = 1;
nodes = (
(289,235,l),
(391,0,l),
(586,0,l),
(478,247,l)
);
}
);
width = 588;
}
);
leftKerningGroup = i;
rightKerningGroup = k;
unicode = 1082;
},
{
glyphname = tshecyr;
layers = (
{
layerId = "7E68ED66-4A14-482F-A6AB-3A68329E00A9";
shapes = (
{
closed = 1;
nodes = (
(89,0,l),
(279,0,l),
(279,750,l),
(89,750,l)
);
},
{
closed = 1;
nodes = (
(263,262,l),
(279,197,l),
(279,292,o),
(299,358,o),
(354,358,cs),
(394,358,o),
(416,323,o),
(416,246,cs),
(416,0,l),
(606,0,l),
(606,294,ls),
(606,438,o),
(542,500,o),
(448,500,cs),
(357,500,o),
(288,441,o),
(261,340,c)
);
},
{
closed = 1;
nodes = (
(11,589,l),
(396,589,l),
(396,635,l),
(11,635,l)
);
}
);
width = 665;
}
);
leftKerningGroup = f;
rightKerningGroup = h;
unicode = 1115;
},
{
glyphname = Pecyr;
layers = (
{
anchors = (
{
name = bottom;
position = "{350, -20}";
},
{
name = top;
position = "{350, 719}";
}
);
hints = (
{
place = (68,191);
type = Stem;
},
{
place = (441,191);
type = Stem;
},
{
horizontal = 1;
place = (559,141);
type = Stem;
},
{
horizontal = 1;
place = (0,21);
target = up;
type = BottomGhost;
}
);
layerId = "7E68ED66-4A14-482F-A6AB-3A68329E00A9";
shapes = (
{
closed = 1;
nodes = (
(259,0,l),
(259,560,l),
(441,560,l),
(441,0,l),
(632,0,l),
(632,700,l),
(68,700,l),
(68,0,l)
);
}
);
width = 700;
}
);
leftKerningGroup = B;
rightKerningGroup = H;
unicode = 1055;
},
{
glyphname = djecyr;
layers = (
{
layerId = "7E68ED66-4A14-482F-A6AB-3A68329E00A9";
shapes = (
{
closed = 1;
nodes = (
(89,0,l),
(279,0,l),
(279,750,l),
(89,750,l)
);
},
{
closed = 1;
nodes = (
(263,262,l),
(279,197,l),
(279,292,o),
(299,358,o),
(354,358,cs),
(394,358,o),
(416,323,o),
(416,246,cs),
(416,0,l),
(606,0,l),
(606,294,ls),
(606,438,o),
(542,500,o),
(448,500,cs),
(357,500,o),
(288,441,o),
(261,340,c)
);
},
{
closed = 1;
nodes = (
(11,589,l),
(428,589,l),
(428,635,l),
(11,635,l)
);
},
{
closed = 1;
nodes = (
(606,199,l),
(416,199,l),
(416,3,ls),
(416,-63,o),
(410,-85,o),
(371,-85,cs),
(356,-85,o),
(340,-82,o),
(321,-73,c),
(284,-198,l),
(331,-212,o),
(355,-221,o),
(423,-221,cs),
(542,-221,o),
(606,-174,o),
(606,-68,cs)
);
}
);
width = 665;
}
);
leftKerningGroup = f;
rightKerningGroup = h;
unicode = 1106;
},
{
glyphname = Yucyr;
layers = (
{
anchors = (
{
name = top;
position = "{545, 719}";
}
);
hints = (
{
place = (318,191);
type = Stem;
},
{
place = (876,191);
type = Stem;
},
{
place = (68,190);
type = Stem;
},
{
horizontal = 1;
place = (-20,141);
type = Stem;
},
{
horizontal = 1;
place = (579,141);
type = Stem;
},
{
horizontal = 1;
place = (0,21);
target = up;
type = BottomGhost;
},
{
horizontal = 1;
place = (700,-20);
target = down;
type = TopGhost;
}
);
layerId = "7E68ED66-4A14-482F-A6AB-3A68329E00A9";
shapes = (
{
closed = 1;
nodes = (
(248,300,l),
(388,300,l),
(388,440,l),
(248,440,l)
);
},
{
alignment = -1;
pos = (295,0);
ref = O;
},
{
alignment = -1;
ref = I;
}
);
width = 1090;
}
);
leftKerningGroup = B;
rightKerningGroup = C;
unicode = 1070;
},
{
glyphname = Hardcyr;
layers = (
{
hints = (
{
place = (169,191);
type = Stem;
},
{
place = (504,191);
type = Stem;
},
{
horizontal = 1;
place = (0,140);
type = Stem;
},
{
horizontal = 1;
place = (308,141);
type = Stem;
},
{
horizontal = 1;
place = (559,141);
type = Stem;
},
{
place = (170,191);
type = Stem;
},
{
place = (505,191);
type = Stem;
},
{
horizontal = 1;
place = (680,-20);
target = down;
type = TopGhost;
}
);
layerId = "7E68ED66-4A14-482F-A6AB-3A68329E00A9";
shapes = (
{
closed = 1;
nodes = (
(21,700,l),
(21,559,l),
(194,559,l),
(227,694,l),
(227,700,l)
);
},
{
alignment = -1;
pos = (102,0);
ref = Softcyr;
}
);
width = 735;
}
);
rightKerningGroup = Ljecyr;
unicode = 1066;
},
{
glyphname = Shacyr;
layers = (
{
hints = (
{
place = (67,191);
type = Stem;
},
{
place = (390,190);
type = Stem;
},
{
place = (712,191);
type = Stem;
},
{
horizontal = 1;
place = (0,140);
type = Stem;
},
{
horizontal = 1;
place = (700,-20);
target = down;
type = TopGhost;
}
);
layerId = "7E68ED66-4A14-482F-A6AB-3A68329E00A9";
shapes = (
{
closed = 1;
nodes = (
(902,0,l),
(902,700,l),
(712,700,l),
(712,140,l),
(580,140,l),
(580,700,l),
(390,700,l),
(390,140,l),
(258,140,l),
(258,700,l),
(68,700,l),
(68,0,l)
);
}
);
width = 970;
}
);
leftKerningGroup = B;
rightKerningGroup = H;
unicode = 1064;
},
{
glyphname = Ereversedcyr;
layers = (
{
anchors = (
{
name = top;
position = "{330, 719}";
}
);
hints = (
{
place = (476,191);
type = Stem;
},
{
horizontal = 1;
place = (-20,140);
type = Stem;
},
{
horizontal = 1;
place = (579,141);
type = Stem;
}
);
layerId = "7E68ED66-4A14-482F-A6AB-3A68329E00A9";
shapes = (
{
closed = 1;
nodes = (
(551,288,l),
(196,288,l),
(196,428,l),
(551,428,l)
);
},
{
closed = 1;
nodes = (
(186,-20,o),
(102,25,o),
(33,102,c),
(139,208,l),
(194.668,147.864,o),
(243.377,124,o),
(302.027,124,cs),
(410.38,124,o),
(474,206.719,o),
(474,357.386,cs),
(474,499.19,o),
(417.338,576,o),
(306.997,576,cs),
(243.377,576,o),
(192.68,550.907,o),
(139,493,c),
(33,599,l),
(87,665,o),
(183,720,o),
(314,720,cs),
(529,720,o),
(667,572,o),
(667,361,cs),
(667,140,o),
(517,-20,o),
(301,-20,cs)
);
}
);
width = 694;
}
);
leftKerningGroup = C1;
rightKerningGroup = C;
unicode = 1069;
},
{
glyphname = Becyr;
layers = (
{
hints = (
{
place = (67,191);
type = Stem;
},
{
place = (402,191);
type = Stem;
},
{
horizontal = 1;
place = (0,140);
type = Stem;
},
{
horizontal = 1;
place = (308,141);
type = Stem;
},
{
horizontal = 1;
place = (559,141);
type = Stem;
},
{
place = (68,191);
type = Stem;
},
{
place = (403,191);
type = Stem;
},
{
horizontal = 1;
place = (700,-20);
target = down;
type = TopGhost;
}
);
layerId = "7E68ED66-4A14-482F-A6AB-3A68329E00A9";
shapes = (
{
closed = 1;
nodes = (
(118,559,l),
(545,559,l),
(545,700,l),
(85,700,l),
(85,694,l)
);
},
{
alignment = -1;
ref = Softcyr;
}
);
width = 633;
}
);
leftKerningGroup = B;
unicode = 1041;
},
{
glyphname = gecyr;
layers = (
{
anchors = (
{
name = top;
position = "{241, 520}";
},
{
name = bottom;
position = "{241, -20}";
}
);
hints = (
{
place = (54,190);
type = Stem;
},
{
horizontal = 1;
place = (369,131);
type = Stem;
},
{
horizontal = 1;
place = (0,21);
target = up;
type = BottomGhost;
}
);
layerId = "7E68ED66-4A14-482F-A6AB-3A68329E00A9";
shapes = (
{
closed = 1;
nodes = (
(54,0,l),
(244,0,l),
(244,367,l),
(438,367,l),
(438,500,l),
(54,500,l)
);
}
);
width = 441;
}
);
leftKerningGroup = i;
rightKerningGroup = r;
unicode = 1075;
},
{
glyphname = encyr;
layers = (
{
anchors = (
{
name = bottom;
position = "{306, -20}";
},
{
name = top;
position = "{306, 520}";
}
);
hints = (
{
place = (53,190);
type = Stem;
},
{
place = (371,190);
type = Stem;
},
{
horizontal = 1;
place = (185,130);
type = Stem;
},
{
horizontal = 1;
place = (0,21);
target = up;
type = BottomGhost;
},
{
horizontal = 1;
place = (500,-20);
target = down;
type = TopGhost;
}
);
layerId = "7E68ED66-4A14-482F-A6AB-3A68329E00A9";
shapes = (
{
closed = 1;
nodes = (
(243,0,l),
(243,204,l),
(371,204,l),
(371,0,l),
(561,0,l),
(561,500,l),
(371,500,l),
(371,334,l),
(243,334,l),
(243,500,l),
(53,500,l),
(53,0,l)
);
}
);
width = 613;
}
);
leftKerningGroup = i;
rightKerningGroup = a1;
unicode = 1085;
},
{
glyphname = pecyr;
layers = (
{
anchors = (
{
name = bottom;
position = "{309, -20}";
},
{
name = top;
position = "{309, 520}";
}
);
hints = (
{
place = (53,190);
type = Stem;
},
{
place = (376,190);
type = Stem;
},
{
horizontal = 1;
place = (370,130);
type = Stem;
},
{
horizontal = 1;
place = (0,21);
target = up;
type = BottomGhost;
}
);
layerId = "7E68ED66-4A14-482F-A6AB-3A68329E00A9";
shapes = (
{
closed = 1;
nodes = (
(243,0,l),
(243,370,l),
(376,370,l),
(376,0,l),
(566,0,l),
(566,500,l),
(53,500,l),
(53,0,l)
);
}
);
width = 618;
}
);
leftKerningGroup = i;
rightKerningGroup = a1;
unicode = 1087;
},
{
glyphname = icyr;
layers = (
{
anchors = (
{
name = top;
position = "{315, 520}";
},
{
name = bottom;
position = "{315, -20}";
}
);
hints = (
{
place = (60,190);
type = Stem;
},
{
place = (393,190);
type = Stem;
},
{
horizontal = 1;
place = (0,21);
target = up;
type = BottomGhost;
},
{
horizontal = 1;
place = (500,-20);
target = down;
type = TopGhost;
}
);
layerId = "7E68ED66-4A14-482F-A6AB-3A68329E00A9";
shapes = (
{
closed = 1;
nodes = (
(53,500,l),
(53,0,l),
(223,0,l),
(387,210,l),
(387,0,l),
(577,0,l),
(577,500,l),
(407,500,l),
(243,290,l),
(243,500,l)
);
}
);
width = 629;
}
);
leftKerningGroup = i;
rightKerningGroup = a1;
unicode = 1080;
},
{
glyphname = Njecyr;
layers = (
{
hints = (
{
place = (69,190);
type = Stem;
},
{
place = (479,190);
type = Stem;
},
{
horizontal = 1;
place = (280,140);
type = Stem;
},
{
horizontal = 1;
place = (0,21);
target = up;
type = BottomGhost;
},
{
horizontal = 1;
place = (700,-20);
target = down;
type = TopGhost;
}
);
layerId = "7E68ED66-4A14-482F-A6AB-3A68329E00A9";
shapes = (
{
closed = 1;
nodes = (
(69,0,l),
(259,0,l),
(259,280,l),
(447,280,l),
(447,0,l),
(637,0,l),
(637,700,l),
(447,700,l),
(447,420,l),
(259,420,l),
(259,700,l),
(69,700,l)
);
},
{
closed = 1;
nodes = (
(505,0,l),
(701,0,ls),
(890,0,o),
(951,86,o),
(951,203,cs),
(951,319,o),
(890,419,o),
(701,419,cs),
(525,419,l),
(540,279,l),
(652,279,ls),
(734,279,o),
(761,261,o),
(761,208,cs),
(761,156,o),
(735,140,o),
(652,140,cs),
(627,140,l),
(504,3,l)
);
}
);
width = 990;
}
);
leftKerningGroup = B;
rightKerningGroup = Ljecyr;
unicode = 1034;
},
{
glyphname = yucyr;
layers = (
{
anchors = (
{
name = bottom;
position = "{438, -20}";
},
{
name = top;
position = "{438, 520}";
}
);
hints = (
{
place = (310,190);
type = Stem;
},
{
place = (658,190);
type = Stem;
},
{
place = (53,190);
type = Stem;
},
{
horizontal = 1;
place = (-20,130);
type = Stem;
},
{
horizontal = 1;
place = (390,130);
type = Stem;
},
{
horizontal = 1;
place = (500,-20);
target = down;
type = TopGhost;
},
{
horizontal = 1;
place = (0,21);
target = up;
type = BottomGhost;
}
);
layerId = "7E68ED66-4A14-482F-A6AB-3A68329E00A9";
shapes = (
{
closed = 1;
nodes = (
(228,189,l),
(364,189,l),
(364,321,l),
(228,321,l)
);
},
{
closed = 1;
nodes = (
(300,79,o),
(407,-20,o),
(569,-20,cs),
(743,-20,o),
(838,79,o),
(838,255,cs),
(838,421,o),
(742,520,o),
(569,520,cs),
(406,520,o),
(300,421,o),
(300,255,cs)
);
},
{
closed = 1;
nodes = (
(648,163.643,o),
(621,120,o),
(569,120,cs),
(516,120,o),
(490,163.643,o),
(490,250.929,cs),
(490,337.286,o),
(515,380,o),
(569,380,cs),
(621,380,o),
(648,339.143,o),
(648,251.857,cs)
);
},
{
closed = 1;
nodes = (
(243,0,l),
(243,500,l),
(53,500,l),
(53,0,l)
);
}
);
width = 877;
}
);
leftKerningGroup = i;
rightKerningGroup = b1;
unicode = 1102;
},
{
glyphname = tecyr;
layers = (
{
anchors = (
{
name = bottom;
position = "{262, -20}";
},
{
name = top;
position = "{263, 520}";
}
);
hints = (
{
place = (168,190);
type = Stem;
},
{
horizontal = 1;
place = (370,130);
type = Stem;
},
{
horizontal = 1;
place = (0,21);
target = up;
type = BottomGhost;
}
);
layerId = "7E68ED66-4A14-482F-A6AB-3A68329E00A9";
shapes = (
{
closed = 1;
nodes = (
(17,500,l),
(17,370,l),
(168,370,l),
(168,0,l),
(358,0,l),
(358,370,l),
(509,370,l),
(509,500,l)
);
}
);
width = 525;
}
);
unicode = 1090;
},
{
glyphname = Checyr;
layers = (
{
anchors = (
{
name = top;
position = "{337, 719}";
}
);
hints = (
{
place = (60,191);
type = Stem;
},
{
place = (415,191);
type = Stem;
},
{
horizontal = 1;
place = (213,139);
type = Stem;
},
{
horizontal = 1;
place = (0,21);
target = up;
type = BottomGhost;
},
{
horizontal = 1;
place = (700,-20);
target = down;
type = TopGhost;
}
);
layerId = "7E68ED66-4A14-482F-A6AB-3A68329E00A9";
shapes = (
{
closed = 1;
nodes = (
(415,0,l),
(606,0,l),
(606,700,l),
(415,700,l)
);
},
{
closed = 1;
nodes = (
(60,700,l),
(60,414,ls),
(60,266,o),
(139,183,o),
(265,183,cs),
(380,183,o),
(445,251,o),
(459,348,c),
(416,474,l),
(416,378,o),
(382,322,o),
(322,322,cs),
(275,322,o),
(251,356,o),
(251,464,cs),
(251,700,l)
);
}
);
width = 674;
}
);
rightKerningGroup = H;
unicode = 1063;
},
{
glyphname = checyr;
layers = (
{
anchors = (
{
name = bottom;
position = "{298, -20}";
},
{
name = top;
position = "{298, 520}";
}
);
hints = (
{
place = (53,190);
type = Stem;
},
{
place = (353,190);
type = Stem;
},
{
horizontal = 1;
place = (146,131);
type = Stem;
},
{
horizontal = 1;
place = (0,21);
target = up;
type = BottomGhost;
},
{
horizontal = 1;
place = (500,-20);
target = down;
type = TopGhost;
}
);
layerId = "7E68ED66-4A14-482F-A6AB-3A68329E00A9";
shapes = (
{
closed = 1;
nodes = (
(353,0,l),
(543,0,l),
(543,500,l),
(353,500,l)
);
},
{
closed = 1;
nodes = (
(53,500,l),
(53,340,ls),
(53,212.044,o),
(121.902,141,o),
(230.819,141,cs),
(324,141,o),
(396,193,o),
(396,306,c),
(353,365,l),
(353,300,o),
(320,274,o),
(290,274,cs),
(257.576,274,o),
(243,294.469,o),
(243,340,cs),
(243,500,l)
);
}
);
width = 595;
}
);
rightKerningGroup = a1;
unicode = 1095;
},
{
glyphname = ereversedcyr;
layers = (
{
anchors = (
{
name = bottom;
position = "{301, -20}";
},
{
name = top;
position = "{281, 520}";
}
);
hints = (
{
place = (334,190);
type = Stem;
},
{
horizontal = 1;
place = (-20,130);
type = Stem;
},
{
horizontal = 1;
place = (390,130);
type = Stem;
}
);
layerId = "7E68ED66-4A14-482F-A6AB-3A68329E00A9";
shapes = (
{
closed = 1;
nodes = (
(424,194,l),
(150,194,l),
(150,308,l),
(424,308,l)
);
},
{
closed = 1;
nodes = (
(307,120,o),
(334,163.643,o),
(334,250.929,cs),
(334,337.286,o),
(311,380,o),
(236,380,cs),
(192,380,o),
(146,364.958,o),
(120,342,c),
(32,430,l),
(88,486,o),
(158,520,o),
(261,520,cs),
(424,520,o),
(524,421,o),
(524,255,cs),
(524,79,o),
(423,-20,o),
(261,-20,cs),
(156,-20,o),
(85,14,o),
(29,70,c),
(117,158,l),
(143,135.042,o),
(198,120,o),
(241,120,cs)
);
}
);
width = 563;
}
);
leftKerningGroup = zecyr;
rightKerningGroup = b1;
unicode = 1101;
},
{
glyphname = shacyr;
layers = (
{
hints = (
{
place = (53,190);
type = Stem;
},
{
place = (344,190);
type = Stem;
},
{
place = (636,190);
type = Stem;
},
{
horizontal = 1;
place = (0,131);
type = Stem;
},
{
horizontal = 1;
place = (500,-20);
target = down;
type = TopGhost;
}
);
layerId = "7E68ED66-4A14-482F-A6AB-3A68329E00A9";
shapes = (
{
closed = 1;
nodes = (
(827,0,l),
(827,500,l),
(637,500,l),
(637,132,l),
(535,132,l),
(535,500,l),
(345,500,l),
(345,132,l),
(243,132,l),
(243,500,l),
(53,500,l),
(53,0,l)
);
}
);
width = 879;
}
);
leftKerningGroup = i;
rightKerningGroup = a1;
unicode = 1096;
},
{
glyphname = Shchacyr;
layers = (
{
hints = (
{
place = (68,191);
type = Stem;
},
{
place = (392,190);
type = Stem;
},
{
place = (715,191);
type = Stem;
},
{
place = (882,156);
type = Stem;
},
{
horizontal = 1;
place = (0,140);
type = Stem;
},
{
horizontal = 1;
place = (700,-20);
target = down;
type = TopGhost;
},
{
horizontal = 1;
place = (-140,21);
target = up;
type = BottomGhost;
}
);
layerId = "7E68ED66-4A14-482F-A6AB-3A68329E00A9";
shapes = (
{
closed = 1;
nodes = (
(68,0,l),
(68,700,l),
(259,700,l),
(259,140,l),
(392,140,l),
(392,700,l),
(582,700,l),
(582,140,l),
(715,140,l),
(715,700,l),
(906,700,l),
(906,140,l),
(1006,140,o),
(1039,112,o),
(1039,-140,c),
(894,-140,l),
(894,-42,o),
(902,0,o),
(831,0,cs)
);
}
);
width = 1060;
}
);
leftKerningGroup = B;
unicode = 1065;
},
{
glyphname = Tsecyr;
layers = (
{
hints = (
{
place = (68,191);
type = Stem;
},
{
place = (416,191);
type = Stem;
},
{
place = (583,156);
type = Stem;
},
{
horizontal = 1;
place = (0,140);
type = Stem;
},
{
horizontal = 1;
place = (701,-20);
target = down;
type = TopGhost;
},
{
horizontal = 1;
place = (-140,21);
target = up;
type = BottomGhost;
}
);
layerId = "7E68ED66-4A14-482F-A6AB-3A68329E00A9";
shapes = (
{
closed = 1;
nodes = (
(530,0,ls),
(601,0,o),
(593,-42,o),
(593,-140,c),
(739,-140,l),
(739,112,o),
(707,140,o),
(607,140,c),
(607,701,l),
(416,701,l),
(416,140,l),
(259,140,l),
(259,701,l),
(68,701,l),
(68,0,l)
);
}
);
width = 760;
}
);
leftKerningGroup = B;
unicode = 1062;
},
{
glyphname = shchacyr;
layers = (
{
hints = (
{
place = (52,190);
type = Stem;
},
{
place = (345,190);
type = Stem;
},
{
place = (638,190);
type = Stem;
},
{
place = (813,136);
type = Stem;
},
{
horizontal = 1;
place = (0,129);
type = Stem;
},
{
horizontal = 1;
place = (500,-20);
target = down;
type = TopGhost;
},
{
horizontal = 1;
place = (-140,21);
target = up;
type = BottomGhost;
}
);
layerId = "7E68ED66-4A14-482F-A6AB-3A68329E00A9";
shapes = (
{
closed = 1;
nodes = (
(755,0,ls),
(823,0,o),
(808,-102,o),
(808,-140,c),
(947,-140,l),
(947,74,o),
(926,131,o),
(827,131,c),
(827,500,l),
(637,500,l),
(637,130,l),
(535,130,l),
(535,500,l),
(345,500,l),
(345,130,l),
(243,130,l),
(243,500,l),
(53,500,l),
(53,0,l)
);
}
);
width = 954;
}
);
leftKerningGroup = i;
rightKerningGroup = l;
unicode = 1097;
},
{
glyphname = tsecyr;
layers = (
{
hints = (
{
place = (55,190);
type = Stem;
},
{
place = (368,190);
type = Stem;
},
{
place = (543,136);
type = Stem;
},
{
horizontal = 1;
place = (0,130);
type = Stem;
},
{
horizontal = 1;
place = (500,-20);
target = down;
type = TopGhost;
},
{
horizontal = 1;
place = (-140,21);
target = up;
type = BottomGhost;
}
);
layerId = "7E68ED66-4A14-482F-A6AB-3A68329E00A9";
shapes = (
{
closed = 1;
nodes = (
(488,0,ls),
(555,0,o),
(541,-102,o),
(541,-140,c),
(679,-140,l),
(679,74,o),
(658,130,o),
(558,130,c),
(558,500,l),
(368,500,l),
(368,130,l),
(243,130,l),
(243,500,l),
(53,500,l),
(53,0,l)
);
}
);
width = 686;
}
);
leftKerningGroup = i;
rightKerningGroup = l;
unicode = 1094;
},
{
glyphname = Decyr;
layers = (
{
hints = (
{
place = (232,190);
type = Stem;
},
{
place = (520,191);
type = Stem;
},
{
place = (687,156);
type = Stem;
},
{
horizontal = 1;
place = (0,140);
type = Stem;
},
{
horizontal = 1;
place = (560,140);
type = Stem;
},
{
horizontal = 1;
place = (-140,21);
target = up;
type = BottomGhost;
}
);
layerId = "7E68ED66-4A14-482F-A6AB-3A68329E00A9";
shapes = (
{
closed = 1;
nodes = (
(360,560,l),
(520,560,l),
(520,140,l),
(332,140,l),
(407,218,o),
(423,313,o),
(423,682,c)
);
},
{
closed = 1;
nodes = (
(66,141,o),
(19,117,o),
(19,-140,c),
(165,-140,l),
(165,-47,o),
(162,0,o),
(221,0,cs),
(634,0,ls),
(705,0,o),
(697,-42,o),
(697,-140,c),
(843,-140,l),
(843,117,o),
(811,139,o),
(711,139,c),
(711,700,l),
(232,700,l),
(232,670,ls),
(232,299,o),
(219,201,o),
(151,141,c)
);
}
);
width = 864;
}
);
unicode = 1044;
},
{
glyphname = Elcyr;
layers = (
{
hints = (
{
place = (180,183);
type = Stem;
},
{
place = (503,190);
type = Stem;
},
{
horizontal = 1;
place = (-20,143);
type = Stem;
},
{
horizontal = 1;
place = (560,140);
type = Stem;
},
{
horizontal = 1;
place = (0,21);
target = up;
type = BottomGhost;
}
);
layerId = "7E68ED66-4A14-482F-A6AB-3A68329E00A9";
shapes = (
{
closed = 1;
nodes = (
(336,-20,o),
(370,64,o),
(370,560,c),
(502,560,l),
(502,0,l),
(692,0,l),
(692,700,l),
(180,700,l),
(180,197,o),
(173,125,o),
(118,125,cs),
(99,125,o),
(77,136,o),
(61,150,c),
(31,9,l),
(72,-9,o),
(108,-20,o),
(169,-20,cs)
);
}
);
width = 760;
}
);
rightKerningGroup = H;
unicode = 1051;
},
{
glyphname = elcyr;
layers = (
{
hints = (
{
place = (101,189);
type = Stem;
},
{
place = (357,190);
type = Stem;
},
{
horizontal = 1;
place = (-20,132);
type = Stem;
},
{
horizontal = 1;
place = (370,130);
type = Stem;
},
{
horizontal = 1;
place = (0,21);
target = up;
type = BottomGhost;
}
);
layerId = "7E68ED66-4A14-482F-A6AB-3A68329E00A9";
shapes = (
{
closed = 1;
nodes = (
(36,114,o),
(29,117,o),
(23,119,c),
(-4,-8,l),
(23,-15,o),
(57,-20,o),
(98,-20,cs),
(254,-20,o),
(291,64,o),
(291,368,c),
(357,368,l),
(357,0,l),
(547,0,l),
(547,500,l),
(102,500,l),
(102,203,o),
(94,114,o),
(49,114,cs)
);
}
);
width = 600;
}
);
rightKerningGroup = a1;
unicode = 1083;
},
{
glyphname = Efcyr;
layers = (
{
hints = (
{
place = (33,191);
type = Stem;
},
{
place = (323,190);
type = Stem;
},
{
place = (612,191);
type = Stem;
},
{
horizontal = 1;
place = (100,140);
type = Stem;
},
{
horizontal = 1;
place = (462,140);
type = Stem;
},
{
horizontal = 1;
place = (722,-20);
target = down;
type = TopGhost;
},
{
horizontal = 1;
place = (-20,21);
target = up;
type = BottomGhost;
}
);
layerId = "7E68ED66-4A14-482F-A6AB-3A68329E00A9";
shapes = (
{
closed = 1;
nodes = (
(323,-20,l),
(513,-20,l),
(513,60,l),
(676,60,o),
(803,180,o),
(803,353,cs),
(803,525,o),
(677,642,o),
(513,642,c),
(513,722,l),
(323,722,l),
(323,642,l),
(159,642,o),
(33,525,o),
(33,353,cs),
(33,180,o),
(160,60,o),
(323,60,c)
);
},
{
closed = 1;
nodes = (
(513,502,l),
(570,502,o),
(612,450,o),
(612,355,cs),
(612,258,o),
(569,200,o),
(513,200,c)
);
},
{
closed = 1;
nodes = (
(323,200,l),
(270,200,o),
(224,261,o),
(224,357,cs),
(224,449,o),
(267,502,o),
(323,502,c)
);
}
);
width = 836;
}
);
leftKerningGroup = C1;
rightKerningGroup = C;
unicode = 1060;
},
{
glyphname = Zecyr;
layers = (
{
anchors = (
{
name = bottom;
position = "{294, -20}";
},
{
name = top;
position = "{294, 719}";
}
);
hints = (
{
place = (365,193);
type = Stem;
},
{
place = (331,194);
type = Stem;
},
{
horizontal = 1;
place = (-20,140);
type = Stem;
},
{
horizontal = 1;
place = (579,141);
type = Stem;
}
);
layerId = "7E68ED66-4A14-482F-A6AB-3A68329E00A9";
shapes = (
{
closed = 1;
nodes = (
(241,295,l),
(316.6,303,o),
(368,268,o),
(368,210,cs),
(368,160,o),
(328.843,120,o),
(273.616,120,cs),
(228.43,120,o),
(175.211,146,o),
(124,208,c),
(18,102,l),
(87.87,24,o),
(162.731,-20,o),
(282.509,-20,cs),
(448.202,-20,o),
(558,64,o),
(558,194,cs),
(558,285,o),
(504.552,354,o),
(367,371,c),
(478.579,398,o),
(524,448,o),
(524,533,cs),
(524,653,o),
(432.182,720,o),
(294.455,720,cs),
(178.684,720,o),
(77.883,672,o),
(19,599,c),
(125,493,l),
(172.226,551.674,o),
(226.486,580,o),
(274.716,580,cs),
(318.928,580,o),
(334,556.847,o),
(334,523.627,cs),
(334,483.36,o),
(311.761,441.08,o),
(241,429,c)
);
}
);
width = 588;
}
);
rightKerningGroup = B1;
unicode = 1047;
},
{
glyphname = Ljecyr;
layers = (
{
hints = (
{
place = (180,183);
type = Stem;
},
{
place = (473,190);
type = Stem;
},
{
place = (785,190);
type = Stem;
},
{
horizontal = 1;
place = (-20,143);
type = Stem;
},
{
horizontal = 1;
place = (0,140);
type = Stem;
},
{
horizontal = 1;
place = (270,140);
type = Stem;
},
{
horizontal = 1;
place = (560,140);
type = Stem;
}
);
layerId = "7E68ED66-4A14-482F-A6AB-3A68329E00A9";
shapes = (
{
closed = 1;
nodes = (
(336,-20,o),
(368,64,o),
(368,560,c),
(472,560,l),
(472,0,l),
(662,0,l),
(662,700,l),
(180,700,l),
(180,217,o),
(173,125,o),
(118,125,cs),
(99,125,o),
(77,136,o),
(61,150,c),
(31,9,l),
(72,-9,o),
(108,-20,o),
(169,-20,cs)
);
},
{
closed = 1;
nodes = (
(529,0,l),
(725,0,ls),
(914,0,o),
(975,86,o),
(975,203,cs),
(975,319,o),
(914,410,o),
(725,410,cs),
(549,410,l),
(564,270,l),
(673,270,ls),
(763,270,o),
(785,248,o),
(785,204,cs),
(785,156,o),
(758,140,o),
(673,140,cs),
(657,140,l),
(528,3,l)
);
}
);
width = 1014;
}
);
rightKerningGroup = Ljecyr;
unicode = 1033;
},
{
glyphname = becyr;
layers = (
{
hints = (
{
place = (12,124);
type = Stem;
},
{
place = (391,190);
type = Stem;
},
{
horizontal = 1;
place = (-20,130);
type = Stem;
},
{
horizontal = 1;
place = (349,131);
type = Stem;
}
);
layerId = "7E68ED66-4A14-482F-A6AB-3A68329E00A9";
shapes = (
{
closed = 1;
nodes = (
(527,615,l),
(491.705,585,o),
(436.373,565.039,o),
(350.523,556,cs),
(217.923,542.039,o),
(175,504,o),
(173,393,c),
(198,440,o),
(256.408,480,o),
(350.243,480,cs),
(490.037,480,o),
(581,392,o),
(581,235,cs),
(581,74,o),
(484.041,-20,o),
(316.302,-20,cs),
(133.05,-20,o),
(39,92,o),
(39,340,cs),
(39,560,o),
(112.401,663.36,o),
(346.295,690,cs),
(419.698,698.36,o),
(477.717,714,o),
(527,749,c)
);
},
{
closed = 1;
nodes = (
(364.817,114,o),
(391,151,o),
(391,230,cs),
(391,311,o),
(363.011,346,o),
(311.549,346,cs),
(260.086,346,o),
(233,311,o),
(233,232,cs),
(233,151,o),
(261.891,114,o),
(313.354,114,cs)
);
}
);
width = 620;
}
);
leftKerningGroup = germandbls1;
rightKerningGroup = germandbls;
unicode = 1073;
},
{
glyphname = decyr;
layers = (
{
anchors = (
{
name = bottom;
position = "{409, -20}";
},
{
name = top;
position = "{410, 520}";
}
);
hints = (
{
place = (192,189);
type = Stem;
},
{
place = (451,190);
type = Stem;
},
{
place = (626,136);
type = Stem;
},
{
horizontal = 1;
place = (0,130);
type = Stem;
},
{
horizontal = 1;
place = (369,131);
type = Stem;
},
{
horizontal = 1;
place = (-140,21);
target = up;
type = BottomGhost;
}
);
layerId = "7E68ED66-4A14-482F-A6AB-3A68329E00A9";
shapes = (
{
closed = 1;
nodes = (
(160,-140,l),
(161,-107,o),
(147,0,o),
(206,0,cs),
(568,0,ls),
(639,0,o),
(620,-102,o),
(620,-140,c),
(759,-140,l),
(759,75,o),
(738,132,o),
(638,132,c),
(638,500,l),
(192,500,l),
(192,327,ls),
(192,192,o),
(179,163,o),
(155,134,c),
(55,134,o),
(21,80,o),
(21,-140,c)
);
},
{
closed = 1;
nodes = (
(289,133,l),
(379,148,o),
(382,224,o),
(382,366,c),
(448,366,l),
(448,133,l)
);
}
);
width = 780;
}
);
rightKerningGroup = l;
unicode = 1076;
},
{
glyphname = Tshecyr;
layers = (
{
hints = (
{
place = (150,190);
type = Stem;
},
{
place = (482,190);
type = Stem;
},
{
horizontal = 1;
place = (329,131);
type = Stem;
},
{
horizontal = 1;
place = (560,140);
type = Stem;
},
{
horizontal = 1;
place = (0,21);
target = up;
type = BottomGhost;
}
);
layerId = "7E68ED66-4A14-482F-A6AB-3A68329E00A9";
shapes = (
{
closed = 1;
nodes = (
(21,700,l),
(21,560,l),
(150,560,l),
(150,0,l),
(340,0,l),
(340,560,l),
(562,560,l),
(562,700,l)
);
},
{
closed = 1;
nodes = (
(693,0,l),
(693,256.526,ls),
(693,404.83,o),
(616,488,o),
(490,488,cs),
(375,488,o),
(310,419.766,o),
(296,322.433,c),
(340,196,l),
(340,302,o),
(373,348,o),
(433,348,cs),
(480,348,o),
(502,314,o),
(502,256,cs),
(502,0,l)
);
}
);
width = 752;
}
);
leftKerningGroup = T;
unicode = 1035;
},
{
glyphname = Djecyr;
layers = (
{
hints = (
{
place = (161,191);
type = Stem;
},
{
place = (540,191);
type = Stem;
},
{
horizontal = 1;
place = (331,135);
type = Stem;
},
{
horizontal = 1;
place = (560,140);
type = Stem;
},
{
horizontal = 1;
place = (0,21);
target = up;
type = BottomGhost;
}
);
layerId = "7E68ED66-4A14-482F-A6AB-3A68329E00A9";
shapes = (
{
closed = 1;
nodes = (
(540.5,285.787,o),
(513.356,331,o),
(461.08,331,cs),
(394.729,331,o),
(351.5,256,o),
(351.5,180,cs),
(351.5,0,l),
(161.5,0,l),
(162,560,l),
(21,560,l),
(21,700,l),
(564,700,l),
(564,560,l),
(351.5,560,l),
(351.5,380,l),
(383.458,424,o),
(433.32,466,o),
(519.084,466,cs),
(656.704,466,o),
(730.5,359,o),
(730.5,221,cs),
(730.5,78,o),
(650.626,-21,o),
(513.841,-21,cs,{name = dv01;}),
(472.906,-21,o),
(459.926,-12,o),
(413,2,c),
(450,132,l),
(469.106,122.25,o),
(484.189,119,o),
(494.244,119,cs),
(524.411,119,o),
(540.5,150.147,o),
(540.5,208.422,cs)
);
}
);
width = 770;
}
);
leftKerningGroup = T;
unicode = 1026;
},
{
glyphname = zecyr;
layers = (
{
anchors = (
{
name = top;
position = "{250, 520}";
},
{
name = bottom;
position = "{280, -20}";
}
);
hints = (
{
place = (261,188);
type = Stem;
},
{
place = (288,188);
type = Stem;
},
{
horizontal = 1;
place = (-20,130);
type = Stem;
},
{
horizontal = 1;
place = (390,130);
type = Stem;
}
);
layerId = "7E68ED66-4A14-482F-A6AB-3A68329E00A9";
shapes = (
{
closed = 1;
nodes = (
(147,-20,o),
(71,10,o),
(22,77,c),
(115,170,l),
(147,127,o),
(179,110,o),
(221,110,cs),
(260,110,o),
(285,124,o),
(285,160,cs),
(285,213,o),
(230,209,o),
(179,202,c),
(179,322,l),
(224,323,o),
(258,334,o),
(258,362,cs),
(258,379,o),
(245,390,o),
(215,390,cs),
(179,390,o),
(147,374,o),
(118,337,c),
(25,430,l),
(75,491,o),
(150,520,o),
(248,520,cs),
(394,520,o),
(446,456,o),
(446,385.125,cs),
(446,315.848,o),
(396.32,275,o),
(311,275,c),
(412.274,275,o),
(473,228.518,o),
(473,151,cs),
(473,57,o),
(388,-20,o),
(240,-20,cs)
);
}
);
width = 515;
}
);
leftKerningGroup = s1;
rightKerningGroup = s;
unicode = 1079;
},
{
glyphname = emcyr;
layers = (
{
hints = (
{
place = (54,190);
type = Stem;
},
{
place = (448,190);
type = Stem;
},
{
horizontal = 1;
place = (0,21);
target = up;
type = BottomGhost;
},
{
horizontal = 1;
place = (500,-20);
target = down;
type = TopGhost;
}
);
layerId = "7E68ED66-4A14-482F-A6AB-3A68329E00A9";
shapes = (
{
closed = 1;
nodes = (
(243,0,l),
(243,208,l),
(317,80,l),
(373,80,l),
(447,208,l),
(447,0,l),
(637,0,l),
(637,500,l),
(467,500,l),
(345,297,l),
(223,500,l),
(53,500,l),
(53,0,l)
);
}
);
width = 689;
}
);
leftKerningGroup = i;
rightKerningGroup = a1;
unicode = 1084;
},
{
glyphname = softcyr;
layers = (
{
anchors = (
{
name = bottom;
position = "{268, -20}";
},
{
name = top;
position = "{268, 520}";
}
);
hints = (
{
place = (55,190);
type = Stem;
},
{
place = (304,189);
type = Stem;
},
{
horizontal = 1;
place = (0,131);
type = Stem;
},
{
horizontal = 1;
place = (221,131);
type = Stem;
},
{
horizontal = 1;
place = (500,-20);
target = down;
type = TopGhost;
}
);
layerId = "7E68ED66-4A14-482F-A6AB-3A68329E00A9";
shapes = (
{
closed = 1;
nodes = (
(104,350,l),
(104,220,l),
(244.299,220,ls),
(276.139,220,o),
(304,213.864,o),
(304,176.023,cs),
(304,137.159,o),
(282.355,130,o),
(245.952,130,cs),
(243,130,l),
(243,500,l),
(53,500,l),
(53,0,l),
(298,0,ls),
(416,0,o),
(494,71.591,o),
(494,179.972,cs),
(494,283.381,o),
(417,350,o),
(296,350,cs)
);
}
);
width = 536;
}
);
leftKerningGroup = i;
rightKerningGroup = hardcyr;
unicode = 1100;
},
{
glyphname = hardcyr;
layers = (
{
hints = (
{
place = (113,190);
type = Stem;
},
{
place = (371,189);
type = Stem;
},
{
horizontal = 1;
place = (0,131);
type = Stem;
},
{
horizontal = 1;
place = (221,131);
type = Stem;
},
{
horizontal = 1;
place = (369,131);
type = Stem;
},
{
place = (119,190);
type = Stem;
},
{
place = (368,189);
type = Stem;
},
{
horizontal = 1;
place = (480,-20);
target = down;
type = TopGhost;
}
);
layerId = "7E68ED66-4A14-482F-A6AB-3A68329E00A9";
shapes = (
{
closed = 1;
nodes = (
(21,500,l),
(21,368,l),
(179,368,l),
(212,497,l),
(212,500,l)
);
},
{
alignment = -1;
pos = (64,0);
ref = softcyr;
}
);
width = 600;
}
);
rightKerningGroup = hardcyr;
unicode = 1098;
},
{
glyphname = vecyr;
layers = (
{
anchors = (
{
name = top;
position = "{273, 520}";
},
{
name = bottom;
position = "{273, -20}";
}
);
hints = (
{
place = (53,190);
type = Stem;
},
{
place = (293,181);
type = Stem;
},
{
place = (320,186);
type = Stem;
},
{
horizontal = 1;
place = (0,130);
type = Stem;
},
{
horizontal = 1;
place = (370,130);
type = Stem;
}
);
layerId = "7E68ED66-4A14-482F-A6AB-3A68329E00A9";
shapes = (
{
closed = 1;
nodes = (
(53,0,l),
(313,0,ls),
(423,0,o),
(504,61,o),
(504,151,cs),
(504,226,o),
(449,262,o),
(347,265,c),
(435,283,o),
(476,314,o),
(476,384,cs),
(476,465,o),
(421,500,o),
(287,500,cs),
(53,500,l)
);
},
{
closed = 1;
nodes = (
(243,130,l),
(243,370,l),
(259,370,ls),
(277,370,o),
(295,357.821,o),
(295,334.478,cs),
(295,313.164,o),
(279,302,o),
(258,302,cs),
(79,302,l),
(79,202,l),
(276,202,ls),
(306,202,o),
(322,188,o),
(322,168,cs),
(322,148,o),
(306,130,o),
(276,130,cs)
);
}
);
width = 546;
}
);
leftKerningGroup = i;
unicode = 1074;
},
{
glyphname = yacyr;
layers = (
{
anchors = (
{
name = bottom;
position = "{300, -20}";
},
{
name = top;
position = "{300, 520}";
}
);
hints = (
{
place = (57,190);
type = Stem;
},
{
place = (330,190);
type = Stem;
},
{
horizontal = 1;
place = (370,130);
type = Stem;
},
{
horizontal = 1;
place = (0,21);
target = up;
type = BottomGhost;
}
);
layerId = "7E68ED66-4A14-482F-A6AB-3A68329E00A9";
shapes = (
{
closed = 1;
nodes = (
(518,0,l),
(518,500,l),
(270,500,ls),
(125,500,o),
(55,442,o),
(55,343,cs),
(55,271,o),
(92,222,o),
(146,191,c),
(46,0,l),
(243,0,l),
(325,157,l),
(328,157,l),
(328,0,l)
);
},
{
closed = 1;
nodes = (
(328,289,l),
(312,289,ls),
(265,289,o),
(245,301.304,o),
(245,330.013,cs),
(245,357.696,o),
(265,370,o),
(312,370,cs),
(328,370,l)
);
}
);
width = 570;
}
);
rightKerningGroup = a1;
unicode = 1103;
},
{
glyphname = Geupcyr;
layers = (
{
hints = (
{
place = (67,191);
type = Stem;
},
{
place = (392,155);
type = Stem;
},
{
horizontal = 1;
place = (560,140);
type = Stem;
},
{
horizontal = 1;
place = (0,21);
target = up;
type = BottomGhost;
},
{
horizontal = 1;
place = (814,-20);
target = down;
type = TopGhost;
}
);
layerId = "7E68ED66-4A14-482F-A6AB-3A68329E00A9";
shapes = (
{
closed = 1;
nodes = (
(68,700,l),
(68,0,l),
(258,0,l),
(258,560,l),
(343,560,ls),
(513,560,o),
(547,613,o),
(547,814,c),
(402,814,l),
(402,720,o),
(385,700,o),
(350,700,cs)
);
}
);
width = 557;
}
);
leftKerningGroup = B;
rightKerningGroup = F;
unicode = 1168;
},
{
glyphname = geupcyr;
layers = (
{
hints = (
{
place = (70,190);
type = Stem;
},
{
place = (373,134);
type = Stem;
},
{
horizontal = 1;
place = (370,130);
type = Stem;
},
{
horizontal = 1;
place = (370,213);
type = Stem;
},
{
horizontal = 1;
place = (0,21);
target = up;
type = BottomGhost;
}
);
layerId = "7E68ED66-4A14-482F-A6AB-3A68329E00A9";
shapes = (
{
closed = 1;
nodes = (
(324,500,ls),
(376,500,o),
(374,601,o),
(374,638,c),
(507,638,l),
(507,419,o),
(482,368,o),
(377,368,cs),
(243,368,l),
(243,0,l),
(53,0,l),
(53,500,l)
);
}
);
width = 510;
}
);
leftKerningGroup = i;
rightKerningGroup = r;
unicode = 1169;
},
{
glyphname = Dzhecyr;
layers = (
{
hints = (
{
place = (68,191);
type = Stem;
},
{
place = (424,191);
type = Stem;
},
{
horizontal = 1;
place = (0,141);
type = Stem;
},
{
horizontal = 1;
place = (700,-20);
target = down;
type = TopGhost;
},
{
horizontal = 1;
place = (-158,21);
target = up;
type = BottomGhost;
}
);
layerId = "7E68ED66-4A14-482F-A6AB-3A68329E00A9";
shapes = (
{
closed = 1;
nodes = (
(270,0,l),
(282,-38,o),
(283,-119,o),
(272,-158,c),
(417,-158,l),
(430,-105,o),
(429,-52,o),
(413,0,c),
(615,0,l),
(615,700,l),
(424,700,l),
(424,141,l),
(259,141,l),
(259,700,l),
(68,700,l),
(68,0,l)
);
}
);
width = 683;
}
);
leftKerningGroup = B;
rightKerningGroup = H;
unicode = 1039;
},
{
glyphname = dzhecyr;
layers = (
{
hints = (
{
place = (53,190);
type = Stem;
},
{
place = (363,190);
type = Stem;
},
{
horizontal = 1;
place = (500,-20);
target = down;
type = TopGhost;
},
{
horizontal = 1;
place = (0,21);
target = up;
type = BottomGhost;
},
{
horizontal = 1;
place = (-141,21);
target = up;
type = BottomGhost;
}
);
layerId = "7E68ED66-4A14-482F-A6AB-3A68329E00A9";
shapes = (
{
closed = 1;
nodes = (
(239,0,l),
(254,-42,o),
(252,-97,o),
(243,-141,c),
(373,-141,l),
(389,-88,o),
(385,-52,o),
(367,0,c),
(553,0,l),
(553,500,l),
(363,500,l),
(363,133,l),
(243,133,l),
(243,500,l),
(53,500,l),
(53,0,l)
);
}
);
width = 605;
}
);
leftKerningGroup = i;
rightKerningGroup = a1;
unicode = 1119;
},
{
glyphname = tau;
layers = (
{
anchors = (
{
name = topgr;
position = "{210, 520}";
}
);
hints = (
{
place = (105,190);
type = Stem;
},
{
place = (105,246);
type = Stem;
},
{
horizontal = 1;
place = (0,130);
type = Stem;
},
{
horizontal = 1;
place = (500,-20);
target = down;
type = TopGhost;
},
{
horizontal = 1;
place = (480,-20);
target = down;
type = TopGhost;
}
);
layerId = "7E68ED66-4A14-482F-A6AB-3A68329E00A9";
shapes = (
{
closed = 1;
nodes = (
(22,500,l),
(22,370,l),
(392,370,l),
(392,500,l)
);
},
{
alignment = -1;
pos = (52,0);
ref = iota;
}
);
width = 421;
}
);
rightKerningGroup = l;
unicode = 964;
},
{
glyphname = gamma;
layers = (
{
anchors = (
{
name = topgr;
position = "{272, 520}";
}
);
hints = (
{
place = (176,190);
type = Stem;
},
{
horizontal = 1;
place = (500,-20);
target = down;
type = TopGhost;
},
{
horizontal = 1;
place = (-200,21);
target = up;
type = BottomGhost;
}
);
layerId = "7E68ED66-4A14-482F-A6AB-3A68329E00A9";
shapes = (
{
closed = 1;
nodes = (
(176,-200,l),
(366,-200,l),
(366,78,l),
(345,-40,l),
(542,500,l),
(340,500,l),
(259,195,l),
(284,195,l),
(203,500,l),
(1,500,l),
(198,-40,l),
(176,78,l)
);
}
);
width = 543;
}
);
leftKerningGroup = v;
rightKerningGroup = v1;
unicode = 947;
},
{
glyphname = Sigma;
layers = (
{
hints = (
{
horizontal = 1;
place = (0,140);
type = Stem;
},
{
horizontal = 1;
place = (560,140);
type = Stem;
}
);
layerId = "7E68ED66-4A14-482F-A6AB-3A68329E00A9";
shapes = (
{
closed = 1;
nodes = (
(528,0,l),
(528,140,l),
(284,140,l),
(473,350,l),
(284,560,l),
(528,560,l),
(528,700,l),
(31,700,l),
(31,580,l),
(238,350,l),
(31,120,l),
(31,0,l)
);
}
);
width = 570;
}
);
unicode = 931;
},
{
glyphname = Xi;
layers = (
{
hints = (
{
horizontal = 1;
place = (0,140);
type = Stem;
},
{
horizontal = 1;
place = (281,136);
type = Stem;
},
{
horizontal = 1;
place = (560,140);
type = Stem;
}
);
layerId = "7E68ED66-4A14-482F-A6AB-3A68329E00A9";
shapes = (
{
closed = 1;
nodes = (
(45,560,l),
(548,560,l),
(548,700,l),
(45,700,l)
);
},
{
closed = 1;
nodes = (
(45,140,l),
(45,0,l),
(548,0,l),
(548,140,l)
);
},
{
closed = 1;
nodes = (
(493,281,l),
(493,417,l),
(101,417,l),
(101,281,l)
);
}
);
width = 593;
}
);
rightKerningGroup = E;
unicode = 926;
},
{
glyphname = iota;
layers = (
{
anchors = (
{
name = topgr;
position = "{147, 520}";
}
);
hints = (
{
place = (53,190);
type = Stem;
},
{
place = (53,246);
type = Stem;
},
{
horizontal = 1;
place = (0,130);
type = Stem;
},
{
horizontal = 1;
place = (500,-20);
target = down;
type = TopGhost;
}
);
layerId = "7E68ED66-4A14-482F-A6AB-3A68329E00A9";
shapes = (
{
closed = 1;
nodes = (
(226,0,ls),
(107,0,o),
(53,47,o),
(53,153,cs),
(53,500,l),
(243,500,l),
(243,210,ls),
(243,148,o),
(262,133,o),
(299,133,c),
(299,0,l)
);
}
);
width = 310;
}
);
leftKerningGroup = i;
rightKerningGroup = l;
unicode = 953;
},
{
glyphname = Psi;
layers = (
{
anchors = (
{
name = topgr;
position = "{442, 720}";
}
);
hints = (
{
place = (60,190);
type = Stem;
},
{
place = (347,188);
type = Stem;
},
{
place = (633,190);
type = Stem;
},
{
horizontal = 1;
place = (701,-20);
target = down;
type = TopGhost;
},
{
horizontal = 1;
place = (0,21);
target = up;
type = BottomGhost;
}
);
layerId = "7E68ED66-4A14-482F-A6AB-3A68329E00A9";
shapes = (
{
closed = 1;
nodes = (
(346,0,l),
(536,0,l),
(536,700,l),
(346,700,l)
);
},
{
closed = 1;
nodes = (
(60,701,l),
(60,432,ls),
(60,258,o),
(211,150,o),
(441,150,cs),
(671,150,o),
(823,258,o),
(823,432,cs),
(823,701,l),
(633,701,l),
(633,431,ls),
(633,338,o),
(564,290,o),
(444,290,cs),
(318,290,o),
(250,336,o),
(250,431,cs),
(250,701,l)
);
}
);
width = 883;
}
);
unicode = 936;
},
{
glyphname = ae.ss02;
layers = (
{
hints = (
{
place = (46,190);
type = Stem;
},
{
place = (334,190);
type = Stem;
},
{
place = (371,187);
type = Stem;
},
{
horizontal = 1;
place = (-20,130);
type = Stem;
},
{
horizontal = 1;
place = (390,130);
type = Stem;
},
{
horizontal = 1;
place = (0,21);
target = up;
type = BottomGhost;
},
{
horizontal = 1;
place = (-20,131);
type = Stem;
},
{
horizontal = 1;
place = (212,111);
type = Stem;
}
);
layerId = "7E68ED66-4A14-482F-A6AB-3A68329E00A9";
shapes = (
{
closed = 1;
nodes = (
(355.48,520,o),
(411.15,505.51,o),
(451.14,479.4,c),
(494.4,505.86,o),
(547.54,520,o),
(607,520,cs),
(794.46,520,o),
(899.47,390.7,o),
(878,209,c),
(534,209,l),
(534,149.66,o),
(572.77,120,o),
(639.908,120,cs),
(690.971,120,o),
(735.414,135.04,o),
(760,158,c),
(848,70,l),
(793.751,14,o),
(726.909,-20,o),
(630.036,-20,cs),
(527.588,-20,o),
(445.295,18.199,o),
(395.541,87.125,c),
(357.017,11.22,o),
(302.644,-20,o),
(228.353,-20,cs),
(117.908,-20,o),
(49,49,o),
(49,146,cs),
(49,243,o),
(118.332,312,o),
(213.926,312,cs),
(273.772,312,o),
(319.52,285.2,o),
(344,237.79,c),
(344,325,ls),
(344,374,o),
(317.243,390,o),
(273.362,390,cs),
(225.2,390,o),
(173.827,371,o),
(146,342,c),
(58,430,l),
(114,486,o),
(184,520,o),
(288,520,cs)
);
},
{
closed = 1;
nodes = (
(691,329,l),
(687.313,367,o),
(661.506,390,o),
(615.422,390,cs),
(569.337,390,o),
(538,367,o),
(534,329,c)
);
},
{
closed = 1;
nodes = (
(239,126,o),
(255.095,114,o),
(287.285,114,cs),
(322.279,114,o),
(338.88,128.34,o),
(343.9,154.94,c),
(333.22,170.79,o),
(312.559,182,o),
(285.402,182,cs),
(257.561,182,o),
(239,171,o),
(239,148,cs)
);
}
);
width = 904;
}
);
leftKerningGroup = a.ss02;
},
{
glyphname = upsilon;
layers = (
{
anchors = (
{
name = topgr;
position = "{283, 520}";
}
);
hints = (
{
place = (53,190);
type = Stem;
},
{
place = (379,190);
type = Stem;
},
{
horizontal = 1;
place = (-20,130);
type = Stem;
},
{
horizontal = 1;
place = (500,-20);
target = down;
type = TopGhost;
}
);
layerId = "7E68ED66-4A14-482F-A6AB-3A68329E00A9";
shapes = (
{
closed = 1;
nodes = (
(53,500,l),
(53,185,ls),
(53,57,o),
(152,-20,o),
(304,-20,cs),
(479,-20,o),
(569,81,o),
(569,257,cs),
(569,349,o),
(544,434,o),
(502,500,c),
(318,500,l),
(353,429,o),
(379,352,o),
(379,252,cs),
(379,165,o),
(359,114,o),
(304,114,cs),
(260,114,o),
(243,146,o),
(243,251,cs),
(243,500,l)
);
}
);
width = 608;
}
);
leftKerningGroup = i;
rightKerningGroup = b1;
unicode = 965;
},
{
glyphname = delta;
layers = (
{
anchors = (
{
name = topgr;
position = "{308, 721}";
}
);
hints = (
{
place = (29,190);
type = Stem;
},
{
place = (78,173);
type = Stem;
},
{
place = (397,190);
type = Stem;
},
{
horizontal = 1;
place = (-20,130);
type = Stem;
},
{
horizontal = 1;
place = (570,130);
type = Stem;
}
);
layerId = "7E68ED66-4A14-482F-A6AB-3A68329E00A9";
shapes = (
{
closed = 1;
nodes = (
(39,82,o),
(143,-20,o),
(309,-20,cs),
(470,-20,o),
(577,75,o),
(577,226,cs),
(577,376,o),
(471,467,o),
(310,467,cs),
(142,467,o),
(39,369,o),
(39,226,cs)
);
},
{
closed = 1;
nodes = (
(387,149,o),
(362,114,o),
(311,114,cs),
(256,114,o),
(229,154,o),
(229,226,cs),
(229,297,o),
(255,333,o),
(309,333,cs),
(362,333,o),
(387,297,o),
(387,223,cs)
);
},
{
closed = 1;
nodes = (
(291,574,o),
(308,590,o),
(342,590,cs),
(379,590,o),
(423,571,o),
(449,552,c),
(537,640,l),
(482,686,o),
(413,720,o),
(315,720,cs),
(183,720,o),
(101,658,o),
(101,576,cs),
(101,501,o),
(168,449,o),
(290,438,c),
(439,443,l),
(338,480,o),
(291,516,o),
(291,552,cs)
);
}
);
width = 616;
}
);
leftKerningGroup = germandbls1;
rightKerningGroup = germandbls;
unicode = 948;
},
{
glyphname = sigmafinal;
layers = (
{
anchors = (
{
name = topgr;
position = "{295, 520}";
}
);
hints = (
{
place = (29,190);
type = Stem;
},
{
place = (362,188);
type = Stem;
},
{
horizontal = 1;
place = (390,130);
type = Stem;
},
{
horizontal = 1;
place = (-205,21);
target = up;
type = BottomGhost;
}
);
layerId = "7E68ED66-4A14-482F-A6AB-3A68329E00A9";
shapes = (
{
closed = 1;
nodes = (
(267,390,o),
(219,356.846,o),
(219,252.473,cs),
(219,165.161,o),
(252,110,o),
(353,110,cs),
(484,110,o),
(551,33.248,o),
(551,-62.444,cs),
(551,-127.235,o),
(522.667,-176.077,o),
(501.889,-200,c),
(330,-200,l),
(354,-165,o),
(374,-142,o),
(374,-99,cs),
(374,-49,o),
(345.943,-20,o),
(273.202,-20,cs),
(132.916,-20,o),
(29,89,o),
(29,258,cs),
(29,425,o),
(127,520,o),
(306,520,cs),
(405,520,o),
(481,491,o),
(531,430,c),
(443,342,l),
(420,375,o),
(376,390,o),
(336,390,cs)
);
}
);
width = 590;
}
);
leftKerningGroup = a;
unicode = 962;
},
{
glyphname = theta;
layers = (
{
anchors = (
{
name = topgr;
position = "{322, 721}";
}
);
hints = (
{
place = (39,192);
type = Stem;
},
{
place = (414,191);
type = Stem;
},
{
horizontal = 1;
place = (-20,130);
type = Stem;
},
{
horizontal = 1;
place = (289,120);
type = Stem;
},
{
horizontal = 1;
place = (590,130);
type = Stem;
}
);
layerId = "7E68ED66-4A14-482F-A6AB-3A68329E00A9";
shapes = (
{
closed = 1;
nodes = (
(39,115,o),
(143,-20,o),
(324,-20,cs),
(503,-20,o),
(605,114,o),
(605,348,cs),
(605,581,o),
(500,720,o),
(324,720,cs),
(146,720,o),
(39,580,o),
(39,348,cs)
);
},
{
closed = 1;
nodes = (
(261,120,o),
(229,196.667,o),
(229,347.089,cs),
(229,504.304,o),
(259,580,o),
(324,580,cs),
(387,580,o),
(415,508.186,o),
(415,347.089,cs),
(415,189.873,o),
(387,120,o),
(324,120,cs)
);
},
{
closed = 1;
nodes = (
(191,289,l),
(454,289,l),
(454,412,l),
(191,412,l)
);
}
);
width = 644;
}
);
leftKerningGroup = germandbls1;
rightKerningGroup = germandbls;
unicode = 952;
},
{
glyphname = sigma;
layers = (
{
anchors = (
{
name = ogonek;
position = "{420, -3}";
},
{
name = bottom;
position = "{308, -20}";
},
{
name = topgr;
position = "{308, 520}";
}
);
layerId = "7E68ED66-4A14-482F-A6AB-3A68329E00A9";
shapes = (
{
closed = 1;
nodes = (
(39,75.333,o),
(146,-20,o),
(308,-20,cs),
(482,-20,o),
(577,75.333,o),
(577,244.815,cs),
(577,404.667,o),
(481,500,o),
(308,500,cs),
(145,500,o),
(39,404.667,o),
(39,244.815,cs)
);
},
{
closed = 1;
nodes = (
(387,156.841,o),
(360,114.815,o),
(308,114.815,cs),
(255,114.815,o),
(229,156.841,o),
(229,240.894,cs),
(229,324.053,o),
(254,365.185,o),
(308,365.185,cs),
(360,365.185,o),
(387,325.841,o),
(387,241.788,cs)
);
},
{
closed = 1;
nodes = (
(304,500,l),
(344,370,l),
(645,370,l),
(645,500,l)
);
}
);
width = 648;
}
);
leftKerningGroup = a;
unicode = 963;
},
{
glyphname = chi;
layers = (
{
anchors = (
{
name = topgr;
position = "{323, 520}";
}
);
hints = (
{
horizontal = 1;
place = (-219,130);
type = Stem;
},
{
horizontal = 1;
place = (390,130);
type = Stem;
},
{
horizontal = 1;
place = (-200,21);
target = up;
type = BottomGhost;
},
{
horizontal = 1;
place = (500,-20);
target = down;
type = TopGhost;
}
);
layerId = "7E68ED66-4A14-482F-A6AB-3A68329E00A9";
shapes = (
{
closed = 1;
nodes = (
(629,-85,l),
(523.656,-85,o),
(475.818,-27.571,o),
(425.346,159.484,cs),
(357.313,411.624,o),
(238.166,520,o),
(29,520,c),
(29,386,l),
(137.512,386,o),
(188.174,325.826,o),
(237.72,138.091,cs),
(305.299,-117.972,o),
(415.999,-219,o),
(629,-219,c)
);
},
{
closed = 1;
nodes = (
(11,-200,l,{name = ab01;}),
(220,-200,l),
(634,500,l,{name = at01;}),
(425,500,l)
);
}
);
width = 646;
}
);
unicode = 967;
},
{
glyphname = lambda;
layers = (
{
anchors = (
{
name = topgr;
position = "{300, 721}";
}
);
layerId = "7E68ED66-4A14-482F-A6AB-3A68329E00A9";
shapes = (
{
closed = 1;
nodes = (
(303,316,l),
(196,500,l),
(4,0,l),
(197,0,l)
);
},
{
closed = 1;
nodes = (
(146,612,o),
(170.681,562.906,o),
(194,484,cs),
(280,193,ls),
(334.076,10.022,o),
(403,-20,o),
(483,-20,cs),
(524,-20,o),
(554,-12,o),
(600,3,c),
(573,133,l),
(555,123.25,o),
(545,120,o),
(533,120,cs),
(512,120,o),
(483.645,129.926,o),
(462,203.263,cs),
(364,535.314,ls),
(319.622,685.679,o),
(259,752,o),
(141,752,cs),
(106,752,o),
(70,745.739,o),
(14,728,c),
(52,604,l),
(69,610,o),
(85,612,o),
(95,612,cs)
);
}
);
width = 600;
}
);
unicode = 955;
},
{
glyphname = zeta;
layers = (
{
anchors = (
{
name = topgr;
position = "{280, 721}";
}
);
hints = (
{
place = (24,187);
type = Stem;
},
{
place = (313,189);
type = Stem;
},
{
horizontal = 1;
place = (570,130);
type = Stem;
},
{
horizontal = 1;
place = (-200,21);
target = up;
type = BottomGhost;
}
);
layerId = "7E68ED66-4A14-482F-A6AB-3A68329E00A9";
shapes = (
{
closed = 1;
nodes = (
(445,111,o),
(521,39,o),
(521,-62,cs),
(521,-127,o),
(492.667,-176,o),
(471.889,-200,c),
(300,-200,l),
(324,-165,o),
(344,-142,o),
(344,-99,cs),
(344,-45,o),
(314.686,-20,o),
(250.823,-20,cs),
(126.238,-20,o),
(54,79,o),
(54,212,cs),
(54,349,o),
(126,463,o),
(286,570,c),
(39,570,l),
(39,700,l),
(502,700,l),
(502,580,l),
(358,492,o),
(244,346,o),
(244,206,cs),
(244,146,o),
(264,111,o),
(343,111,cs)
);
}
);
width = 560;
}
);
leftKerningGroup = germandbls1;
rightKerningGroup = germandbls;
unicode = 950;
},
{
glyphname = xi;
layers = (
{
hints = (
{
place = (29,189);
type = Stem;
},
{
place = (65,190);
type = Stem;
},
{
place = (320,187);
type = Stem;
},
{
horizontal = 1;
place = (606,130);
type = Stem;
},
{
horizontal = 1;
place = (-205,21);
target = up;
type = BottomGhost;
}
);
layerId = "7E68ED66-4A14-482F-A6AB-3A68329E00A9";
shapes = (
{
closed = 1;
nodes = (
(62,570,l),
(62,700,l),
(435,700,l),
(435,570,l)
);
},
{
closed = 1;
nodes = (
(449,111,o),
(516,34,o),
(516,-62,cs),
(516,-127,o),
(487.667,-176,o),
(466.889,-200,c),
(295,-200,l),
(319,-165,o),
(339,-142,o),
(339,-99,cs),
(339,-49,o),
(310.818,-20,o),
(235.667,-20,cs),
(111.458,-20,o),
(29,50.442,o),
(29,156.984,cs),
(29,258.244,o),
(95,319,o),
(227,324,c),
(114,342,o),
(65,384.414,o),
(65,455.793,cs),
(65,591.31,o),
(278,642,o),
(418,642,c),
(434,570,l),
(322,570,o),
(255,535.192,o),
(255,473.533,cs),
(255,416.846,o),
(311,389,o),
(433,386,c),
(433,256,l),
(297,256,o),
(218,223.335,o),
(218,166.769,cs),
(218,130.121,o),
(255,111,o),
(323,111,cs)
);
}
);
width = 529;
}
);
leftKerningGroup = germandbls1;
rightKerningGroup = germandbls;
unicode = 958;
},
{
glyphname = f_f;
layers = (
{
layerId = "7E68ED66-4A14-482F-A6AB-3A68329E00A9";
shapes = (
{
closed = 1;
nodes = (
(89,370,l),
(89,0,l),
(279,0,l),
(279,370,l),
(405,370,l),
(405,500,l),
(279,500,l),
(279,541,ls),
(279,578,o),
(295,612,o),
(338,612,cs),
(349,612,o),
(366,610,o),
(383,604,c),
(421,728,l),
(364,745.739,o),
(326,752,o),
(287,752,cs),
(158,752,o),
(89,684.733,o),
(89,568.271,cs),
(89,500,l),
(12,500,l),
(12,370,l)
);
},
{
closed = 1;
nodes = (
(466,370,l),
(466,0,l),
(656,0,l),
(656,370,l),
(782,370,l),
(782,500,l),
(656,500,l),
(656,541,ls),
(656,578,o),
(672,612,o),
(715,612,cs),
(726,612,o),
(743,610,o),
(760,604,c),
(798,728,l),
(741,745.739,o),
(703,752,o),
(664,752,cs),
(535,752,o),
(466,684.733,o),
(466,568.271,cs),
(466,500,l),
(389,500,l),
(389,370,l)
);
}
);
width = 800;
}
);
leftKerningGroup = f;
rightKerningGroup = f1;
unicode = 64256;
},
{
glyphname = dieresistonos;
layers = (
{
anchors = (
{
name = topgr;
position = "{166, 688}";
},
{
name = _topgr;
position = "{166, 500}";
}
);
hints = (
{
place = (-14,126);
type = Stem;
},
{
place = (222,126);
type = Stem;
},
{
horizontal = 1;
place = (578,127);
type = Stem;
},
{
horizontal = 1;
place = (578,170);
type = Stem;
}
);
layerId = "7E68ED66-4A14-482F-A6AB-3A68329E00A9";
shapes = (
{
closed = 1;
nodes = (
(143,708,l),
(109,538,l),
(189,538,l),
(243,708,l)
);
},
{
closed = 1;
nodes = (
(330.342,550.507,o),
(350.176,577.552,o),
(350.176,608.204,cs),
(350.176,638.856,o),
(330.342,665,o),
(294.281,665,cs),
(256.417,665,o),
(236.584,634.348,o),
(236.584,608.204,cs),
(236.584,582.06,o),
(256.417,550.507,o),
(294.281,550.507,cs)
);
},
{
closed = 1;
nodes = (
(77.583,550.507,o),
(97.416,577.552,o),
(97.416,608.204,cs),
(97.416,638.856,o),
(77.583,665,o),
(41.522,665,cs),
(3.658,665,o),
(-16.176,634.348,o),
(-16.176,608.204,cs),
(-16.176,582.06,o),
(3.658,550.507,o),
(41.522,550.507,cs)
);
}
);
width = 333;
}
);
unicode = 901;
},
{
glyphname = anoteleia;
layers = (
{
hints = (
{
place = (19,139);
type = Stem;
},
{
horizontal = 1;
place = (373,136);
type = Stem;
}
);
layerId = "7E68ED66-4A14-482F-A6AB-3A68329E00A9";
shapes = (
{
closed = 1;
nodes = (
(29,407,o),
(72,361,o),
(131,361,cs),
(189,361,o),
(233,407,o),
(233,464,cs),
(233,521,o),
(189,565,o),
(131,565,cs),
(72,565,o),
(29,521,o),
(29,464,cs)
);
}
);
width = 262;
}
);
unicode = 903;
},
{
glyphname = caron.salt;
layers = (
{
anchors = (
{
name = _topright;
position = "{0, 700}";
}
);
hints = (
{
horizontal = 1;
place = (540,160);
type = Stem;
}
);
layerId = "7E68ED66-4A14-482F-A6AB-3A68329E00A9";
shapes = (
{
closed = 1;
nodes = (
(-5,540,l),
(85,540,l),
(140,700,l),
(30,700,l)
);
}
);
width = 135;
}
);
},
{
glyphname = dotlessi;
layers = (
{
anchors = (
{
name = top;
position = "{136, 520}";
},
{
name = bottom;
position = "{136, -20}";
},
{
name = ogonek;
position = "{225, -2}";
}
);
hints = (
{
place = (41,190);
type = Stem;
},
{
horizontal = 1;
place = (500,-20);
target = down;
type = TopGhost;
},
{
horizontal = 1;
place = (0,21);
target = up;
type = BottomGhost;
}
);
layerId = "7E68ED66-4A14-482F-A6AB-3A68329E00A9";
shapes = (
{
closed = 1;
nodes = (
(231,0,l),
(231,500,l),
(41,500,l),
(41,0,l)
);
}
);
width = 272;
}
);
leftKerningGroup = i;
unicode = 305;
},
{
glyphname = trademark;
layers = (
{
hints = (
{
place = (150,151);
type = Stem;
},
{
place = (458,141);
type = Stem;
},
{
place = (852,141);
type = Stem;
},
{
horizontal = 1;
place = (600,100);
type = Stem;
},
{
horizontal = 1;
place = (248,21);
target = up;
type = BottomGhost;
}
);
layerId = "7E68ED66-4A14-482F-A6AB-3A68329E00A9";
shapes = (
{
closed = 1;
nodes = (
(21,700,l),
(21,605,l),
(160,605,l),
(160,248,l),
(291,248,l),
(291,605,l),
(430,605,l),
(430,700,l)
);
},
{
closed = 1;
nodes = (
(594,448,l),
(669,248,l),
(761,248,l),
(846,448,l),
(846,248,l),
(977,248,l),
(977,700,l),
(856,700,l),
(715,383,l),
(584,700,l),
(463,700,l),
(463,248,l),
(594,248,l)
);
}
);
width = 1016;
}
);
unicode = 8482;
},
{
glyphname = M.ss01;
layers = (
{
anchors = (
{
name = top;
position = "{435, 719}";
},
{
name = bottom;
position = "{435, -20}";
}
);
hints = (
{
place = (68,190);
type = Stem;
},
{
place = (612,190);
type = Stem;
},
{
horizontal = 1;
place = (700,-20);
target = down;
type = TopGhost;
},
{
horizontal = 1;
place = (0,21);
target = up;
type = BottomGhost;
}
);
layerId = "7E68ED66-4A14-482F-A6AB-3A68329E00A9";
shapes = (
{
closed = 1;
nodes = (
(258,398,l),
(416,124,l),
(454,124,l),
(612,398,l),
(612,0,l),
(802,0,l),
(802,700,l),
(622,700,l),
(435,376,l),
(248,700,l),
(68,700,l),
(68,0,l),
(258,0,l)
);
}
);
width = 870;
}
);
leftKerningGroup = B;
rightKerningGroup = H;
},
{
glyphname = a.ss02;
layers = (
{
anchors = (
{
name = top;
position = "{290, 520}";
},
{
name = bottom;
position = "{280, -20}";
},
{
name = ogonek;
position = "{514, -3}";
}
);
hints = (
{
place = (46,190);
type = Stem;
},
{
place = (334,190);
type = Stem;
},
{
horizontal = 1;
place = (-20,130);
type = Stem;
},
{
horizontal = 1;
place = (390,130);
type = Stem;
},
{
horizontal = 1;
place = (0,21);
target = up;
type = BottomGhost;
}
);
layerId = "7E68ED66-4A14-482F-A6AB-3A68329E00A9";
shapes = (
{
closed = 1;
nodes = (
(239,126,o),
(253,114,o),
(281,114,cs),
(322,114,o),
(334,140,o),
(333,187,c),
(346,110,l),
(329,28,o),
(278,-20,o),
(204,-20,cs),
(115,-20,o),
(49,49,o),
(49,146,cs),
(49,243,o),
(115,312,o),
(206,312,cs),
(279,312,o),
(330,268,o),
(347,193,c),
(342,124,l),
(339,154,o),
(316,182,o),
(279,182,cs),
(255,182,o),
(239,171,o),
(239,148,cs)
);
},
{
closed = 1;
nodes = (
(431,520,o),
(521,455,o),
(521,352,cs),
(521,0,l),
(331,0,l),
(331,325,ls),
(331,374,o),
(306,390,o),
(265,390,cs),
(220,390,o),
(172,371,o),
(146,342,c),
(58,430,l),
(114,486,o),
(184,520,o),
(288,520,cs)
);
}
);
width = 580;
}
);
leftKerningGroup = a.ss02;
rightKerningGroup = a.ss021;
},
{
glyphname = u.ss05;
layers = (
{
anchors = (
{
name = bottom;
position = "{300, -20}";
},
{
name = top;
position = "{300, 520}";
},
{
name = ogonek;
position = "{540, -3}";
}
);
hints = (
{
place = (53,190);
type = Stem;
},
{
place = (354,190);
type = Stem;
},
{
horizontal = 1;
place = (-20,131);
type = Stem;
},
{
horizontal = 1;
place = (500,-20);
target = down;
type = TopGhost;
},
{
horizontal = 1;
place = (0,21);
target = up;
type = BottomGhost;
}
);
layerId = "7E68ED66-4A14-482F-A6AB-3A68329E00A9";
shapes = (
{
closed = 1;
nodes = (
(373,213,l),
(357,283,l),
(357,173.366,o),
(333,110,o),
(289,110,cs),
(256,110,o),
(243,147.095,o),
(243,248.355,cs),
(243,500,l),
(53,500,l),
(53,196,ls),
(53,58,o),
(115,-20,o),
(217,-20,cs),
(297,-20,o),
(350,29,o),
(375,121,c)
);
},
{
closed = 1;
nodes = (
(547,500,l),
(357,500,l),
(357,0,l),
(547,0,l)
);
}
);
width = 600;
}
);
leftKerningGroup = u;
rightKerningGroup = a1;
},
{
glyphname = Q.ss06;
layers = (
{
anchors = (
{
name = top;
position = "{398, 719}";
},
{
name = bottom;
position = "{398, -20}";
},
{
name = ogonek;
position = "{522, -2}";
}
);
hints = (
{
place = (23,191);
type = Stem;
},
{
place = (581,191);
type = Stem;
},
{
horizontal = 1;
place = (-20,141);
type = Stem;
},
{
horizontal = 1;
place = (579,141);
type = Stem;
}
);
layerId = "7E68ED66-4A14-482F-A6AB-3A68329E00A9";
shapes = (
{
closed = 1;
nodes = (
(303.503,121,l),
(334.503,154,o),
(359.503,162,o),
(377.982,162,cs),
(419.147,162,o),
(434.526,116.652,o),
(453.724,60.045,cs),
(485.604,-33.954,o),
(528.013,-159,o),
(716.503,-159,c),
(716.503,-19,l),
(630.142,-19,o),
(610.996,40.179,o),
(591.601,100.128,cs),
(571.695,161.658,o),
(551.525,224,o),
(458.148,224,cs),
(368.503,224,o),
(316.503,176,o),
(295.503,129,c)
);
},
{
alignment = -1;
ref = O;
}
);
width = 795;
}
);
leftKerningGroup = C1;
rightKerningGroup = C;
},
{
glyphname = J.ss07;
layers = (
{
anchors = (
{
name = top;
position = "{245, 719}";
},
{
name = bottom;
position = "{162, -109}";
}
);
hints = (
{
place = (149,191);
type = Stem;
},
{
horizontal = 1;
place = (-144,140);
type = Stem;
},
{
horizontal = 1;
place = (700,-20);
target = down;
type = TopGhost;
}
);
layerId = "7E68ED66-4A14-482F-A6AB-3A68329E00A9";
shapes = (
{
closed = 1;
nodes = (
(20,-144,l),
(255,-144,o),
(340,-61,o),
(340,168,cs),
(339.5,700,l),
(149.5,700,l),
(149.5,154,ls),
(149.5,17,o),
(109,-4,o),
(20,-4,c)
);
}
);
width = 400;
}
);
leftKerningGroup = J;
rightKerningGroup = J1;
},
{
glyphname = R.ss08;
layers = (
{
anchors = (
{
name = top;
position = "{323, 719}";
},
{
name = bottom;
position = "{323, -20}";
}
);
hints = (
{
place = (69,190);
type = Stem;
},
{
place = (399,191);
type = Stem;
},
{
horizontal = 1;
place = (244,140);
type = Stem;
},
{
horizontal = 1;
place = (560,140);
type = Stem;
},
{
horizontal = 1;
place = (0,21);
target = up;
type = BottomGhost;
}
);
layerId = "7E68ED66-4A14-482F-A6AB-3A68329E00A9";
shapes = (
{
closed = 1;
nodes = (
(258,0,l),
(258,244,l),
(343,244,ls),
(501,244,o),
(602,334,o),
(602,474,cs),
(602,618,o),
(511,700,o),
(350,700,cs),
(68,700,l),
(68,0,l)
);
},
{
closed = 1;
nodes = (
(258,384,l),
(258,560,l),
(301,560,ls),
(376,560,o),
(411,534,o),
(411,472,cs),
(411,410,o),
(379,384,o),
(301,384,cs)
);
},
{
closed = 1;
nodes = (
(275,244,l),
(328,242,o),
(379,232,o),
(400,183,cs),
(417,143,o),
(400,60,o),
(415,0,c),
(608,0,l),
(590,56,o),
(608,171,o),
(583,222,cs),
(558,273,o),
(516,279,o),
(420,305,c)
);
}
);
width = 645;
}
);
leftKerningGroup = B;
rightKerningGroup = R;
},
{
glyphname = C.ss09;
layers = (
{
anchors = (
{
name = bottom;
position = "{407, -19}";
},
{
name = top;
position = "{387, 719}";
}
);
hints = (
{
place = (33,191);
type = Stem;
},
{
horizontal = 1;
place = (-20,141);
type = Stem;
},
{
horizontal = 1;
place = (485,235);
type = Stem;
},
{
horizontal = 1;
place = (579,141);
type = Stem;
}
);
layerId = "7E68ED66-4A14-482F-A6AB-3A68329E00A9";
shapes = (
{
closed = 1;
nodes = (
(293,120,o),
(224,215.415,o),
(224,356.026,cs),
(224,496.638,o),
(293,580,o),
(403,580,cs),
(470,580,o),
(519,546,o),
(539,485,c),
(730,485,l),
(686,623,o),
(581,720,o),
(400,720,cs),
(183,720,o),
(33,565,o),
(33,357,cs),
(33,146,o),
(187,-20,o),
(402,-20,cs),
(588,-20,o),
(708,103,o),
(740,261,c),
(549,261,l),
(527,170,o),
(474,120,o),
(397,120,cs)
);
}
);
width = 773;
}
);
leftKerningGroup = C1;
rightKerningGroup = C;
},
{
glyphname = c.ss09;
layers = (
{
anchors = (
{
name = top;
position = "{316, 520}";
},
{
name = bottom;
position = "{346, -20}";
}
);
hints = (
{
place = (39,190);
type = Stem;
},
{
horizontal = 1;
place = (-20,131);
type = Stem;
},
{
horizontal = 1;
place = (331,189);
type = Stem;
},
{
horizontal = 1;
place = (389,131);
type = Stem;
},
{
horizontal = 1;
place = (-20,187);
type = Stem;
}
);
layerId = "7E68ED66-4A14-482F-A6AB-3A68329E00A9";
shapes = (
{
closed = 1;
nodes = (
(462,-20,o),
(555,49,o),
(570,167,c),
(386,167,l),
(378,135,o),
(363,110,o),
(318,110,cs),
(262,110,o),
(229,166.403,o),
(229,254.029,cs),
(229,341.655,o),
(264,390,o),
(319,390,cs),
(356,390,o),
(382,371,o),
(388,331,c),
(572,331,l),
(549,452,o),
(459,520,o),
(320,520,cs),
(148,520,o),
(39,401,o),
(39,255,cs),
(39,100,o),
(148,-20,o),
(319,-20,cs)
);
}
);
width = 611;
}
);
leftKerningGroup = a;
rightKerningGroup = b1;
},
{
glyphname = C.ss10;
layers = (
{
anchors = (
{
name = bottom;
position = "{407, -19}";
},
{
name = top;
position = "{387, 719}";
}
);
hints = (
{
place = (38,191);
type = Stem;
},
{
horizontal = 1;
place = (-20,141);
type = Stem;
},
{
horizontal = 1;
place = (579,141);
type = Stem;
}
);
layerId = "7E68ED66-4A14-482F-A6AB-3A68329E00A9";
shapes = (
{
closed = 1;
nodes = (
(293.2,120,o),
(223,214.41,o),
(223,356.026,cs),
(223,490.611,o),
(285,580,o),
(409,580,cs),
(498,580,o),
(576,534.727,o),
(648,414,c),
(693,578,l),
(628,664,o),
(524,720,o),
(394,720,cs),
(181,720,o),
(33,570,o),
(33,357,cs),
(33,130.8,o),
(181,-20,o),
(403,-20,cs),
(531,-20,o),
(637,36,o),
(702,122,c),
(657,286,l),
(585,165.273,o),
(505,120,o),
(418,120,cs)
);
}
);
width = 735;
}
);
leftKerningGroup = C1;
rightKerningGroup = C;
},
{
glyphname = c.ss10;
layers = (
{
anchors = (
{
name = top;
position = "{316, 520}";
},
{
name = bottom;
position = "{316, -20}";
}
);
hints = (
{
place = (39,191);
type = Stem;
},
{
horizontal = 1;
place = (-20,130);
type = Stem;
},
{
horizontal = 1;
place = (390,130);
type = Stem;
}
);
layerId = "7E68ED66-4A14-482F-A6AB-3A68329E00A9";
shapes = (
{
closed = 1;
nodes = (
(420,-20,o),
(512,18,o),
(546,70,c),
(503,220,l),
(449,139,o),
(405,110,o),
(336,110,cs),
(272,110,o),
(230,165,o),
(230,249,cs),
(230,334,o),
(272,390,o),
(336,390,cs),
(405,390,o),
(449,361,o),
(503,280,c),
(546,430,l),
(512,482,o),
(420,520,o),
(329,520,cs),
(156,520,o),
(39,413,o),
(39,255,cs),
(39,89,o),
(154,-20,o),
(329,-20,cs)
);
}
);
width = 585;
}
);
leftKerningGroup = a;
rightKerningGroup = b1;
},
{
glyphname = S.ss09;
layers = (
{
anchors = (
{
name = top;
position = "{279, 719}";
},
{
name = bottom;
position = "{294, -20}";
}
);
hints = (
{
place = (26,190);
type = Stem;
},
{
place = (367,191);
type = Stem;
},
{
horizontal = 1;
place = (-20,140);
type = Stem;
},
{
horizontal = 1;
place = (502,218);
type = Stem;
},
{
horizontal = 1;
place = (579,141);
type = Stem;
},
{
horizontal = 1;
place = (-20,218);
type = Stem;
}
);
layerId = "7E68ED66-4A14-482F-A6AB-3A68329E00A9";
shapes = (
{
closed = 1;
nodes = (
(26,198,l),
(48.084,73,o),
(128.389,-20,o),
(296.025,-20,cs),
(460.65,-20,o),
(553,70.15,o),
(553,202.371,cs),
(553,343.41,o),
(441.623,383.737,o),
(348.475,417.464,cs),
(281.53,441.703,o),
(224,462.534,o),
(224,514.891,cs),
(224,553.957,o),
(245,580,o),
(281,580,cs),
(319,580,o),
(337,550,o),
(347,502,c),
(538,502,l),
(516,627,o),
(439,720,o),
(279,720,cs),
(121,720,o),
(34,629.85,o),
(34,507.646,cs),
(34,359.538,o),
(147.268,317.299,o),
(240.883,282.389,cs),
(306.816,257.802,o),
(363,236.851,o),
(363,185.109,cs),
(363,146.043,o),
(336.641,120,o),
(294.062,120,cs),
(248.441,120,o),
(227.152,150,o),
(216,198,c)
);
}
);
width = 590;
}
);
leftKerningGroup = S1;
rightKerningGroup = S;
},
{
glyphname = s.ss09;
layers = (
{
anchors = (
{
name = bottom;
position = "{265, -20}";
},
{
name = top;
position = "{245, 520}";
}
);
hints = (
{
place = (20,190);
type = Stem;
},
{
place = (303,190);
type = Stem;
},
{
horizontal = 1;
place = (-20,131);
type = Stem;
},
{
horizontal = 1;
place = (351,169);
type = Stem;
},
{
horizontal = 1;
place = (389,131);
type = Stem;
},
{
horizontal = 1;
place = (-20,177);
type = Stem;
}
);
layerId = "7E68ED66-4A14-482F-A6AB-3A68329E00A9";
shapes = (
{
closed = 1;
nodes = (
(286,117.117,o),
(273,110,o),
(254,110,cs),
(229,110,o),
(213,124.342,o),
(213,150,c),
(30,150,l),
(40,31.302,o),
(138,-20,o),
(259,-20,cs),
(393,-20,o),
(474,43,o),
(474,150,cs),
(474,244,o),
(412,309,o),
(271,327,cs),
(252,329,o),
(220,332.05,o),
(220,362.55,cs),
(220,379.833,o),
(231,390,o),
(252,390,cs),
(278,390,o),
(288,372.564,o),
(291,350,c),
(474,350,l),
(467,460.651,o),
(368,520,o),
(247,520,cs),
(121,520,o),
(30,455,o),
(30,348,cs),
(30,256,o),
(96,188,o),
(220,176,cs),
(268,171,o),
(286,159.817,o),
(286,136.433,cs)
);
}
);
width = 510;
}
);
leftKerningGroup = s1;
rightKerningGroup = s;
},
{
glyphname = s.ss10;
layers = (
{
anchors = (
{
name = top;
position = "{255, 520}";
},
{
name = bottom;
position = "{265, -20}";
}
);
hints = (
{
place = (38,191);
type = Stem;
},
{
place = (295,193);
type = Stem;
},
{
horizontal = 1;
place = (-20,130);
type = Stem;
},
{
horizontal = 1;
place = (390,130);
type = Stem;
}
);
layerId = "7E68ED66-4A14-482F-A6AB-3A68329E00A9";
shapes = (
{
closed = 1;
nodes = (
(404,-20,o),
(486,43,o),
(486,151,cs),
(486,258.058,o),
(385.265,290.251,o),
(309.93,314.327,cs),
(264.935,328.706,o),
(229,340.19,o),
(229,362.661,cs),
(229,379,o),
(248,390,o),
(281.634,390,cs),
(339,390,o),
(382,358,o),
(432,280,c),
(475,430,l),
(450,470,o),
(371,520,o),
(254,520,cs),
(110,520,o),
(38,444,o),
(38,346,cs),
(38,233.88,o),
(144.71,204.387,o),
(220.608,183.409,cs),
(262.497,171.832,o),
(295,162.848,o),
(295,144,cs),
(295,123,o),
(275,110,o),
(235,110,cs),
(175,110,o),
(126,140,o),
(73,220,c),
(30,70,l),
(80,1,o),
(187,-20,o),
(266,-20,cs)
);
}
);
width = 522;
}
);
leftKerningGroup = s1;
rightKerningGroup = s;
},
{
glyphname = S.ss10;
layers = (
{
anchors = (
{
name = top;
position = "{275, 719}";
},
{
name = bottom;
position = "{290, -20}";
}
);
hints = (
{
place = (19,191);
type = Stem;
},
{
place = (363,189);
type = Stem;
},
{
horizontal = 1;
place = (-20,141);
type = Stem;
},
{
horizontal = 1;
place = (579,141);
type = Stem;
}
);
layerId = "7E68ED66-4A14-482F-A6AB-3A68329E00A9";
shapes = (
{
closed = 1;
nodes = (
(35,346.637,o),
(142.648,307.754,o),
(232.877,275.162,cs),
(297.973,251.649,o),
(353,231.411,o),
(353,178.097,cs),
(353,143.038,o),
(328.915,120,o),
(273.719,120,cs),
(193.434,120,o),
(137.235,169.297,o),
(71,286,c),
(26,122,l),
(81.107,38,o),
(167.273,-20,o),
(290.512,-20,cs),
(443.808,-20,o),
(543,71.152,o),
(543,214.391,cs),
(543,347.008,o),
(437.629,384.035,o),
(348.197,415.461,cs),
(282.267,438.629,o),
(225,458.752,o),
(225,511.886,cs),
(225,546.945,o),
(249,580,o),
(305,580,cs),
(373,580,o),
(423,530.703,o),
(487,414,c),
(532,578,l),
(478,662,o),
(392,720,o),
(272,720,cs),
(127,720,o),
(35,634.858,o),
(35,488.614,cs)
);
}
);
width = 580;
}
);
leftKerningGroup = S1;
rightKerningGroup = S;
},
{
glyphname = G.ss10;
layers = (
{
anchors = (
{
name = bottom;
position = "{394, -19}";
},
{
name = top;
position = "{394, 719}";
}
);
hints = (
{
place = (33,191);
type = Stem;
},
{
horizontal = 1;
place = (-20,141);
type = Stem;
},
{
horizontal = 1;
place = (241,131);
type = Stem;
},
{
horizontal = 1;
place = (579,141);
type = Stem;
},
{
horizontal = 1;
place = (0,21);
target = up;
type = BottomGhost;
}
);
layerId = "7E68ED66-4A14-482F-A6AB-3A68329E00A9";
shapes = (
{
closed = 1;
nodes = (
(617,241,l),
(570,241,l),
(363,241,l),
(363,371,l),
(737,371,l),
(737,0,l),
(677,0,l)
);
},
{
closed = 1;
nodes = (
(510,720,o),
(620,664,o),
(689,578,c),
(644,414,l),
(567,534.727,o),
(497,580,o),
(408,580,cs),
(284,580,o),
(224,490.611,o),
(224,351.004,cs),
(224,202.358,o),
(293,120,o),
(403,120,cs),
(503,120,o),
(564,189.309,o),
(564,310.852,cs),
(564,327.928,o),
(563,339.982,o),
(563,344,c),
(647,315,l),
(661,229,l),
(622,61,o),
(533,-20,o),
(385,-20,cs),
(173.8,-20,o),
(33,129.6,o),
(33,354,cs),
(33,560,o),
(166,720,o),
(382,720,cs)
);
}
);
width = 770;
}
);
leftKerningGroup = C1;
rightKerningGroup = G;
},
{
glyphname = G.ss09;
layers = (
{
anchors = (
{
name = bottom;
position = "{390, -19}";
},
{
name = top;
position = "{390, 719}";
}
);
hints = (
{
place = (33,191);
type = Stem;
},
{
horizontal = 1;
place = (-20,141);
type = Stem;
},
{
horizontal = 1;
place = (251,131);
type = Stem;
},
{
horizontal = 1;
place = (485,235);
type = Stem;
},
{
horizontal = 1;
place = (579,141);
type = Stem;
},
{
horizontal = 1;
place = (0,21);
target = up;
type = BottomGhost;
}
);
layerId = "7E68ED66-4A14-482F-A6AB-3A68329E00A9";
shapes = (
{
closed = 1;
nodes = (
(186,720,o),
(33,563,o),
(33,350,cs),
(33,128,o),
(167,-20,o),
(368,-20,cs),
(511,-20,o),
(618,75,o),
(651,236,c),
(552,343,l),
(552,339,o),
(552,328,o),
(552,328,cs),
(552,220.483,o),
(504,120,o),
(393,120,cs),
(297,120,o),
(224,196.332,o),
(224,354.017,cs),
(224,497.642,o),
(285,580,o),
(401,580,cs),
(473,580,o),
(519,548,o),
(536,485,c),
(727,485,l),
(697,623,o),
(566,720,o),
(399,720,cs)
);
},
{
closed = 1;
nodes = (
(624,248,l),
(686,0,l),
(747,0,l),
(747,381,l),
(330,381,l),
(330,251,l),
(584,251,l)
);
}
);
width = 780;
}
);
leftKerningGroup = C1;
rightKerningGroup = G;
},
{
glyphname = G.ss13;
layers = (
{
anchors = (
{
name = bottom;
position = "{392, -19}";
},
{
name = top;
position = "{392, 719}";
}
);
hints = (
{
place = (33,191);
type = Stem;
},
{
place = (586,174);
type = Stem;
},
{
horizontal = 1;
place = (-20,141);
type = Stem;
},
{
horizontal = 1;
place = (250,141);
type = Stem;
},
{
horizontal = 1;
place = (485,235);
type = Stem;
},
{
horizontal = 1;
place = (579,141);
type = Stem;
}
);
layerId = "7E68ED66-4A14-482F-A6AB-3A68329E00A9";
shapes = (
{
closed = 1;
nodes = (
(188,720,o),
(33,573,o),
(33,354,cs),
(33,140,o),
(181,-20,o),
(401,-20,cs),
(617,-20,o),
(750,134.623,o),
(750,320.17,cs),
(750,390,l),
(390,390,l),
(390,250,l),
(576,250,l),
(560,179.457,o),
(506,120,o),
(411,120,cs),
(294,120,o),
(224,209.389,o),
(224,351.004,cs),
(224,491.616,o),
(293,580,o),
(405,580,cs),
(478,580,o),
(523,541,o),
(539,485,c),
(730,485,l),
(687,621,o),
(574,720,o),
(400,720,cs)
);
}
);
width = 783;
}
);
leftKerningGroup = C1;
rightKerningGroup = C;
},
{
glyphname = G.ss14;
layers = (
{
anchors = (
{
name = bottom;
position = "{388, -19}";
},
{
name = top;
position = "{388, 719}";
}
);
hints = (
{
place = (34,191);
type = Stem;
},
{
horizontal = 1;
place = (-20,141);
type = Stem;
},
{
horizontal = 1;
place = (241,141);
type = Stem;
},
{
horizontal = 1;
place = (579,141);
type = Stem;
}
);
layerId = "7E68ED66-4A14-482F-A6AB-3A68329E00A9";
shapes = (
{
closed = 1;
nodes = (
(620,381,l),
(361,381,l),
(361,241,l),
(578,241,l),
(562.958,159.325,o),
(509.807,120,o),
(427.575,120,cs),
(302.221,120,o),
(224,210.393,o),
(224,351.004,cs),
(224,494.629,o),
(286.146,580,o),
(410.439,580,cs),
(509.672,580,o),
(575.828,534.727,o),
(649,414,c),
(694,578,l),
(630.905,662,o),
(519.736,720,o),
(390.541,720,cs,{name = " ";}),
(172.211,720,o),
(33,561,o),
(33,350,cs),
(33,147,o),
(168.23,-20,o),
(382.596,-20,cs),
(571.918,-20,o),
(620,131.622,o),
(620,320.152,c)
);
},
{
closed = 1;
nodes = (
(578,0,l),
(718,0,l),
(718,381,l),
(578,381,l)
);
}
);
width = 775;
}
);
leftKerningGroup = C1;
rightKerningGroup = G;
},
{
glyphname = J.ss09;
layers = (
{
anchors = (
{
name = bottom;
position = "{279, -20}";
},
{
name = top;
position = "{430, 719}";
}
);
hints = (
{
place = (334,190);
type = Stem;
},
{
horizontal = 1;
place = (-20,141);
type = Stem;
},
{
horizontal = 1;
place = (-20,215);
type = Stem;
},
{
horizontal = 1;
place = (700,-20);
target = down;
type = TopGhost;
}
);
layerId = "7E68ED66-4A14-482F-A6AB-3A68329E00A9";
shapes = (
{
closed = 1;
nodes = (
(30,195,l),
(55,55,o),
(131,-20,o),
(280,-20,cs),
(447,-20,o),
(524,75,o),
(524,252,cs),
(524,700,l),
(334,700,l),
(334,251.226,ls),
(334,147.047,o),
(313,120,o),
(278,120,cs),
(243,120,o),
(227,147,o),
(220,195,c)
);
}
);
width = 584;
}
);
leftKerningGroup = J;
rightKerningGroup = J1;
},
{
glyphname = J.ss10;
layers = (
{
anchors = (
{
name = top;
position = "{428, 719}";
},
{
name = bottom;
position = "{279, -20}";
}
);
hints = (
{
place = (328,190);
type = Stem;
},
{
horizontal = 1;
place = (-20,140);
type = Stem;
},
{
horizontal = 1;
place = (700,-20);
target = down;
type = TopGhost;
}
);
layerId = "7E68ED66-4A14-482F-A6AB-3A68329E00A9";
shapes = (
{
closed = 1;
nodes = (
(518,700,l),
(328,700,l),
(328,253.23,ls),
(328,153.057,o),
(307,120,o),
(245,120,cs),
(169,120,o),
(115,172.315,o),
(54,286,c),
(9,122,l),
(64,41,o),
(151,-20,o),
(273,-20,cs),
(431,-20,o),
(518,82,o),
(518,252,cs)
);
}
);
width = 578;
}
);
leftKerningGroup = J;
rightKerningGroup = J1;
},
{
glyphname = a.ss10;
layers = (
{
anchors = (
{
name = top;
position = "{284, 520}";
},
{
name = bottom;
position = "{284, -20}";
},
{
name = ogonek;
position = "{496, -3}";
}
);
hints = (
{
place = (35,190);
type = Stem;
},
{
place = (313,190);
type = Stem;
},
{
horizontal = 1;
place = (-20,125);
type = Stem;
},
{
horizontal = 1;
place = (192,94);
type = Stem;
},
{
horizontal = 1;
place = (390,130);
type = Stem;
},
{
horizontal = 1;
place = (0,21);
target = up;
type = BottomGhost;
}
);
layerId = "7E68ED66-4A14-482F-A6AB-3A68329E00A9";
shapes = (
{
closed = 1;
nodes = (
(216.356,390,o),
(147,383,o),
(83,280,c),
(40,430,l),
(74,482,o),
(170.499,520,o),
(278.535,520,cs),
(415.941,520,o),
(503,458,o),
(503,352,cs),
(503,-10,l),
(313,73,l),
(313,202,l),
(302,181,o),
(284,171,o),
(263,171,cs),
(236,171,o),
(225,155,o),
(225,139,cs),
(225,122,o),
(237,105,o),
(263,105,cs),
(300,105,o),
(313,139,o),
(313,192,c),
(341,111,l),
(321,34,o),
(290,-20,o),
(202,-20,cs),
(106,-20,o),
(35,44,o),
(35,137,cs),
(35,231,o),
(109,286,o),
(228,286,cs),
(292,286,o),
(313,302,o),
(313,338,cs),
(313,369,o),
(295.945,390,o),
(245.918,390,cs)
);
}
);
width = 568;
}
);
leftKerningGroup = a.ss02;
rightKerningGroup = a.ss021;
},
{
glyphname = a.ss09;
layers = (
{
anchors = (
{
name = top;
position = "{290, 520}";
},
{
name = bottom;
position = "{285, -20}";
},
{
name = ogonek;
position = "{505, -3}";
}
);
hints = (
{
place = (36,190);
type = Stem;
},
{
place = (325,190);
type = Stem;
},
{
horizontal = 1;
place = (-20,121);
type = Stem;
},
{
horizontal = 1;
place = (178,112);
type = Stem;
},
{
horizontal = 1;
place = (331,189);
type = Stem;
},
{
horizontal = 1;
place = (389,131);
type = Stem;
},
{
horizontal = 1;
place = (0,21);
target = up;
type = BottomGhost;
}
);
layerId = "7E68ED66-4A14-482F-A6AB-3A68329E00A9";
shapes = (
{
closed = 1;
nodes = (
(511,352,ls),
(511,455,o),
(427,520,o),
(296,520,cs),
(139,520,o),
(60,449,o),
(53,341,c),
(237,341,l),
(242,376,o),
(259,390,o),
(283,390,cs),
(308,390,o),
(321,376.827,o),
(321,343.387,cs),
(321,238,l),
(296,285,o),
(252,312,o),
(195,312,cs),
(105,312,o),
(39,243,o),
(39,146,cs),
(39,49,o),
(105,-20,o),
(194,-20,cs),
(252,-20,o),
(297,10,o),
(321,63,c),
(321,0,l),
(511,0,l)
);
},
{
closed = 1;
nodes = (
(229,172,o),
(242,182,o),
(265.916,182,cs),
(291,182,o),
(311,171,o),
(321,155,c),
(317,131,o),
(294,114,o),
(266.285,114,cs),
(243,114,o),
(229,126,o),
(229,149.426,cs)
);
}
);
width = 570;
}
);
leftKerningGroup = a.ss02;
rightKerningGroup = a.ss021;
},
{
glyphname = Schwa.ss09;
layers = (
{
anchors = (
{
name = top;
position = "{390, 719}";
},
{
name = bottom;
position = "{390, -20}";
}
);
hints = (
{
horizontal = 1;
place = (-20,141);
type = Stem;
},
{
horizontal = 1;
place = (284,130);
type = Stem;
},
{
horizontal = 1;
place = (485,235);
type = Stem;
},
{
horizontal = 1;
place = (579,141);
type = Stem;
}
);
layerId = "7E68ED66-4A14-482F-A6AB-3A68329E00A9";
shapes = (
{
closed = 1;
nodes = (
(503,580,o),
(556,505.69,o),
(556,350.013,cs),
(556,192.328,o),
(503,120,o),
(392,120,cs),
(294,120,o),
(239,175,o),
(229,280,c),
(565,280,l),
(566,417,l),
(40,417,l),
(36,402,o),
(33,376,o),
(33,358,cs),
(33,125,o),
(170,-20,o),
(390,-20,cs),
(596,-20,o),
(746,111,o),
(746,350,cs),
(746,582,o),
(594,720,o),
(393,720,cs),
(216,720,o),
(87,623,o),
(55,485,c),
(246,485,l),
(264,538,o),
(307,580,o),
(389,580,cs)
);
}
);
width = 779;
}
);
leftKerningGroup = C1;
rightKerningGroup = C;
},
{
glyphname = schwa.ss09;
layers = (
{
anchors = (
{
name = bottom;
position = "{302, -20}";
},
{
name = top;
position = "{302, 520}";
}
);
hints = (
{
horizontal = 1;
place = (-20,130);
type = Stem;
},
{
horizontal = 1;
place = (184,110);
type = Stem;
},
{
horizontal = 1;
place = (331,189);
type = Stem;
},
{
horizontal = 1;
place = (389,131);
type = Stem;
}
);
layerId = "7E68ED66-4A14-482F-A6AB-3A68329E00A9";
shapes = (
{
closed = 1;
nodes = (
(370,176,l),
(362,138,o),
(341,110,o),
(297,110,cs),
(257,110,o),
(236,133,o),
(228,176,c)
);
},
{
closed = 1;
nodes = (
(344,390,o),
(372,356.708,o),
(373,296,c),
(42,296,l),
(41,281.911,o),
(39,268.828,o),
(39,245.682,cs),
(39,82.65,o),
(143,-20,o),
(305,-20,cs),
(469,-20,o),
(565,92,o),
(565,252,cs),
(565,398,o),
(478,520,o),
(300,520,cs),
(161,520,o),
(70,447,o),
(44,337,c),
(234,337,l),
(242,364,o),
(266,390,o),
(303,390,cs)
);
}
);
width = 604;
}
);
leftKerningGroup = a;
rightKerningGroup = b1;
},
{
glyphname = Schwa.ss10;
layers = (
{
anchors = (
{
name = top;
position = "{390, 719}";
},
{
name = bottom;
position = "{390, -20}";
}
);
hints = (
{
horizontal = 1;
place = (-20,140);
type = Stem;
},
{
horizontal = 1;
place = (275,130);
type = Stem;
},
{
horizontal = 1;
place = (579,141);
type = Stem;
}
);
layerId = "7E68ED66-4A14-482F-A6AB-3A68329E00A9";
shapes = (
{
closed = 1;
nodes = (
(278,580,o),
(192.03,549.194,o),
(119.03,428.467,c),
(78,578,l),
(145,664,o),
(251,720,o),
(384,720,cs),
(595,720,o),
(746,590,o),
(746,358,cs),
(746,119,o),
(596,-20,o),
(390,-20,cs),
(170,-20,o),
(33,125,o),
(33,358,cs),
(33,376,o),
(36,402,o),
(40,417,c),
(566,417,l),
(565,280,l),
(229,280,l),
(239,174.34,o),
(294,120,o),
(392,120,cs),
(503,120,o),
(556,195.328,o),
(556,353.013,cs),
(556,508.69,o),
(492,580,o),
(378,580,cs)
);
}
);
width = 779;
}
);
leftKerningGroup = C1;
rightKerningGroup = C;
},
{
glyphname = schwa.ss10;
layers = (
{
anchors = (
{
name = bottom;
position = "{300, -20}";
},
{
name = top;
position = "{300, 520}";
}
);
hints = (
{
place = (380,189);
type = Stem;
},
{
horizontal = 1;
place = (-20,130);
type = Stem;
},
{
horizontal = 1;
place = (209,70);
type = Stem;
},
{
horizontal = 1;
place = (390,130);
type = Stem;
},
{
place = (51,188);
type = Stem;
}
);
layerId = "7E68ED66-4A14-482F-A6AB-3A68329E00A9";
shapes = (
{
closed = 1;
nodes = (
(51,289,l),
(50,280,o),
(49,270,o),
(49,254,cs),
(49,94,o),
(148,-20,o),
(302,-20,cs),
(457,-20,o),
(561,95,o),
(561,250,cs),
(561,410,o),
(448,520,o),
(282,520,cs),
(185,520,o),
(93,482,o),
(59,430,c),
(100,291,l),
(151,368,o),
(207,390,o),
(259,390,cs),
(326,390,o),
(360,355,o),
(369,289,c)
);
},
{
closed = 1;
nodes = (
(267,110,o),
(245,138,o),
(239,179,c),
(365,179,l),
(356,136,o),
(337,110,o),
(303,110,cs)
);
}
);
width = 600;
}
);
leftKerningGroup = a;
rightKerningGroup = b1;
},
{
glyphname = e.ss10;
layers = (
{
anchors = (
{
name = top;
position = "{294, 520}";
},
{
name = bottom;
position = "{294, -20}";
},
{
name = ogonek;
position = "{434, -3}";
}
);
hints = (
{
place = (29,191);
type = Stem;
},
{
place = (368,193);
type = Stem;
},
{
horizontal = 1;
place = (-20,130);
type = Stem;
},
{
horizontal = 1;
place = (224,104);
type = Stem;
},
{
horizontal = 1;
place = (390,130);
type = Stem;
}
);
layerId = "7E68ED66-4A14-482F-A6AB-3A68329E00A9";
shapes = (
{
closed = 1;
nodes = (
(368,328,l),
(368,358,o),
(340.816,390,o),
(294.503,390,cs),
(247.184,390,o),
(220,356,o),
(220,328,c)
);
},
{
closed = 1;
nodes = (
(394.618,110,o),
(443.28,139,o),
(503,220,c),
(546,70,l),
(511.934,18,o),
(419.756,-20,o),
(312.676,-20,cs),
(123.184,-20,o),
(28,99,o),
(28,255,cs),
(28,401,o),
(132.381,520,o),
(302,520,cs),
(473,520,o),
(571,408,o),
(561,224,c),
(219,224,l),
(219,166,o),
(245.092,110,o),
(332.045,110,cs)
);
}
);
width = 585;
}
);
leftKerningGroup = a;
rightKerningGroup = b1;
},
{
glyphname = e.ss09;
layers = (
{
anchors = (
{
name = top;
position = "{300, 520}";
},
{
name = bottom;
position = "{300, -20}";
},
{
name = ogonek;
position = "{423, -3}";
}
);
hints = (
{
place = (30,191);
type = Stem;
},
{
place = (379,192);
type = Stem;
},
{
horizontal = 1;
place = (-20,131);
type = Stem;
},
{
horizontal = 1;
place = (228,100);
type = Stem;
},
{
horizontal = 1;
place = (390,130);
type = Stem;
},
{
horizontal = 1;
place = (-20,187);
type = Stem;
}
);
layerId = "7E68ED66-4A14-482F-A6AB-3A68329E00A9";
shapes = (
{
closed = 1;
nodes = (
(379,328,l),
(379,366,o),
(348.62,390,o),
(303.051,390,cs),
(253.43,390,o),
(219,365,o),
(219,328,c)
);
},
{
closed = 1;
nodes = (
(351.648,110,o),
(377.975,132,o),
(380,167,c),
(563,167,l),
(542.925,47,o),
(451.583,-20,o),
(311.058,-20,cs),
(141.223,-20,o),
(28,90,o),
(28,255,cs),
(28,414,o),
(140.4,520,o),
(309,520,cs),
(470.318,520,o),
(582,417.79,o),
(571,228,c),
(219,228,l),
(219,146,o),
(246.34,110,o),
(310.132,110,cs)
);
}
);
width = 595;
}
);
leftKerningGroup = a;
rightKerningGroup = b1;
},
{
glyphname = b.ss11;
layers = (
{
anchors = (
{
name = bottom;
position = "{345, -20}";
},
{
name = top;
position = "{330, 750}";
}
);
hints = (
{
place = (60,190);
type = Stem;
},
{
place = (417,190);
type = Stem;
},
{
horizontal = 1;
place = (-20,126);
type = Stem;
},
{
horizontal = 1;
place = (393,127);
type = Stem;
},
{
horizontal = 1;
place = (700,-20);
target = down;
type = TopGhost;
}
);
layerId = "7E68ED66-4A14-482F-A6AB-3A68329E00A9";
shapes = (
{
closed = 1;
nodes = (
(250,73,l),
(250,700,l),
(60,700,l),
(60,-10,l)
);
},
{
closed = 1;
nodes = (
(218,77,o),
(273,-20,o),
(394.058,-20,cs),
(514,-20,o),
(587,87,o),
(587,255,cs),
(587,420,o),
(517,520,o),
(395,520,cs),
(273,520,o),
(218,420,o),
(218,255,cs)
);
},
{
closed = 1;
nodes = (
(397,168.633,o),
(373,120,o),
(330,120,cs),
(283,120,o),
(250,175.18,o),
(250,254.676,cs),
(250,327.626,o),
(283,380,o),
(329,380,cs),
(371,380,o),
(397,333.237,o),
(397,253.741,cs)
);
}
);
width = 629;
}
);
leftKerningGroup = b;
rightKerningGroup = b1;
},
{
glyphname = d.ss11;
layers = (
{
anchors = (
{
name = bottom;
position = "{285, -20}";
},
{
name = top;
position = "{318, 750}";
},
{
name = topright;
position = "{617, 700}";
}
);
hints = (
{
place = (39,190);
type = Stem;
},
{
place = (402,190);
type = Stem;
},
{
horizontal = 1;
place = (-20,126);
type = Stem;
},
{
horizontal = 1;
place = (393,127);
type = Stem;
},
{
horizontal = 1;
place = (700,-20);
target = down;
type = TopGhost;
}
);
layerId = "7E68ED66-4A14-482F-A6AB-3A68329E00A9";
shapes = (
{
closed = 1;
nodes = (
(392,90,l),
(582,-10,l),
(582,700,l),
(392,700,l)
);
},
{
closed = 1;
nodes = (
(424,372,o),
(399,520,o),
(251.691,520,cs),
(130,520,o),
(49,419,o),
(49,255,cs),
(49,88,o),
(133,-20,o),
(242.121,-20,cs),
(372,-20,o),
(424,113,o),
(424,253,cs)
);
},
{
closed = 1;
nodes = (
(239,337,o),
(266,383,o),
(316,383,cs),
(361,383,o),
(392,337,o),
(392,255,cs),
(392,173,o),
(360,116,o),
(315,116,cs),
(267,116,o),
(239,167,o),
(239,254,cs)
);
}
);
width = 635;
}
);
leftKerningGroup = a;
},
{
glyphname = f.ss11;
layers = (
{
anchors = (
{
name = top;
position = "{250, 750}";
},
{
name = bottom;
position = "{183, -20}";
}
);
hints = (
{
place = (89,190);
type = Stem;
},
{
horizontal = 1;
place = (369,131);
type = Stem;
},
{
horizontal = 1;
place = (586,135);
type = Stem;
},
{
horizontal = 1;
place = (0,21);
target = up;
type = BottomGhost;
}
);
layerId = "7E68ED66-4A14-482F-A6AB-3A68329E00A9";
shapes = (
{
closed = 1;
nodes = (
(89,370,l),
(89,0,l),
(279,0,l),
(279,370,l),
(405,370,l),
(405,500,l),
(279,500,l),
(279,521,ls),
(279,564,o),
(295,586,o),
(324,586,cs),
(339,586,o),
(380,584,o),
(421,578,c),
(421,708,l),
(374,715,o),
(335,721,o),
(277,721,cs),
(158,721,o),
(89,674,o),
(89,578,cs),
(89,500,l),
(12,500,l),
(12,370,l)
);
}
);
width = 423;
}
);
leftKerningGroup = f;
rightKerningGroup = f1;
},
{
glyphname = h.ss11;
layers = (
{
anchors = (
{
name = top;
position = "{154, 750}";
},
{
name = bottom;
position = "{318, -20}";
}
);
hints = (
{
place = (59,190);
type = Stem;
},
{
place = (387,190);
type = Stem;
},
{
horizontal = 1;
place = (389,131);
type = Stem;
},
{
horizontal = 1;
place = (0,21);
target = up;
type = BottomGhost;
},
{
horizontal = 1;
place = (700,-20);
target = down;
type = TopGhost;
}
);
layerId = "7E68ED66-4A14-482F-A6AB-3A68329E00A9";
shapes = (
{
closed = 1;
nodes = (
(59,700,l),
(59,0,l),
(249,0,l),
(249,700,l)
);
},
{
closed = 1;
nodes = (
(233,282,l),
(249,217,l),
(249,313.18,o),
(269,380,o),
(324,380,cs),
(364,380,o),
(386,344.815,o),
(386,267.407,cs),
(386,0,l),
(576,0,l),
(576,314,ls),
(576,458,o),
(512,520,o),
(418,520,cs),
(327,520,o),
(258,461,o),
(231,360,c)
);
}
);
width = 635;
}
);
leftKerningGroup = b;
rightKerningGroup = h;
},
{
glyphname = l.ss11;
layers = (
{
anchors = (
{
name = top;
position = "{136, 750}";
},
{
name = bottom;
position = "{136, -20}";
},
{
name = topright;
position = "{272, 700}";
}
);
hints = (
{
place = (41,190);
type = Stem;
},
{
horizontal = 1;
place = (700,-20);
target = down;
type = TopGhost;
},
{
horizontal = 1;
place = (0,21);
target = up;
type = BottomGhost;
}
);
layerId = "7E68ED66-4A14-482F-A6AB-3A68329E00A9";
shapes = (
{
closed = 1;
nodes = (
(231,700,l),
(41,700,l),
(41,0,l),
(231,0,l)
);
}
);
width = 272;
}
);
leftKerningGroup = b;
},
{
glyphname = t.ss11;
layers = (
{
anchors = (
{
name = bottom;
position = "{159, -20}";
},
{
name = top;
position = "{158, 630}";
},
{
name = topright;
position = "{282, 700}";
}
);
hints = (
{
place = (62,190);
type = Stem;
},
{
horizontal = 1;
place = (370,130);
type = Stem;
},
{
horizontal = 1;
place = (620,-20);
target = down;
type = TopGhost;
},
{
horizontal = 1;
place = (0,21);
target = up;
type = BottomGhost;
}
);
layerId = "7E68ED66-4A14-482F-A6AB-3A68329E00A9";
shapes = (
{
closed = 1;
nodes = (
(252,0,l),
(252,370,l),
(350,370,l),
(350,500,l),
(252,500,l),
(252,620,l),
(62,620,l),
(62,500,l),
(4,500,l),
(4,370,l),
(62,370,l),
(62,0,l)
);
}
);
width = 353;
}
);
leftKerningGroup = f;
},
{
glyphname = k.ss11;
layers = (
{
anchors = (
{
name = bottom;
position = "{296, -20}";
},
{
name = top;
position = "{149, 750}";
}
);
hints = (
{
place = (54,190);
type = Stem;
},
{
horizontal = 1;
place = (500,-20);
target = down;
type = TopGhost;
},
{
horizontal = 1;
place = (0,21);
target = up;
type = BottomGhost;
},
{
horizontal = 1;
place = (700,-20);
target = down;
type = TopGhost;
}
);
layerId = "7E68ED66-4A14-482F-A6AB-3A68329E00A9";
shapes = (
{
closed = 1;
nodes = (
(54,0,l),
(244,0,l),
(244,700,l),
(54,700,l)
);
},
{
closed = 1;
nodes = (
(304,362,l,{name = iv02;}),
(120,362,l),
(121,228,l),
(285,228,l,{name = iv01;}),
(377,0,l,{name = ab02;}),
(590,0,l),
(452,283,l),
(577,500,l,{name = av02;}),
(386,500,l)
);
}
);
width = 592;
}
);
leftKerningGroup = b;
rightKerningGroup = k;
},
{
glyphname = AE;
layers = (
{
anchors = (
{
name = top;
position = "{480, 719}";
},
{
name = bottom;
position = "{480, -20}";
}
);
hints = (
{
place = (464,190);
type = Stem;
},
{
horizontal = 1;
place = (0,140);
type = Stem;
},
{
horizontal = 1;
place = (297,140);
type = Stem;
},
{
horizontal = 1;
place = (560,140);
type = Stem;
}
);
layerId = "7E68ED66-4A14-482F-A6AB-3A68329E00A9";
shapes = (
{
closed = 1;
nodes = (
(835,0,l),
(835,140,l),
(588,140,l),
(588,297,l),
(795,297,l),
(795,437,l),
(588,437,l),
(588,560,l),
(820,560,l),
(820,700,l),
(398,700,l),
(398,0,l)
);
},
{
closed = 1;
nodes = (
(256,560,l),
(542,560,l),
(543,700,l),
(300,700,l)
);
},
{
closed = 1;
nodes = (
(193,106,l),
(533,106,l),
(489,246,l),
(237,246,l)
);
},
{
closed = 1;
nodes = (
(224,700,l),
(-3,0,l),
(196,0,l),
(397,700,l)
);
}
);
width = 880;
}
);
leftKerningGroup = A1;
rightKerningGroup = E;
unicode = 198;
},
{
glyphname = ae;
layers = (
{
anchors = (
{
name = top;
position = "{497, 520}";
},
{
name = bottom;
position = "{489, -20}";
}
);
hints = (
{
place = (39,190);
type = Stem;
},
{
place = (402,190);
type = Stem;
},
{
place = (436,187);
type = Stem;
},
{
horizontal = 1;
place = (-20,126);
type = Stem;
},
{
horizontal = 1;
place = (393,127);
type = Stem;
},
{
horizontal = 1;
place = (0,21);
target = up;
type = BottomGhost;
},
{
horizontal = 1;
place = (500,-20);
target = down;
type = TopGhost;
},
{
horizontal = 1;
place = (-20,131);
type = Stem;
},
{
horizontal = 1;
place = (212,111);
type = Stem;
},
{
horizontal = 1;
place = (390,130);
type = Stem;
}
);
layerId = "7E68ED66-4A14-482F-A6AB-3A68329E00A9";
shapes = (
{
closed = 1;
nodes = (
(402,0,l),
(592,0,l),
(592,500,l),
(402,500,l)
);
},
{
closed = 1;
nodes = (
(434,432,o),
(376,520,o),
(255,520,cs),
(120,520,o),
(49,411,o),
(49,262,cs),
(49,99,o),
(134,-20,o),
(259,-20,cs),
(375,-20,o),
(434,82,o),
(434,258,cs)
);
},
{
closed = 1;
nodes = (
(239,334,o),
(270,383,o),
(321,383,cs),
(372,383,o),
(402,335,o),
(402,251,cs),
(402,168,o),
(373,116,o),
(322,116,cs),
(271,116,o),
(239,167,o),
(239,251,cs)
);
},
{
closed = 1;
nodes = (
(592,329,l),
(596,367,o),
(630,390,o),
(688,390,cs),
(743,390,o),
(779,367,o),
(783,329,c)
);
},
{
closed = 1;
nodes = (
(637,110,o),
(593,143,o),
(593,209,c),
(972,209,l),
(981,414,o),
(870,520,o),
(719,520,cs),
(577.81,520,o),
(476,419,o),
(476,251,cs),
(476,81,o),
(581.722,-20,o),
(736.388,-20,cs),
(826.447,-20,o),
(889.097,14,o),
(940,70,c),
(852,158,l),
(824,129,o),
(774,110,o),
(714,110,cs)
);
}
);
width = 996;
}
);
leftKerningGroup = a;
rightKerningGroup = b1;
unicode = 230;
},
{
glyphname = hbar;
layers = (
{
layerId = "7E68ED66-4A14-482F-A6AB-3A68329E00A9";
shapes = (
{
closed = 1;
nodes = (
(65,0,l),
(255,0,l),
(255,750,l),
(65,750,l)
);
},
{
closed = 1;
nodes = (
(239,262,l),
(255,197,l),
(255,293.18,o),
(275,360,o),
(330,360,cs),
(370,360,o),
(392,324.815,o),
(392,247.407,cs),
(392,0,l),
(582,0,l),
(582,294,ls),
(582,438,o),
(518,500,o),
(424,500,cs),
(333,500,o),
(264,441,o),
(237,340,c)
);
},
{
closed = 1;
nodes = (
(11.8,631,l),
(403.464,631,l),
(403.464,665,l),
(11.8,665,l)
);
}
);
width = 641;
}
);
leftKerningGroup = f;
rightKerningGroup = h;
unicode = 295;
},
{
glyphname = kgreenlandic;
layers = (
{
hints = (
{
place = (54,190);
type = Stem;
},
{
horizontal = 1;
place = (500,-20);
target = down;
type = TopGhost;
},
{
horizontal = 1;
place = (0,21);
target = up;
type = BottomGhost;
}
);
layerId = "7E68ED66-4A14-482F-A6AB-3A68329E00A9";
shapes = (
{
closed = 1;
nodes = (
(54,0,l),
(54,500,l),
(244,500,l),
(244,0,l)
);
},
{
closed = 1;
nodes = (
(315,323,l,{name = iv02;}),
(390,500,l),
(579,500,l,{name = av02;}),
(458,263,l),
(592,0,l),
(380,0,l,{name = ab02;}),
(288,189,l,{name = iv01;}),
(124,189,l),
(122,323,l)
);
}
);
width = 594;
}
);
leftKerningGroup = i;
rightKerningGroup = k;
unicode = 312;
},
{
glyphname = Lslash;
layers = (
{
hints = (
{
place = (68,190);
type = Stem;
},
{
horizontal = 1;
place = (0,140);
type = Stem;
},
{
horizontal = 1;
place = (700,-20);
target = down;
type = TopGhost;
}
);
layerId = "7E68ED66-4A14-482F-A6AB-3A68329E00A9";
shapes = (
{
closed = 1;
nodes = (
(0,280,l),
(0,231,l),
(413,510,l),
(413,559,l)
);
},
{
alignment = -1;
ref = L;
}
);
width = 554;
}
);
leftKerningGroup = Eth;
rightKerningGroup = L;
unicode = 321;
},
{
glyphname = lslash;
layers = (
{
hints = (
{
place = (54,190);
type = Stem;
},
{
horizontal = 1;
place = (-21,132);
type = Stem;
},
{
horizontal = 1;
place = (750,-20);
target = down;
type = TopGhost;
},
{
horizontal = 1;
place = (-20,132);
type = Stem;
}
);
layerId = "7E68ED66-4A14-482F-A6AB-3A68329E00A9";
shapes = (
{
closed = 1;
nodes = (
(-6,283,l),
(-6,242,l),
(334,474,l),
(334,515,l)
);
},
{
alignment = -1;
ref = l;
}
);
width = 350;
}
);
leftKerningGroup = f;
rightKerningGroup = l;
unicode = 322;
},
{
glyphname = OE;
layers = (
{
anchors = (
{
name = top;
position = "{484, 719}";
},
{
name = bottom;
position = "{484, -20}";
}
);
layerId = "7E68ED66-4A14-482F-A6AB-3A68329E00A9";
shapes = (
{
closed = 1;
nodes = (
(411.285,140,ls),
(296.727,140,o),
(226,224,o),
(226,359,cs),
(226,489,o),
(291.746,560,o),
(411.285,560,cs),
(485,560,l),
(485,140,l)
);
},
{
closed = 1;
nodes = (
(670,700,l),
(390.557,700,ls),
(178.226,700,o),
(33,558,o),
(33,350,cs),
(33,141,o),
(177.225,0,o),
(390.557,0,cs),
(670,0,l)
);
},
{
closed = 1;
nodes = (
(923,0,l),
(923,140,l),
(676,140,l),
(676,297,l),
(883,297,l),
(883,437,l),
(676,437,l),
(676,560,l),
(908,560,l),
(908,700,l),
(491,700,l),
(491,0,l)
);
}
);
width = 968;
}
);
leftKerningGroup = C1;
rightKerningGroup = E;
unicode = 338;
},
{
glyphname = oe;
layers = (
{
anchors = (
{
name = top;
position = "{479, 520}";
},
{
name = bottom;
position = "{479, -20}";
}
);
layerId = "7E68ED66-4A14-482F-A6AB-3A68329E00A9";
shapes = (
{
closed = 1;
nodes = (
(39,79,o),
(146,-20,o),
(308,-20,cs),
(482,-20,o),
(577,79,o),
(577,255,cs),
(577,421,o),
(481,520,o),
(308,520,cs),
(145,520,o),
(39,421,o),
(39,255,cs)
);
},
{
closed = 1;
nodes = (
(387,163.643,o),
(360,120,o),
(308,120,cs),
(255,120,o),
(229,163.643,o),
(229,250.929,cs),
(229,337.286,o),
(254,380,o),
(308,380,cs),
(360,380,o),
(387,339.143,o),
(387,251.857,cs)
);
},
{
closed = 1;
nodes = (
(574,329,l),
(578,367,o),
(612,390,o),
(662,390,cs),
(712,390,o),
(740,367,o),
(744,329,c)
);
},
{
closed = 1;
nodes = (
(615,120,o),
(574,149.667,o),
(574,209,c),
(931,209,l),
(952.474,390.707,o),
(847.467,520,o),
(660,520,cs),
(501,520,o),
(387,419,o),
(387,251,cs),
(387,81,o),
(504,-20,o),
(676,-20,cs),
(776,-20,o),
(845,14,o),
(901,70,c),
(813,158,l),
(787,135.042,o),
(740,120,o),
(686,120,cs)
);
}
);
width = 957;
}
);
leftKerningGroup = a;
rightKerningGroup = b1;
unicode = 339;
},
{
glyphname = dotlessj;
layers = (
{
anchors = (
{
name = top;
position = "{157, 520}";
},
{
name = bottom;
position = "{100, -217}";
}
);
hints = (
{
place = (61,190);
type = Stem;
},
{
horizontal = 1;
place = (-221,131);
type = Stem;
},
{
horizontal = 1;
place = (500,-20);
target = down;
type = TopGhost;
}
);
layerId = "7E68ED66-4A14-482F-A6AB-3A68329E00A9";
shapes = (
{
closed = 1;
nodes = (
(251,500,l),
(61,500,l),
(61,7,ls),
(61,-59,o),
(55,-81,o),
(16,-81,cs),
(1,-81,o),
(-15,-79,o),
(-34,-73,c),
(-71,-198,l),
(-24,-212,o),
(0,-221,o),
(68,-221,cs),
(187,-221,o),
(251,-174,o),
(251,-68,cs)
);
}
);
width = 300;
}
);
leftKerningGroup = j1;
rightKerningGroup = j;
unicode = 567;
},
